<svg width="50" height="30" viewBox="0 0 50 30" fill="none" xmlns="http://www.w3.org/2000/svg">
<path fill-rule="evenodd" clip-rule="evenodd" d="M9 5C7.89543 5 7 5.89543 7 7V24C7 25.1046 7.89543 26 9 26H42C43.1046 26 44 25.1046 44 24V7C44 5.89543 43.1046 5 42 5H9ZM10.212 9.2L8.964 12H9.628L9.87751 11.4H11.1755L11.424 12H12.104L10.852 9.2H10.212ZM10.9717 10.908L10.5278 9.8364L10.0821 10.908H10.9717ZM12.3945 9.2V12H13.0025V10.3556L13.8225 11.704H14.1145L14.9389 10.3194L14.9425 12H15.5505L15.5425 9.2H15.0105L13.9793 10.9386L12.9305 9.2H12.3945ZM16.8588 10.832V11.48H18.3828V12H16.2148V9.2H18.3308V9.72H16.8588V10.328H18.1588V10.832H16.8588ZM18.8984 9.2V12H19.5464V11.22H20.1104C20.1206 11.22 20.1308 11.2199 20.1409 11.2198L20.6784 12H21.3784L20.7529 11.1024C20.7548 11.1016 20.7566 11.1008 20.7584 11.1C20.9397 11.02 21.0797 10.9053 21.1784 10.756C21.2771 10.604 21.3264 10.424 21.3264 10.216C21.3264 10.0053 21.2771 9.824 21.1784 9.672C21.0797 9.52 20.9397 9.404 20.7584 9.324C20.5771 9.24133 20.3611 9.2 20.1104 9.2H18.8984ZM19.5464 10.704H20.0744C20.2744 10.704 20.4237 10.6613 20.5224 10.576C20.6211 10.488 20.6704 10.368 20.6704 10.216C20.6704 10.0613 20.6211 9.94133 20.5224 9.856C20.4237 9.77067 20.2744 9.728 20.0744 9.728H19.5464V10.704ZM21.8398 9.2V12H22.4878V9.2H21.8398ZM23.8883 11.944C24.075 12.0133 24.2763 12.048 24.4923 12.048C24.7376 12.048 24.9576 12.0053 25.1523 11.92C25.3496 11.8347 25.515 11.7107 25.6483 11.548L25.2323 11.164C25.1363 11.276 25.0296 11.36 24.9123 11.416C24.795 11.4693 24.667 11.496 24.5283 11.496C24.3976 11.496 24.2776 11.4747 24.1683 11.432C24.059 11.3893 23.9643 11.328 23.8843 11.248C23.8043 11.168 23.7416 11.0733 23.6963 10.964C23.6536 10.8547 23.6323 10.7333 23.6323 10.6C23.6323 10.4667 23.6536 10.3453 23.6963 10.236C23.7416 10.1267 23.8043 10.032 23.8843 9.952C23.9643 9.872 24.059 9.81067 24.1683 9.768C24.2776 9.72533 24.3976 9.704 24.5283 9.704C24.667 9.704 24.795 9.732 24.9123 9.788C25.0296 9.84133 25.1363 9.92267 25.2323 10.032L25.6483 9.648C25.515 9.48533 25.3496 9.36267 25.1523 9.28C24.9576 9.19467 24.739 9.152 24.4963 9.152C24.2776 9.152 24.0763 9.188 23.8923 9.26C23.7083 9.32933 23.547 9.42933 23.4083 9.56C23.2723 9.69067 23.1656 9.844 23.0883 10.02C23.0136 10.196 22.9763 10.3893 22.9763 10.6C22.9763 10.8107 23.0136 11.004 23.0883 11.18C23.1656 11.356 23.2723 11.5093 23.4083 11.64C23.5443 11.7707 23.7043 11.872 23.8883 11.944ZM27.5551 9.2H26.9151L25.6671 12H26.3311L26.5806 11.4H27.8786L28.1271 12H28.8071L27.5551 9.2ZM27.6748 10.908L27.2309 9.8364L26.7852 10.908H27.6748ZM29.6336 9.2H29.0976V12H29.7376V10.3005L31.1336 12H31.6656V9.2H31.0256V10.8987L29.6336 9.2ZM9.976 15.832V16.48H11.5V17H9.332V14.2H11.448V14.72H9.976V15.328H11.276V15.832H9.976ZM12.7023 15.5743L11.6683 17H12.4123L13.0773 16.0269L13.7523 17H14.5002L13.4557 15.5521L14.4323 14.2H13.7283L13.0982 15.1065L12.4563 14.2H11.7203L12.7023 15.5743ZM14.7539 14.2V17H15.4019V16.228H15.9659C16.2165 16.228 16.4325 16.188 16.6139 16.108C16.7952 16.0253 16.9352 15.908 17.0339 15.756C17.1325 15.604 17.1819 15.424 17.1819 15.216C17.1819 15.0053 17.1325 14.824 17.0339 14.672C16.9352 14.52 16.7952 14.404 16.6139 14.324C16.4325 14.2413 16.2165 14.2 15.9659 14.2H14.7539ZM15.4019 15.7H15.9299C16.1299 15.7 16.2792 15.6573 16.3779 15.572C16.4765 15.4867 16.5259 15.368 16.5259 15.216C16.5259 15.0613 16.4765 14.9413 16.3779 14.856C16.2792 14.7707 16.1299 14.728 15.9299 14.728H15.4019V15.7ZM17.6445 14.2V17H18.2925V16.22H18.8565C18.8667 16.22 18.8769 16.2199 18.887 16.2198L19.4245 17H20.1245L19.499 16.1024C19.5008 16.1016 19.5027 16.1008 19.5045 16.1C19.6858 16.02 19.8258 15.9053 19.9245 15.756C20.0232 15.604 20.0725 15.424 20.0725 15.216C20.0725 15.0053 20.0232 14.824 19.9245 14.672C19.8258 14.52 19.6858 14.404 19.5045 14.324C19.3232 14.2413 19.1072 14.2 18.8565 14.2H17.6445ZM18.2925 15.704H18.8205C19.0205 15.704 19.1698 15.6613 19.2685 15.576C19.3672 15.488 19.4165 15.368 19.4165 15.216C19.4165 15.0613 19.3672 14.9413 19.2685 14.856C19.1698 14.7707 19.0205 14.728 18.8205 14.728H18.2925V15.704ZM21.2299 15.832V16.48H22.7539V17H20.5859V14.2H22.7019V14.72H21.2299V15.328H22.5299V15.832H21.2299ZM23.5455 16.96C23.7508 17.0187 23.9655 17.048 24.1895 17.048C24.4562 17.048 24.6762 17.008 24.8495 16.928C25.0255 16.848 25.1575 16.7427 25.2455 16.612C25.3335 16.4813 25.3775 16.3373 25.3775 16.18C25.3775 16.0333 25.3468 15.912 25.2855 15.816C25.2268 15.72 25.1495 15.6427 25.0535 15.584C24.9575 15.5253 24.8508 15.4787 24.7335 15.444C24.6188 15.4093 24.5028 15.3787 24.3855 15.352C24.2708 15.3253 24.1655 15.2987 24.0695 15.272C23.9735 15.2453 23.8962 15.2107 23.8375 15.168C23.7788 15.1227 23.7495 15.064 23.7495 14.992C23.7495 14.9307 23.7668 14.8773 23.8015 14.832C23.8362 14.784 23.8935 14.7453 23.9735 14.716C24.0535 14.6867 24.1562 14.672 24.2815 14.672C24.4068 14.672 24.5348 14.6907 24.6655 14.728C24.7962 14.7627 24.9268 14.8173 25.0575 14.892L25.2575 14.4C25.1268 14.3173 24.9762 14.256 24.8055 14.216C24.6348 14.1733 24.4615 14.152 24.2855 14.152C24.0215 14.152 23.8015 14.192 23.6255 14.272C23.4522 14.3493 23.3215 14.4547 23.2335 14.588C23.1482 14.7187 23.1055 14.864 23.1055 15.024C23.1055 15.1733 23.1348 15.296 23.1935 15.392C23.2548 15.488 23.3335 15.5653 23.4295 15.624C23.5255 15.6827 23.6308 15.7307 23.7455 15.768C23.8628 15.8053 23.9788 15.8373 24.0935 15.864C24.2108 15.888 24.3175 15.9147 24.4135 15.944C24.5095 15.9707 24.5868 16.0067 24.6455 16.052C24.7042 16.0947 24.7335 16.1533 24.7335 16.228C24.7335 16.2867 24.7148 16.3387 24.6775 16.384C24.6402 16.4293 24.5815 16.4653 24.5015 16.492C24.4242 16.516 24.3215 16.528 24.1935 16.528C24.0255 16.528 23.8588 16.5013 23.6935 16.448C23.5308 16.392 23.3895 16.3213 23.2695 16.236L23.0495 16.724C23.1748 16.82 23.3402 16.8987 23.5455 16.96ZM26.0963 16.96C26.3016 17.0187 26.5163 17.048 26.7403 17.048C27.0069 17.048 27.2269 17.008 27.4003 16.928C27.5763 16.848 27.7083 16.7427 27.7963 16.612C27.8843 16.4813 27.9283 16.3373 27.9283 16.18C27.9283 16.0333 27.8976 15.912 27.8363 15.816C27.7776 15.72 27.7003 15.6427 27.6043 15.584C27.5083 15.5253 27.4016 15.4787 27.2843 15.444C27.1696 15.4093 27.0536 15.3787 26.9363 15.352C26.8216 15.3253 26.7163 15.2987 26.6203 15.272C26.5243 15.2453 26.4469 15.2107 26.3883 15.168C26.3296 15.1227 26.3003 15.064 26.3003 14.992C26.3003 14.9307 26.3176 14.8773 26.3523 14.832C26.3869 14.784 26.4443 14.7453 26.5243 14.716C26.6043 14.6867 26.7069 14.672 26.8323 14.672C26.9576 14.672 27.0856 14.6907 27.2163 14.728C27.3469 14.7627 27.4776 14.8173 27.6083 14.892L27.8083 14.4C27.6776 14.3173 27.5269 14.256 27.3563 14.216C27.1856 14.1733 27.0123 14.152 26.8363 14.152C26.5723 14.152 26.3523 14.192 26.1763 14.272C26.0029 14.3493 25.8723 14.4547 25.7843 14.588C25.6989 14.7187 25.6563 14.864 25.6563 15.024C25.6563 15.1733 25.6856 15.296 25.7443 15.392C25.8056 15.488 25.8843 15.5653 25.9803 15.624C26.0763 15.6827 26.1816 15.7307 26.2963 15.768C26.4136 15.8053 26.5296 15.8373 26.6443 15.864C26.7616 15.888 26.8683 15.9147 26.9643 15.944C27.0603 15.9707 27.1376 16.0067 27.1963 16.052C27.2549 16.0947 27.2843 16.1533 27.2843 16.228C27.2843 16.2867 27.2656 16.3387 27.2283 16.384C27.1909 16.4293 27.1323 16.4653 27.0523 16.492C26.9749 16.516 26.8723 16.528 26.7443 16.528C26.5763 16.528 26.4096 16.5013 26.2443 16.448C26.0816 16.392 25.9403 16.3213 25.8203 16.236L25.6003 16.724C25.7256 16.82 25.8909 16.8987 26.0963 16.96Z" fill="#6C757D"/>
</svg>
