<svg width="50" height="30" viewBox="0 0 50 30" fill="none" xmlns="http://www.w3.org/2000/svg">
<path d="M26.4122 13.7844C26.4122 14.5906 25.7377 15.0547 24.5493 15.0547H22.9884V12.5141H24.5557C25.7377 12.5141 26.4122 12.9734 26.4122 13.7844ZM29.4634 16.7188C29.4634 17.1078 29.9259 17.3609 30.6517 17.3609C31.5767 17.3609 32.2705 16.9344 32.2705 16.3344V15.9734L30.7609 16.0438C29.9066 16.0859 29.4634 16.3156 29.4634 16.7188ZM44 7.25V23.75C44 24.9922 42.6189 26 40.9167 26H10.0833C8.38108 26 7 24.9922 7 23.75V7.25C7 6.00781 8.38108 5 10.0833 5H40.9167C42.6189 5 44 6.00781 44 7.25ZM15.2094 12.7906C15.749 12.8234 16.2885 12.5938 16.629 12.3031C16.963 12.0031 17.1814 11.6 17.1236 11.1922C16.6483 11.2063 16.0573 11.4219 15.7168 11.7219C15.4085 11.9797 15.1451 12.3969 15.2094 12.7906ZM19.1021 16.2828C19.0892 16.2734 17.8431 15.9266 17.8302 14.8766C17.8174 14 18.813 13.5781 18.858 13.5547C18.2927 12.9453 17.4191 12.8797 17.1172 12.8656C16.3335 12.8328 15.6655 13.1891 15.2929 13.1891C14.9139 13.1891 14.3486 12.8797 13.7319 12.8891C12.929 12.8984 12.1774 13.2312 11.7727 13.7609C10.9313 14.8203 11.5543 16.3859 12.3701 17.2484C12.7684 17.675 13.2502 18.1438 13.8797 18.125C14.4771 18.1062 14.7148 17.8438 15.4342 17.8438C16.1601 17.8438 16.3656 18.125 16.9951 18.1203C17.6503 18.1109 18.055 17.6938 18.4597 17.2672C18.903 16.7797 19.0892 16.3109 19.1021 16.2828ZM27.7997 13.7797C27.7997 12.5328 26.6113 11.6797 24.9155 11.6797H21.6266V18.0734H22.9884V15.8891H24.8705C26.592 15.8891 27.7997 15.0266 27.7997 13.7797ZM33.5809 14.8906C33.5809 13.9672 32.566 13.3719 31.0115 13.3719C29.5661 13.3719 28.4998 13.9766 28.4613 14.8016H29.6882C29.791 14.4078 30.292 14.15 30.9729 14.15C31.808 14.15 32.2705 14.4312 32.2705 14.9562V15.3078L30.5747 15.3828C28.9944 15.4531 28.1401 15.9266 28.1401 16.7469C28.1401 17.5766 29.0201 18.125 30.2856 18.125C31.1399 18.125 31.93 17.8109 32.2898 17.3094H32.3155V18.0781H33.5745V14.8906H33.5809ZM40.1458 13.4328H38.7648L37.1653 17.2109H37.1396L35.5401 13.4328H34.1076L36.4137 18.0875L36.2917 18.3688C36.0861 18.8469 35.7457 19.0344 35.1418 19.0344C35.0326 19.0344 34.8271 19.025 34.7436 19.0203V19.7891C34.8207 19.8078 35.1611 19.8125 35.2639 19.8125C36.5936 19.8125 37.2167 19.4422 37.7627 18.3219L40.1458 13.4328Z" fill="#6C757D"/>
</svg>
