<svg width="50" height="30" viewBox="0 0 50 30" fill="none" xmlns="http://www.w3.org/2000/svg">
<path fill-rule="evenodd" clip-rule="evenodd" d="M7 8.81818C7 6.70946 8.70946 5 10.8182 5H40.1818C42.2905 5 44 6.70946 44 8.81818V22.1818C44 24.2905 42.2905 26 40.1818 26H10.8182C8.70946 26 7 24.2905 7 22.1818V8.81818ZM10.0376 11.3594H22.2992V12.1594H21.3233L21.2385 17.2802H22.2992V18.0802H10.0376V17.2802H10.8843L10.9692 12.1594H10.0376V11.3594ZM19.3644 17.2802L19.4493 12.1594H18.5436L18.4587 17.2802H19.3644ZM15.7643 12.1594H16.6695L16.5846 17.2802H15.6794L15.7643 12.1594ZM13.8053 17.2802L13.8902 12.1594H12.8432L12.7583 17.2802H13.8053ZM9.21924 18.5602H23.2792V20.0002H9.21924V18.5602ZM16.0867 8L22.3164 10.76H9.85693L16.0867 8ZM23.246 15L24.086 10.8H26.024C26.464 10.8 26.802 10.88 27.038 11.04C27.274 11.2 27.392 11.434 27.392 11.742C27.392 12.006 27.324 12.228 27.188 12.408C27.056 12.588 26.884 12.724 26.672 12.816C26.6608 12.8209 26.6496 12.8257 26.6384 12.8304C26.7422 12.8694 26.8354 12.9226 26.918 12.99C27.114 13.146 27.212 13.376 27.212 13.68C27.212 13.972 27.132 14.216 26.972 14.412C26.816 14.608 26.598 14.756 26.318 14.856C26.042 14.952 25.72 15 25.352 15H23.246ZM24.146 14.388H25.406C25.73 14.388 25.982 14.328 26.162 14.208C26.342 14.088 26.432 13.912 26.432 13.68C26.432 13.492 26.366 13.362 26.234 13.29C26.102 13.214 25.916 13.176 25.676 13.176H24.3879L24.146 14.388ZM24.74 11.412L24.5089 12.57H25.616C25.808 12.57 25.976 12.546 26.12 12.498C26.268 12.446 26.38 12.368 26.456 12.264C26.536 12.156 26.576 12.026 26.576 11.874C26.576 11.714 26.512 11.598 26.384 11.526C26.26 11.45 26.082 11.412 25.85 11.412H24.74ZM29.1785 15.042C28.9185 15.042 28.6805 14.986 28.4645 14.874C28.2525 14.762 28.0825 14.602 27.9545 14.394C27.8305 14.182 27.7685 13.928 27.7685 13.632C27.7685 13.36 27.8125 13.11 27.9005 12.882C27.9925 12.654 28.1205 12.456 28.2845 12.288C28.4485 12.12 28.6385 11.99 28.8545 11.898C29.0745 11.806 29.3145 11.76 29.5745 11.76C29.8425 11.76 30.0725 11.808 30.2645 11.904C30.4334 11.9868 30.5667 12.1067 30.6644 12.2638L30.7565 11.796H31.5065L30.8705 15H30.1565L30.221 14.6717C30.1704 14.7166 30.1169 14.7581 30.0605 14.796C29.8165 14.96 29.5225 15.042 29.1785 15.042ZM29.3705 14.4C29.5865 14.4 29.7765 14.35 29.9405 14.25C30.1045 14.146 30.2345 14.004 30.3305 13.824C30.4265 13.644 30.4745 13.436 30.4745 13.2C30.4745 12.952 30.4005 12.756 30.2525 12.612C30.1045 12.468 29.8965 12.396 29.6285 12.396C29.4165 12.396 29.2265 12.448 29.0585 12.552C28.8945 12.652 28.7645 12.792 28.6685 12.972C28.5725 13.152 28.5245 13.36 28.5245 13.596C28.5245 13.844 28.5985 14.04 28.7465 14.184C28.8945 14.328 29.1025 14.4 29.3705 14.4ZM34.2337 11.76C34.5097 11.76 34.7437 11.816 34.9357 11.928C35.1277 12.04 35.2617 12.206 35.3377 12.426C35.4177 12.642 35.4257 12.908 35.3617 13.224L35.0077 15H34.2577L34.6057 13.242C34.6577 12.982 34.6337 12.78 34.5337 12.636C34.4337 12.488 34.2517 12.414 33.9877 12.414C33.7117 12.414 33.4837 12.49 33.3037 12.642C33.1237 12.794 33.0017 13.026 32.9377 13.338L32.6017 15H31.8517L32.4877 11.796H33.2017L33.1323 12.1478C33.2341 12.054 33.3473 11.9788 33.4717 11.922C33.7037 11.814 33.9577 11.76 34.2337 11.76ZM36.7092 15L36.8784 14.1513L37.5517 13.6163L38.4072 15H39.2772L38.1464 13.1679L39.8472 11.796H38.8272L37.0672 13.2051L37.5972 10.548H36.8472L35.9592 15H36.7092ZM24.903 18.23L24.549 20H24.939L25.29 18.23H25.986L26.052 17.9H24.273L24.207 18.23H24.903ZM26.1716 18.398L25.8536 20H26.2286L26.3876 19.211C26.4196 19.043 26.4836 18.921 26.5796 18.845C26.6756 18.767 26.7966 18.728 26.9426 18.728C26.9606 18.728 26.9766 18.729 26.9906 18.731C27.0046 18.731 27.0196 18.733 27.0356 18.737L27.1046 18.38C26.9406 18.38 26.8016 18.405 26.6876 18.455C26.6124 18.4867 26.5458 18.5362 26.488 18.6036L26.5286 18.398H26.1716ZM27.4471 19.937C27.5551 19.993 27.6741 20.021 27.8041 20.021C27.9761 20.021 28.1231 19.98 28.2451 19.898C28.2733 19.879 28.3 19.8583 28.3254 19.8358L28.2931 20H28.6501L28.9681 18.398H28.5931L28.547 18.6319C28.4982 18.5534 28.4316 18.4934 28.3471 18.452C28.2511 18.404 28.1361 18.38 28.0021 18.38C27.8721 18.38 27.7521 18.403 27.6421 18.449C27.5341 18.495 27.4391 18.56 27.3571 18.644C27.2751 18.728 27.2111 18.827 27.1651 18.941C27.1211 19.055 27.0991 19.18 27.0991 19.316C27.0991 19.464 27.1301 19.591 27.1921 19.697C27.2561 19.801 27.3411 19.881 27.4471 19.937ZM28.1851 19.625C28.1031 19.675 28.0081 19.7 27.9001 19.7C27.7661 19.7 27.6621 19.664 27.5881 19.592C27.5141 19.52 27.4771 19.422 27.4771 19.298C27.4771 19.18 27.5011 19.076 27.5491 18.986C27.5971 18.896 27.6621 18.826 27.7441 18.776C27.8281 18.724 27.9231 18.698 28.0291 18.698C28.1631 18.698 28.2671 18.734 28.3411 18.806C28.4151 18.878 28.4521 18.976 28.4521 19.1C28.4521 19.218 28.4281 19.322 28.3801 19.412C28.3321 19.502 28.2671 19.573 28.1851 19.625ZM30.6827 18.464C30.5867 18.408 30.4697 18.38 30.3317 18.38C30.1937 18.38 30.0667 18.407 29.9507 18.461C29.8885 18.4894 29.8319 18.527 29.781 18.5739L29.8157 18.398H29.4587L29.1407 20H29.5157L29.6837 19.169C29.7157 19.013 29.7767 18.897 29.8667 18.821C29.9567 18.745 30.0707 18.707 30.2087 18.707C30.3407 18.707 30.4317 18.744 30.4817 18.818C30.5317 18.89 30.5437 18.991 30.5177 19.121L30.3437 20H30.7187L30.8957 19.112C30.9277 18.954 30.9237 18.821 30.8837 18.713C30.8457 18.603 30.7787 18.52 30.6827 18.464ZM31.3474 19.97C31.4694 20.004 31.6004 20.021 31.7404 20.021C31.8904 20.021 32.0234 20.001 32.1394 19.961C32.2554 19.919 32.3454 19.858 32.4094 19.778C32.4754 19.696 32.5084 19.597 32.5084 19.481C32.5084 19.393 32.4874 19.323 32.4454 19.271C32.4034 19.217 32.3494 19.176 32.2834 19.148C32.2194 19.12 32.1494 19.099 32.0734 19.085C31.9994 19.069 31.9294 19.054 31.8634 19.04C31.7994 19.024 31.7464 19.004 31.7044 18.98C31.6624 18.956 31.6414 18.922 31.6414 18.878C31.6414 18.822 31.6704 18.776 31.7284 18.74C31.7884 18.702 31.8794 18.683 32.0014 18.683C32.0794 18.683 32.1594 18.692 32.2414 18.71C32.3254 18.728 32.4034 18.76 32.4754 18.806L32.6134 18.518C32.5454 18.474 32.4594 18.44 32.3554 18.416C32.2514 18.392 32.1454 18.38 32.0374 18.38C31.8874 18.38 31.7544 18.402 31.6384 18.446C31.5244 18.488 31.4354 18.549 31.3714 18.629C31.3074 18.709 31.2754 18.806 31.2754 18.92C31.2754 19.01 31.2964 19.082 31.3384 19.136C31.3804 19.19 31.4334 19.231 31.4974 19.259C31.5634 19.287 31.6334 19.309 31.7074 19.325C31.7834 19.341 31.8534 19.356 31.9174 19.37C31.9834 19.384 32.0374 19.402 32.0794 19.424C32.1214 19.446 32.1424 19.479 32.1424 19.523C32.1424 19.583 32.1124 19.63 32.0524 19.664C31.9944 19.698 31.9034 19.715 31.7794 19.715C31.6714 19.715 31.5674 19.701 31.4674 19.673C31.3694 19.643 31.2874 19.605 31.2214 19.559L31.0654 19.847C31.1314 19.895 31.2254 19.936 31.3474 19.97ZM33.0453 18.71L32.7864 20H33.1614L33.4205 18.71H33.8484L33.9084 18.41H33.4695L33.4884 18.323C33.5084 18.233 33.5414 18.166 33.5874 18.122C33.6334 18.078 33.6954 18.056 33.7734 18.056C33.8514 18.056 33.9174 18.078 33.9714 18.122L34.1244 17.849C34.0824 17.817 34.0304 17.793 33.9684 17.777C33.9064 17.761 33.8414 17.753 33.7734 17.753C33.5934 17.753 33.4494 17.802 33.3414 17.9C33.2334 17.996 33.1624 18.128 33.1284 18.296L33.1055 18.41H32.8434L32.7834 18.71H33.0453ZM34.2094 19.934C34.3274 19.992 34.4664 20.021 34.6264 20.021C34.7504 20.021 34.8694 20.003 34.9834 19.967C35.0994 19.929 35.1994 19.873 35.2834 19.799L35.1274 19.538C35.0734 19.59 35.0054 19.631 34.9234 19.661C34.8414 19.689 34.7554 19.703 34.6654 19.703C34.5074 19.703 34.3904 19.668 34.3144 19.598C34.2426 19.5302 34.2057 19.4342 34.2035 19.31H35.4754C35.4834 19.276 35.4894 19.239 35.4934 19.199C35.4974 19.159 35.4994 19.12 35.4994 19.082C35.4994 18.936 35.4684 18.811 35.4064 18.707C35.3464 18.601 35.2614 18.52 35.1514 18.464C35.0414 18.408 34.9114 18.38 34.7614 18.38C34.5834 18.38 34.4244 18.421 34.2844 18.503C34.1464 18.583 34.0374 18.693 33.9574 18.833C33.8774 18.973 33.8374 19.134 33.8374 19.316C33.8374 19.458 33.8694 19.582 33.9334 19.688C33.9994 19.792 34.0914 19.874 34.2094 19.934ZM34.2357 19.061C34.245 19.0306 34.2562 19.0016 34.2694 18.974C34.3134 18.88 34.3754 18.808 34.4554 18.758C34.5374 18.706 34.6334 18.68 34.7434 18.68C34.8354 18.68 34.9144 18.698 34.9804 18.734C35.0464 18.77 35.0944 18.822 35.1244 18.89C35.1457 18.9384 35.1554 18.9954 35.1535 19.061H34.2357ZM35.9978 18.398L35.6798 20H36.0548L36.2138 19.211C36.2458 19.043 36.3098 18.921 36.4058 18.845C36.5018 18.767 36.6228 18.728 36.7688 18.728C36.7868 18.728 36.8028 18.729 36.8168 18.731C36.8308 18.731 36.8458 18.733 36.8618 18.737L36.9308 18.38C36.7668 18.38 36.6278 18.405 36.5138 18.455C36.4385 18.4867 36.372 18.5362 36.3142 18.6036L36.3548 18.398H35.9978Z" fill="#6C757D"/>
</svg>
