<svg width="31" height="25" viewBox="0 0 31 25" fill="none" xmlns="http://www.w3.org/2000/svg">
<path d="M9.77268 5.909C8.38632 5.909 7.05675 6.6034 6.07644 7.83943C5.09614 9.07547 4.54541 10.7519 4.54541 12.4999C4.54541 14.2479 5.09614 15.9244 6.07644 17.1604C7.05675 18.3964 8.38632 19.0908 9.77268 19.0908L9.77268 12.4999L9.77268 5.909Z" fill="black"/>
<path d="M15.2273 5.909C16.6137 5.909 17.9433 6.6034 18.9236 7.83943C19.9039 9.07547 20.4546 10.7519 20.4546 12.4999C20.4546 14.2479 19.9039 15.9244 18.9236 17.1604C17.9433 18.3964 16.6137 19.0908 15.2273 19.0908L15.2273 12.4999L15.2273 5.909Z" fill="black"/>
<circle cx="12.5" cy="12.5" r="12.0455" stroke="black" stroke-width="0.909091"/>
<mask id="path-4-inside-1_43_279" fill="white">
<path fill-rule="evenodd" clip-rule="evenodd" d="M17.087 24.0774C21.6498 22.2146 24.8652 17.7328 24.8652 12.5C24.8652 6.50031 20.6383 1.48787 15 0.278177C15.8643 0.0959979 16.7621 0 17.6832 0C24.5868 0 30.1832 5.39293 30.1832 12.0455C30.1832 18.698 24.5868 24.0909 17.6832 24.0909C17.4833 24.0909 17.2846 24.0864 17.087 24.0774Z"/>
</mask>
<path fill-rule="evenodd" clip-rule="evenodd" d="M17.087 24.0774C21.6498 22.2146 24.8652 17.7328 24.8652 12.5C24.8652 6.50031 20.6383 1.48787 15 0.278177C15.8643 0.0959979 16.7621 0 17.6832 0C24.5868 0 30.1832 5.39293 30.1832 12.0455C30.1832 18.698 24.5868 24.0909 17.6832 24.0909C17.4833 24.0909 17.2846 24.0864 17.087 24.0774Z" fill="black"/>
<path d="M17.087 24.0774L16.7434 23.2358L17.0459 24.9856L17.087 24.0774ZM15 0.278177L14.8125 -0.611369L14.8093 1.16704L15 0.278177ZM23.9562 12.5C23.9562 17.3508 20.9761 21.5078 16.7434 23.2358L17.4306 24.9191C22.3236 22.9215 25.7743 18.1148 25.7743 12.5H23.9562ZM14.8093 1.16704C20.0373 2.2887 23.9562 6.93775 23.9562 12.5H25.7743C25.7743 6.06287 21.2394 0.687037 15.1907 -0.610686L14.8093 1.16704ZM17.6832 -0.909091C16.6988 -0.909091 15.7382 -0.806481 14.8125 -0.611369L15.1875 1.16772C15.9905 0.998477 16.8254 0.909091 17.6832 0.909091V-0.909091ZM31.0923 12.0455C31.0923 4.85941 25.0568 -0.909091 17.6832 -0.909091V0.909091C24.1167 0.909091 29.2741 5.92646 29.2741 12.0455H31.0923ZM17.6832 25C25.0568 25 31.0923 19.2315 31.0923 12.0455H29.2741C29.2741 18.1645 24.1167 23.1818 17.6832 23.1818V25ZM17.0459 24.9856C17.2572 24.9952 17.4696 25 17.6832 25V23.1818C17.4971 23.1818 17.312 23.1776 17.1281 23.1693L17.0459 24.9856Z" fill="black" mask="url(#path-4-inside-1_43_279)"/>
</svg>
