<svg width="43" height="34" viewBox="0 0 43 34" fill="none" xmlns="http://www.w3.org/2000/svg">
<g clip-path="url(#clip0_6_29)">
<path d="M15.7727 10.909C14.3863 10.909 13.0567 11.6034 12.0764 12.8394C11.0961 14.0755 10.5454 15.7519 10.5454 17.4999C10.5454 19.2479 11.0961 20.9244 12.0764 22.1604C13.0567 23.3964 14.3863 24.0908 15.7727 24.0908V17.4999V10.909Z" fill="black"/>
<path d="M21.2273 10.909C22.6137 10.909 23.9433 11.6034 24.9236 12.8394C25.9039 14.0755 26.4546 15.7519 26.4546 17.4999C26.4546 19.2479 25.9039 20.9244 24.9236 22.1604C23.9433 23.3964 22.6137 24.0908 21.2273 24.0908V17.4999V10.909Z" fill="black"/>
<path d="M18.5 29.5455C25.1525 29.5455 30.5455 24.1525 30.5455 17.5C30.5455 10.8475 25.1525 5.4545 18.5 5.4545C11.8475 5.4545 6.4545 10.8475 6.4545 17.5C6.4545 24.1525 11.8475 29.5455 18.5 29.5455Z" stroke="black" stroke-width="0.909091"/>
<path fill-rule="evenodd" clip-rule="evenodd" d="M23.087 29.0774C27.6498 27.2146 30.8652 22.7328 30.8652 17.5C30.8652 11.5003 26.6383 6.48787 21 5.27818C21.8643 5.096 22.7621 5 23.6832 5C30.5868 5 36.1832 10.3929 36.1832 17.0455C36.1832 23.698 30.5868 29.0909 23.6832 29.0909C23.4833 29.0909 23.2846 29.0864 23.087 29.0774Z" fill="black"/>
<mask id="mask0_6_29" style="mask-type:luminance" maskUnits="userSpaceOnUse" x="21" y="5" width="16" height="25">
<path fill-rule="evenodd" clip-rule="evenodd" d="M23.087 29.0774C27.6498 27.2146 30.8652 22.7328 30.8652 17.5C30.8652 11.5003 26.6383 6.48787 21 5.27818C21.8643 5.096 22.7621 5 23.6832 5C30.5868 5 36.1832 10.3929 36.1832 17.0455C36.1832 23.698 30.5868 29.0909 23.6832 29.0909C23.4833 29.0909 23.2846 29.0864 23.087 29.0774Z" fill="black"/>
</mask>
<g mask="url(#mask0_6_29)">
<path d="M23.087 29.0774L22.7434 28.2358L23.0459 29.9856L23.087 29.0774ZM21 5.27818L20.8125 4.38863L20.8093 6.16704L21 5.27818ZM29.9562 17.5C29.9562 22.3508 26.9761 26.5078 22.7434 28.2358L23.4306 29.9191C28.3236 27.9215 31.7743 23.1148 31.7743 17.5H29.9562ZM20.8093 6.16704C26.0373 7.2887 29.9562 11.9377 29.9562 17.5H31.7743C31.7743 11.0629 27.2394 5.68704 21.1907 4.38931L20.8093 6.16704ZM23.6832 4.09091C22.6988 4.09091 21.7382 4.19352 20.8125 4.38863L21.1875 6.16772C21.9905 5.99848 22.8254 5.90909 23.6832 5.90909V4.09091ZM37.0923 17.0455C37.0923 9.85941 31.0568 4.09091 23.6832 4.09091V5.90909C30.1167 5.90909 35.2741 10.9265 35.2741 17.0455H37.0923ZM23.6832 30C31.0568 30 37.0923 24.2315 37.0923 17.0455H35.2741C35.2741 23.1645 30.1167 28.1818 23.6832 28.1818V30ZM23.0459 29.9856C23.2572 29.9952 23.4696 30 23.6832 30V28.1818C23.4971 28.1818 23.312 28.1776 23.1281 28.1693L23.0459 29.9856Z" fill="black"/>
</g>
</g>
<defs>
<clipPath id="clip0_6_29">
<rect width="31" height="25" fill="white" transform="translate(6 5)"/>
</clipPath>
</defs>
</svg>
