<svg width="50" height="30" viewBox="0 0 50 30" fill="none" xmlns="http://www.w3.org/2000/svg">
<path d="M8.72168 5C7.77115 5 7 5.69601 7 6.55494V24.4451C7 25.3041 7.77123 26 8.72168 26H42.2795C43.23 26 44 25.304 44 24.4451V6.55494C44 5.69591 43.23 5 42.2795 5H8.72168ZM26.4794 10.9115C26.5044 10.9109 26.5293 10.9115 26.5545 10.9115C28.1703 10.9115 29.4798 12.0948 29.4798 13.5553C29.4798 15.0158 28.1703 16.2002 26.5545 16.2002C24.9387 16.2002 23.6292 15.0158 23.6292 13.5553C23.6292 12.1176 24.8985 10.9477 26.4794 10.9115ZM17.2455 11.0275C17.8255 11.0275 18.3571 11.2074 18.8007 11.5583L18.2607 12.1979C17.9917 11.9253 17.7373 11.8102 17.4282 11.8102C16.9832 11.8102 16.6593 12.0387 16.6593 12.34C16.6593 12.5983 16.8412 12.7358 17.4606 12.9429C18.6346 13.331 18.9822 13.6752 18.9822 14.4352C18.9822 15.3613 18.2303 16.0058 17.1576 16.0058C16.3725 16.0058 15.8005 15.7255 15.325 15.0945L15.9921 14.5146C16.2297 14.9301 16.6261 15.152 17.1184 15.152C17.5787 15.152 17.9196 14.8656 17.9196 14.478C17.9196 14.2771 17.8172 14.1045 17.6109 13.9827C17.5071 13.925 17.3015 13.8388 16.8975 13.71C15.9281 13.3944 15.5956 13.0575 15.5956 12.3985C15.5956 11.6156 16.3092 11.0275 17.2455 11.0275ZM22.1007 11.0275C22.5447 11.0275 22.9181 11.1132 23.3714 11.3201V12.4131C22.942 12.0353 22.5688 11.877 22.0764 11.877C21.1084 11.877 20.3478 12.5992 20.3478 13.5135C20.3478 14.4781 21.0854 15.1562 22.1249 15.1562C22.5929 15.1562 22.9586 15.0064 23.3714 14.6348V15.7278C22.902 15.9267 22.5208 16.0058 22.0764 16.0058C20.5047 16.0058 19.284 14.9197 19.284 13.5197C19.284 12.1349 20.5369 11.0275 22.1006 11.0275H22.1007ZM9.04425 11.1059H10.5705C12.2569 11.1059 13.4322 12.0809 13.4322 13.4811C13.4322 14.1793 13.0724 14.8545 12.4645 15.3025C11.9526 15.6806 11.3698 15.8501 10.5624 15.8501H9.04425V11.1059ZM13.9051 11.1059H14.8949V15.8501H13.9051V11.1059ZM29.0497 11.1059H30.1747L31.5831 14.315L33.0099 11.1058H34.1268L31.8455 16.0058H31.2905L29.0497 11.1059ZM34.5569 11.1059H37.4822V11.9094H35.5871V12.9628H37.4129V13.7664H35.5871V15.0465H37.4822V15.8501H34.5569V11.1059ZM38.2141 11.1059H39.7473C40.9404 11.1059 41.6251 11.6179 41.6251 12.5061C41.6251 13.2325 41.196 13.7091 40.4168 13.851L42.0864 15.85H40.8134L39.382 13.944H39.2466V15.85H38.2141V11.1059V11.1059ZM39.2536 11.853V13.2972H39.5531C40.2073 13.2972 40.5544 13.0397 40.5544 12.5605C40.5544 12.0965 40.2072 11.853 39.5693 11.853H39.2536ZM10.0837 11.9053V15.0507H10.3624C11.035 15.0507 11.461 14.9357 11.788 14.6724C12.1483 14.3868 12.3639 13.9305 12.3639 13.4738C12.3639 13.0182 12.1483 12.5756 11.788 12.2898C11.4443 12.0123 11.035 11.9053 10.3624 11.9053H10.0837ZM43.5491 16.3924C43.5491 16.3924 43.5594 21.4877 43.5364 24.166C43.5343 24.4005 43.4394 24.7715 43.1444 25.0804C42.8494 25.3893 42.3906 25.5338 42.1165 25.5329C41.8424 25.532 15.325 25.5329 15.325 25.5329C33.525 22.6953 43.5491 16.3924 43.5491 16.3924Z" fill="#6C757D"/>
</svg>
