<svg width="30" height="30" viewBox="0 0 30 30" fill="none" xmlns="http://www.w3.org/2000/svg">
<path d="M10.2504 11.9409C5.27311 11.9409 7.67285 17.4964 7.67285 17.4964C8.20613 18.2575 8.91716 18.1053 8.91716 18.638C8.91716 19.0946 8.29501 19.2468 7.67285 19.3229C6.69518 19.3229 5.80638 19.1707 4.91759 20.5406C4.38431 21.3777 4.11768 24.1174 4.11768 24.1174H16.2941C16.2941 24.1174 16.0275 21.3777 15.5831 20.5406C14.6943 19.0946 13.8055 19.3229 12.8279 19.2468C12.2057 19.1707 11.5835 19.0185 11.5835 18.5619C11.5835 18.1053 12.2946 18.2575 12.8279 17.4203C12.8279 17.4964 15.2276 11.9409 10.2504 11.9409Z" fill="white"/>
<line x1="17.353" y1="13.7943" x2="26.8824" y2="13.7943" stroke="white" stroke-width="1.58824"/>
<line x1="17.353" y1="18.0296" x2="26.8824" y2="18.0296" stroke="white" stroke-width="1.58824"/>
<line x1="18.9414" y1="22.265" x2="26.3532" y2="22.265" stroke="white" stroke-width="1.58824"/>
<path d="M18.6765 7.70557H27.4118C28.2889 7.70557 29 8.41664 29 9.2938V24.1173C29 24.9945 28.2889 25.7056 27.4118 25.7056H3.58824C2.71108 25.7056 2 24.9945 2 24.1173V9.2938C2 8.41664 2.71108 7.70557 3.58824 7.70557H12.3235" stroke="white" stroke-width="1.05882"/>
<rect x="12.588" y="4.52941" width="5.82353" height="5.82353" stroke="white" stroke-width="1.05882"/>
</svg>
