<svg width="37" height="21" viewBox="0 0 37 21" fill="none" xmlns="http://www.w3.org/2000/svg">
<path fill-rule="evenodd" clip-rule="evenodd" d="M4 0C1.79102 0 0 1.79102 0 4V17C0 19.209 1.79102 21 4 21H33C35.209 21 37 19.209 37 17V4C37 1.79102 35.209 0 33 0H4ZM17.6084 15.1841C17.7754 15.0791 17.9165 14.9355 18.019 14.7642C18.7202 13.6089 19.1313 12.3008 19.2168 10.9521C19.6211 11.7217 19.9072 12.5586 20.0605 13.438C20.147 13.9326 20.1914 14.4404 20.1914 14.957C20.1914 14.957 20.1953 15.0078 20.1987 15.0962C20.2021 15.1802 20.2056 15.2979 20.2056 15.438C20.2046 15.5425 20.2163 15.646 20.2402 15.7476C20.3296 16.1255 20.5693 16.4688 20.9688 16.6548C21.1475 16.7373 21.3394 16.7852 21.5391 16.7852C21.7778 16.7852 22.0127 16.7202 22.2183 16.5981C22.4238 16.4761 22.5928 16.3013 22.7075 16.0913C22.9756 15.5894 23.2437 14.936 23.4775 14.0908C23.5527 13.8369 23.6147 13.5962 23.6699 13.3418C23.8828 12.3862 24 11.4102 24 10.4067C23.9966 9.90527 23.9648 9.40186 23.9062 8.90381C23.8496 8.41895 23.7681 7.93896 23.6626 7.47119C23.4497 6.53662 23.1338 5.62842 22.7217 4.7627C22.6123 4.53613 22.4414 4.34424 22.229 4.20947C22.0161 4.07471 21.77 4.00195 21.5181 4C21.418 3.99902 21.3188 4.01025 21.2222 4.03271C21.1274 4.05469 21.0356 4.0874 20.9482 4.13037C20.79 4.20508 20.6479 4.31055 20.5308 4.44043C20.4131 4.56982 20.3223 4.72168 20.2637 4.88623C20.2046 5.05127 20.1792 5.22559 20.188 5.40039C20.1968 5.5752 20.2402 5.74658 20.3149 5.9043C20.811 6.94922 21.1299 8.06885 21.2598 9.21826C20.3872 7.8252 19.124 6.57617 17.6421 5.66992C17.6421 5.66992 17.6763 5.69092 17.6953 5.7124L17.6416 5.67725C17.4424 5.54639 17.2012 5.4707 16.9541 5.4707C16.7988 5.46582 16.644 5.49414 16.5005 5.55322C16.3281 5.61816 16.1719 5.71973 16.0439 5.85156C15.9155 5.9834 15.8179 6.14209 15.7583 6.31641C15.6938 6.49365 15.6699 6.68311 15.6875 6.87109C15.7051 7.05908 15.7646 7.24072 15.8613 7.40283C16.2964 8.10254 16.5562 8.90381 16.6548 9.72559C15.9277 8.72803 14.9209 7.85303 13.7783 7.24414C13.6064 7.14795 13.4072 7.1001 13.2075 7.1001C12.9336 7.1001 12.6748 7.19092 12.4663 7.35303C12.3354 7.45508 12.2246 7.58545 12.1421 7.73926C12.0674 7.87891 12.021 8.03125 12.0059 8.18896C11.9985 8.26318 11.998 8.33789 12.0044 8.41211C12.0117 8.49463 12.0278 8.57666 12.0522 8.65625C12.0981 8.80762 12.1733 8.94873 12.2739 9.0708C12.3745 9.19287 12.498 9.29395 12.6377 9.36816C14.3608 10.2939 15.4893 12.0308 15.6704 14.0552C15.6592 14.3359 15.7412 14.6123 15.9038 14.8413C16.0664 15.0708 16.3003 15.2393 16.5688 15.3213C16.8384 15.4038 17.1274 15.394 17.3901 15.293C17.4668 15.2637 17.5396 15.2271 17.6084 15.1841Z" fill="#6C757D"/>
</svg>
