<svg width="50" height="30" viewBox="0 0 50 30" fill="none" xmlns="http://www.w3.org/2000/svg">
<path fill-rule="evenodd" clip-rule="evenodd" d="M11 5C8.79102 5 7 6.79102 7 9V22C7 24.209 8.79102 26 11 26H40C42.209 26 44 24.209 44 22V9C44 6.79102 42.209 5 40 5H11ZM24.6084 20.1841C24.7754 20.0791 24.9165 19.9355 25.019 19.7642C25.7202 18.6089 26.1313 17.3008 26.2168 15.9521C26.6211 16.7217 26.9072 17.5586 27.0605 18.438C27.147 18.9326 27.1914 19.4404 27.1914 19.957C27.1914 19.957 27.1953 20.0078 27.1987 20.0962C27.2021 20.1802 27.2056 20.2979 27.2056 20.438C27.2046 20.5425 27.2163 20.646 27.2402 20.7476C27.3296 21.1255 27.5693 21.4688 27.9688 21.6548C28.1475 21.7373 28.3394 21.7852 28.5391 21.7852C28.7778 21.7852 29.0127 21.7202 29.2183 21.5981C29.4238 21.4761 29.5928 21.3013 29.7075 21.0913C29.9756 20.5894 30.2437 19.936 30.4775 19.0908C30.5527 18.8369 30.6147 18.5962 30.6699 18.3418C30.8828 17.3862 31 16.4102 31 15.4067C30.9966 14.9053 30.9648 14.4019 30.9062 13.9038C30.8496 13.4189 30.7681 12.939 30.6626 12.4712C30.4497 11.5366 30.1338 10.6284 29.7217 9.7627C29.6123 9.53613 29.4414 9.34424 29.229 9.20947C29.0161 9.07471 28.77 9.00195 28.5181 9C28.418 8.99902 28.3188 9.01025 28.2222 9.03271C28.1274 9.05469 28.0356 9.0874 27.9482 9.13037C27.79 9.20508 27.6479 9.31055 27.5308 9.44043C27.4131 9.56982 27.3223 9.72168 27.2637 9.88623C27.2046 10.0513 27.1792 10.2256 27.188 10.4004C27.1968 10.5752 27.2402 10.7466 27.3149 10.9043C27.811 11.9492 28.1299 13.0688 28.2598 14.2183C27.3872 12.8252 26.124 11.5762 24.6421 10.6699C24.6421 10.6699 24.6763 10.6909 24.6953 10.7124L24.6416 10.6772C24.4424 10.5464 24.2012 10.4707 23.9541 10.4707C23.7988 10.4658 23.644 10.4941 23.5005 10.5532C23.3281 10.6182 23.1719 10.7197 23.0439 10.8516C22.9155 10.9834 22.8179 11.1421 22.7583 11.3164C22.6938 11.4937 22.6699 11.6831 22.6875 11.8711C22.7051 12.0591 22.7646 12.2407 22.8613 12.4028C23.2964 13.1025 23.5562 13.9038 23.6548 14.7256C22.9277 13.728 21.9209 12.853 20.7783 12.2441C20.6064 12.1479 20.4072 12.1001 20.2075 12.1001C19.9336 12.1001 19.6748 12.1909 19.4663 12.353C19.3354 12.4551 19.2246 12.5854 19.1421 12.7393C19.0674 12.8789 19.021 13.0312 19.0059 13.189C18.9985 13.2632 18.998 13.3379 19.0044 13.4121C19.0117 13.4946 19.0278 13.5767 19.0522 13.6562C19.0981 13.8076 19.1733 13.9487 19.2739 14.0708C19.3745 14.1929 19.498 14.2939 19.6377 14.3682C21.3608 15.2939 22.4893 17.0308 22.6704 19.0552C22.6592 19.3359 22.7412 19.6123 22.9038 19.8413C23.0664 20.0708 23.3003 20.2393 23.5688 20.3213C23.8384 20.4038 24.1274 20.394 24.3901 20.293C24.4668 20.2637 24.5396 20.2271 24.6084 20.1841Z" fill="#6C757D"/>
</svg>
