<svg width="50" height="30" viewBox="0 0 50 30" fill="none" xmlns="http://www.w3.org/2000/svg">
<path d="M41.5333 26H9.46667C8.81247 26 8.18506 25.7788 7.72247 25.3849C7.25988 24.9911 7 24.457 7 23.9V7.1C7 6.54305 7.25988 6.0089 7.72247 5.61508C8.18506 5.22125 8.81247 5 9.46667 5H41.5333C42.1875 5 42.8149 5.22125 43.2775 5.61508C43.7401 6.0089 44 6.54305 44 7.1V23.9C44 24.457 43.7401 24.9911 43.2775 25.3849C42.8149 25.7788 42.1875 26 41.5333 26ZM22.022 17.3856V23.3759H26.4959C27.3044 23.3752 28.0796 23.1014 28.6513 22.6147C29.223 22.128 29.5445 21.4681 29.5453 20.7798V7.79912H25.0724C24.2638 7.79959 23.4883 8.07323 22.9164 8.55997C22.3445 9.04671 22.0228 9.70678 22.022 10.3952V13.7902C23.0914 13.1518 24.391 12.8547 25.6922 12.9511L25.6716 12.9503C25.8669 12.9503 26.0766 12.9546 26.2934 12.9625C27.1732 13.0115 27.9903 13.1226 28.7807 13.2924L28.6861 13.2749V14.3739C27.9773 14.0496 27.1965 13.8556 26.3942 13.8043L26.3746 13.8034C26.2717 13.7975 26.1685 13.7945 26.0653 13.7946C24.612 13.7946 23.7446 14.4649 23.7446 15.5866C23.7294 15.8396 23.78 16.0924 23.8927 16.3268C24.0055 16.5613 24.1775 16.7717 24.3967 16.9431C24.6159 17.1145 24.8767 17.2426 25.1607 17.3183C25.4447 17.3941 25.7447 17.4155 26.0396 17.3812L26.0293 17.3821C26.1382 17.3821 26.2544 17.3778 26.3746 17.3699C27.1948 17.3118 27.9926 17.113 28.72 16.7854L28.6871 16.7994V17.8984H28.6779C27.909 18.0631 27.1239 18.1668 26.3325 18.2081L26.2934 18.2099C26.0766 18.2186 25.8679 18.2221 25.6716 18.2221C24.3704 18.3138 23.0726 18.0137 22.0045 17.3743L22.022 17.3856ZM30.4323 18.0856V23.3636H34.9062C35.7147 23.3629 36.4899 23.0892 37.0616 22.6025C37.6333 22.1158 37.9548 21.4558 37.9556 20.7675V7.8H33.4982C32.6898 7.8007 31.9147 8.07447 31.3432 8.56121C30.7716 9.04795 30.4503 9.70788 30.4498 10.3961V13.092H34.7551L34.8096 13.0911C34.897 13.0911 34.9823 13.0964 35.0655 13.1077L35.0563 13.1069C36.1005 13.1524 36.748 13.6161 36.748 14.3196C36.7364 14.6299 36.5864 14.9248 36.3284 15.1443C36.0705 15.3637 35.724 15.4912 35.3595 15.5009H35.3574V15.5298C36.3996 15.5893 37.0995 16.0941 37.0995 16.7845C37.0995 17.5493 36.2999 18.0821 35.157 18.0821L30.4323 18.0856ZM13.5778 17.8844V23.3444H18.0517C18.8595 23.3435 19.6339 23.07 20.2053 22.5838C20.7767 22.0977 21.0985 21.4386 21.1001 20.7509V7.80087H16.6436C15.8352 7.80157 15.0602 8.07534 14.4886 8.56208C13.9171 9.04883 13.5958 9.70876 13.5952 10.397V16.8011C14.3579 17.1485 15.2602 17.3629 16.2181 17.3865H16.2264C16.4307 17.4073 16.638 17.3909 16.8344 17.3386C17.0308 17.2862 17.2119 17.1989 17.3659 17.0826C17.5198 16.9663 17.643 16.8235 17.7274 16.6637C17.8118 16.5038 17.8554 16.3306 17.8554 16.1554L17.8544 16.1002V16.1029V13.0789H20.468V16.0889C20.468 17.4994 19.2049 18.2151 16.7156 18.2151C15.6015 18.2151 14.5203 18.0953 13.4894 17.8695L13.5788 17.8861L13.5778 17.8844ZM31.9401 15.8876V17.257H33.6986C33.7243 17.257 33.7664 17.2535 33.8075 17.25C33.8486 17.2465 33.8897 17.243 33.9165 17.243C34.0917 17.211 34.2488 17.1289 34.3616 17.0102C34.4743 16.8916 34.536 16.7437 34.5362 16.5911V16.571V16.5719C34.5357 16.418 34.4751 16.2687 34.3638 16.1475C34.2525 16.0262 34.0969 15.94 33.9216 15.9025L33.9165 15.9016C33.8583 15.8912 33.7991 15.8859 33.7397 15.8859L33.6976 15.8868H33.6996L31.9401 15.8876ZM31.9401 13.8629V15.1176H33.5331L33.5681 15.1185C33.613 15.1184 33.6576 15.1128 33.7006 15.1019L33.6976 15.1027C33.8682 15.0792 34.0235 15.0048 34.1358 14.8928C34.248 14.7808 34.3099 14.6385 34.3104 14.4913C34.3109 14.3441 34.2499 14.2015 34.1385 14.089C34.027 13.9765 33.8722 13.9013 33.7017 13.8769L33.6976 13.876C33.6734 13.8754 33.6494 13.8733 33.6256 13.8699H33.6297C33.5974 13.8657 33.5648 13.8631 33.5321 13.862H33.5311L31.9401 13.8629Z" fill="#6C757D"/>
</svg>
