<svg width="50" height="30" viewBox="0 0 50 30" fill="none" xmlns="http://www.w3.org/2000/svg">
<path d="M8.72165 5.00003C7.77112 5.00003 7 5.69658 7 6.556V24.4441C7 25.3033 7.77123 26 8.72165 26H42.2784C43.2289 26 44 25.3035 44 24.444V6.55597C44 5.69668 43.2288 5 42.2784 5H8.72161L8.72165 5.00003ZM19.1325 7.52785C21.2445 7.52785 23.1842 8.19193 24.7068 9.30118C23.4258 10.3371 22.4703 11.6981 21.9989 13.2408H22.7377C23.1728 11.9681 23.9633 10.8351 25.0051 9.93653C26.047 10.8351 26.8373 11.9681 27.2725 13.2408H28.0229C27.545 11.7062 26.5882 10.3534 25.3081 9.32419C26.8336 8.20086 28.7809 7.52782 30.902 7.52782C35.7967 7.52782 39.7646 11.1143 39.7646 15.5387C39.7646 19.9631 35.7967 23.5495 30.902 23.5495C28.7456 23.5495 26.7683 22.8539 25.2317 21.6967C26.6063 20.616 27.6196 19.1672 28.0831 17.5189H27.3603C26.9489 18.9023 26.1207 20.1327 25.0051 21.0949C23.8895 20.1327 23.0625 18.9023 22.6509 17.5189H21.963C22.4291 19.1433 23.4292 20.5718 24.7831 21.6424C23.2493 22.7853 21.2798 23.4722 19.1325 23.4722C14.2377 23.4722 10.2699 19.903 10.2699 15.5C10.2699 11.097 14.2377 7.52785 19.1325 7.52785ZM30.2371 13.1593C29.1722 13.1593 28.1362 14.0007 28.1362 15.5805C28.1362 16.6281 28.6958 17.3193 29.7966 17.3193C30.1078 17.3194 30.6037 17.2044 30.6037 17.2044L30.7679 16.289C30.7679 16.289 30.3153 16.4959 30.0047 16.4959C29.3504 16.4959 29.0878 16.0411 29.0878 15.5523C29.0878 14.5607 29.6508 14.0151 30.2776 14.0151C30.7476 14.0151 31.1251 14.2554 31.1251 14.2554L31.2755 13.3651C31.2755 13.3651 30.7166 13.1593 30.2371 13.1593ZM39.19 13.2366L38.2638 13.2387L38.0649 14.3401C38.0649 14.3401 37.7168 13.9127 37.1723 13.9127C36.3258 13.9127 35.6206 14.8216 35.6206 15.8668C35.6206 16.5415 35.9959 17.2033 36.7653 17.2033C37.3188 17.2033 37.6256 16.8596 37.6256 16.8596L37.5851 17.1532H38.4847L39.19 13.2366ZM12.6633 13.2481L11.9256 17.1741H12.8148L13.3767 14.2137L13.46 17.1741H14.0959L15.2822 14.2137L14.7561 17.1741H15.7008L16.4292 13.2481H14.9677L14.0577 15.6567L14.0103 13.2481H12.6633L12.6633 13.2481ZM21.9526 13.503C21.9325 13.5213 21.415 16.2186 21.415 16.5471C21.415 17.0335 21.7166 17.2507 22.1411 17.2472C22.4452 17.2449 22.6808 17.1758 22.7897 17.1469C22.8011 17.1441 22.8233 17.1385 22.8233 17.1385L22.9377 16.4363C22.8755 16.4363 22.7838 16.4604 22.703 16.4604C22.3861 16.4604 22.351 16.308 22.3712 16.1949L22.6267 14.7623H23.1089L23.2256 13.9858H22.7712L22.8637 13.503H21.9526ZM32.7 13.8981C32.0794 13.8981 31.6038 14.083 31.6038 14.083L31.472 14.8041C31.472 14.8041 31.8648 14.6567 32.4583 14.6567C32.7953 14.6567 33.0422 14.6916 33.0422 14.9451C33.0422 15.0991 33.0121 15.1562 33.0121 15.1562C33.0121 15.1562 32.7456 15.1353 32.6225 15.1353C31.8399 15.1353 31.0176 15.4453 31.0176 16.3778C31.0176 17.1125 31.5574 17.2807 31.8917 17.2807C32.5303 17.2807 32.8056 16.8973 32.8202 16.8961L32.7901 17.2159H33.5868L33.9429 14.9086C33.943 13.9295 33.0204 13.898 32.7 13.898V13.8981ZM17.7554 13.9022C17.1326 13.9022 16.6547 14.0872 16.6547 14.0872L16.5229 14.8083C16.5229 14.8083 16.9169 14.6609 17.5126 14.6609C17.8509 14.6609 18.0988 14.6959 18.0988 14.9493C18.0988 15.1033 18.0688 15.1604 18.0688 15.1604C18.0688 15.1604 17.8015 15.1395 17.678 15.1395C16.8923 15.1395 16.0673 15.449 16.0673 16.3809C16.0673 17.1153 16.6082 17.2838 16.9437 17.2838C17.5846 17.2838 17.861 16.9004 17.8757 16.8993L17.8456 17.219H18.6457L19.003 14.9128C19.003 13.9343 18.077 13.9022 17.7554 13.9022V13.9022ZM20.5813 13.9022C19.9124 13.9022 19.2331 14.1463 19.2331 14.9796C19.2331 15.9239 20.3651 15.8285 20.3651 16.2263C20.3651 16.4918 20.0492 16.5137 19.8055 16.5137C19.3837 16.5137 19.0044 16.3819 19.003 16.3883L18.8816 17.1093C18.9034 17.1154 19.1383 17.2106 19.8968 17.2106C20.1005 17.2106 21.2646 17.2574 21.2646 16.1615C21.2646 15.1369 20.187 15.34 20.187 14.9284C20.187 14.7235 20.362 14.6588 20.683 14.6588C20.8105 14.6588 21.3017 14.6954 21.3017 14.6954L21.415 13.967C21.415 13.9671 21.098 13.9022 20.5813 13.9022ZM24.7623 13.9022C23.8328 13.9024 23.1447 14.8057 23.1447 15.8261C23.1447 17.0038 24.0069 17.2838 24.7415 17.2838C25.4195 17.2838 25.7185 17.1469 25.7185 17.1469L25.8804 16.3433C25.8804 16.3433 25.3646 16.5481 24.8987 16.5481C23.9062 16.5481 24.0801 15.8804 24.0801 15.8804H25.959C25.959 15.8804 26.0804 15.3407 26.0804 15.1207C26.0804 14.5716 25.7772 13.9022 24.7623 13.9022ZM28.1282 13.9367C27.7094 13.9367 27.3985 14.4456 27.3985 14.4456L27.4818 13.9785H26.6123L26.0284 17.2034H26.9892C27.2614 15.8263 27.3111 14.7081 27.9605 14.9128C28.0741 14.3797 28.1844 14.1738 28.3085 13.9482C28.3085 13.9482 28.2503 13.9367 28.1282 13.9367ZM35.9131 13.9367C35.4944 13.9367 35.1836 14.4456 35.1836 14.4456L35.2668 13.9785H34.3973L33.8134 17.2034H34.7731C35.0453 15.8263 35.0963 14.7081 35.7455 14.9128C35.8594 14.3797 35.9696 14.1738 36.0936 13.9482C36.0936 13.9482 36.0352 13.9367 35.9131 13.9367ZM24.7577 14.6296C25.2855 14.6296 25.189 15.1681 25.189 15.2116H24.1495C24.1495 15.156 24.2478 14.6296 24.7577 14.6296ZM37.318 14.6923C37.654 14.6922 37.8268 14.8973 37.8268 15.3798C37.8268 15.8177 37.5824 16.4029 37.0763 16.4029C36.7405 16.4029 36.5826 16.1522 36.5826 15.7592C36.5826 15.1165 36.908 14.6923 37.318 14.6923ZM32.7011 15.7895C32.8381 15.7896 32.8665 15.8017 32.8896 15.8073C32.8862 15.8068 32.8856 15.8073 32.8988 15.8093C32.9162 15.953 32.8028 16.6265 32.2548 16.6265C31.9722 16.6265 31.8998 16.4234 31.8998 16.3036C31.8998 16.0699 32.0344 15.7895 32.7011 15.7895ZM17.7566 15.7926C17.9123 15.7928 17.9292 15.8085 17.9555 15.8125C17.9729 15.956 17.859 16.6286 17.3091 16.6286C17.0254 16.6286 16.9518 16.4265 16.9518 16.3067C16.9518 16.0732 17.0873 15.7926 17.7566 15.7926Z" fill="#6C757D"/>
</svg>
