<svg width="30" height="30" viewBox="0 0 30 30" fill="none" xmlns="http://www.w3.org/2000/svg">
<rect x="2.6001" y="9.71973" width="24" height="1.6" fill="white"/>
<rect x="2.6001" y="21.5601" width="24" height="1.6" fill="white"/>
<rect x="4.2417" y="22.5601" width="12.8006" height="3.66765" transform="rotate(-89.0706 4.2417 22.5601)" fill="white"/>
<rect x="9.95947" y="22.519" width="12.8006" height="3.66765" transform="rotate(-89.0706 9.95947 22.519)" fill="white"/>
<rect x="15.4004" y="22.519" width="12.8006" height="3.66765" transform="rotate(-89.0706 15.4004 22.519)" fill="white"/>
<rect x="20.8398" y="22.519" width="12.8006" height="3.66765" transform="rotate(-89.0706 20.8398 22.519)" fill="white"/>
<rect x="1" y="24.1201" width="27.52" height="2.88" fill="white"/>
<path fill-rule="evenodd" clip-rule="evenodd" d="M26.6343 8.52L14.4407 3L2.24707 8.52H26.6343ZM14.6008 7.15984C15.0426 7.15984 15.4008 6.80167 15.4008 6.35984C15.4008 5.91802 15.0426 5.55984 14.6008 5.55984C14.159 5.55984 13.8008 5.91802 13.8008 6.35984C13.8008 6.80167 14.159 7.15984 14.6008 7.15984Z" fill="white"/>
</svg>
