<svg width="50" height="30" viewBox="0 0 50 30" fill="none" xmlns="http://www.w3.org/2000/svg">
<path fill-rule="evenodd" clip-rule="evenodd" d="M7 7.89655C7 6.29683 8.29683 5 9.89655 5H41.1034C42.7032 5 44 6.29683 44 7.89655V23.1034C44 24.7032 42.7032 26 41.1034 26H9.89655C8.29683 26 7 24.7032 7 23.1034V7.89655ZM15.6658 16.3331C15.4544 16.3331 15.2714 16.2953 15.1168 16.2195C14.983 16.1513 14.8775 16.0558 14.8004 15.9331L14.5442 17.2181H13.9527L14.6389 13.7729H15.202L15.1504 14.0353C15.1906 14.0001 15.233 13.9679 15.2777 13.9385C15.4734 13.8092 15.7052 13.7445 15.9734 13.7445C16.1816 13.7445 16.3694 13.7887 16.5366 13.877C16.7038 13.9622 16.8363 14.0884 16.9341 14.2556C17.035 14.4197 17.0855 14.6184 17.0855 14.8519C17.0855 15.0664 17.0492 15.2636 16.9767 15.4434C16.9073 15.6233 16.8079 15.7794 16.6785 15.9119C16.5492 16.0445 16.3977 16.1486 16.2242 16.2243C16.0539 16.2968 15.8677 16.3331 15.6658 16.3331ZM15.6185 15.8268C15.7888 15.8268 15.9387 15.7873 16.0681 15.7085C16.1974 15.6264 16.2999 15.5144 16.3757 15.3725C16.4514 15.2305 16.4892 15.0664 16.4892 14.8803C16.4892 14.6847 16.4309 14.5301 16.3141 14.4165C16.1974 14.3029 16.0334 14.2461 15.822 14.2461C15.6548 14.2461 15.5049 14.2872 15.3724 14.3692C15.243 14.4481 15.1405 14.5585 15.0648 14.7005C14.9891 14.8424 14.9512 15.0065 14.9512 15.1926C14.9512 15.3882 15.0096 15.5428 15.1263 15.6564C15.243 15.77 15.4071 15.8268 15.6185 15.8268ZM18.5173 16.3331C18.3122 16.3331 18.1245 16.289 17.9541 16.2006C17.7869 16.1123 17.6528 15.9861 17.5519 15.822C17.4541 15.6548 17.4052 15.4545 17.4052 15.221C17.4052 15.0065 17.4399 14.8093 17.5093 14.6295C17.5819 14.4496 17.6828 14.2935 17.8122 14.161C17.9415 14.0285 18.0914 13.9259 18.2617 13.8534C18.4353 13.7808 18.6246 13.7445 18.8296 13.7445C19.041 13.7445 19.2224 13.7824 19.3739 13.8581C19.5071 13.9234 19.6123 14.018 19.6893 14.1419L19.7619 13.7729H20.3535L19.8518 16.3H19.2887L19.3396 16.041C19.2997 16.0765 19.2575 16.1092 19.213 16.1391C19.0205 16.2685 18.7886 16.3331 18.5173 16.3331ZM18.6687 15.8268C18.8391 15.8268 18.989 15.7873 19.1183 15.7085C19.2477 15.6264 19.3502 15.5144 19.4259 15.3725C19.5016 15.2305 19.5395 15.0664 19.5395 14.8803C19.5395 14.6847 19.4811 14.5301 19.3644 14.4165C19.2477 14.3029 19.0836 14.2461 18.8722 14.2461C18.705 14.2461 18.5552 14.2872 18.4226 14.3692C18.2933 14.4481 18.1908 14.5585 18.115 14.7005C18.0393 14.8424 18.0015 15.0065 18.0015 15.1926C18.0015 15.3882 18.0598 15.5428 18.1766 15.6564C18.2933 15.77 18.4573 15.8268 18.6687 15.8268ZM25.7988 16.3331C25.5527 16.3331 25.3366 16.2874 25.1504 16.1959C24.9675 16.1012 24.8255 15.9719 24.7245 15.8078C24.6236 15.6406 24.5731 15.445 24.5731 15.221C24.5731 14.9371 24.6378 14.6847 24.7671 14.4638C24.8965 14.2398 25.0732 14.0647 25.2971 13.9385C25.5243 13.8092 25.783 13.7445 26.0733 13.7445C26.3225 13.7445 26.5386 13.7903 26.7216 13.8817C26.9077 13.9701 27.0513 14.0979 27.1522 14.2651C27.2532 14.4291 27.3037 14.6247 27.3037 14.8519C27.3037 15.1327 27.239 15.3851 27.1097 15.6091C26.9803 15.8331 26.8021 16.0097 26.5749 16.1391C26.3509 16.2685 26.0922 16.3331 25.7988 16.3331ZM25.8366 15.8268C26.007 15.8268 26.1569 15.7873 26.2862 15.7085C26.4156 15.6264 26.5181 15.5144 26.5938 15.3725C26.6695 15.2305 26.7074 15.0664 26.7074 14.8803C26.7074 14.6847 26.649 14.5301 26.5323 14.4165C26.4156 14.3029 26.2515 14.2461 26.0401 14.2461C25.8729 14.2461 25.7231 14.2872 25.5906 14.3692C25.4612 14.4481 25.3587 14.5585 25.283 14.7005C25.2072 14.8424 25.1694 15.0065 25.1694 15.1926C25.1694 15.3914 25.2277 15.5475 25.3445 15.6611C25.4612 15.7715 25.6253 15.8268 25.8366 15.8268ZM29.4784 13.7445C29.6961 13.7445 29.8806 13.7887 30.0321 13.877C30.1835 13.9654 30.2892 14.0963 30.3491 14.2698C30.4122 14.4402 30.4185 14.65 30.3681 14.8992L30.0888 16.3H29.4973L29.7718 14.9134C29.8128 14.7083 29.7939 14.549 29.715 14.4354C29.6361 14.3187 29.4926 14.2603 29.2843 14.2603C29.0667 14.2603 28.8868 14.3203 28.7448 14.4402C28.6029 14.5601 28.5067 14.743 28.4562 14.9891L28.1912 16.3H27.5996L28.1012 13.7729H28.6644L28.6096 14.0503C28.6899 13.9764 28.7792 13.9171 28.8774 13.8723C29.0603 13.7871 29.2607 13.7445 29.4784 13.7445ZM32.1122 16.3331C31.8598 16.3331 31.6405 16.2874 31.4544 16.1959C31.2682 16.1012 31.1231 15.9719 31.019 15.8078C30.918 15.6406 30.8675 15.445 30.8675 15.221C30.8675 14.9339 30.9306 14.6799 31.0568 14.4591C31.183 14.2383 31.355 14.0647 31.5727 13.9385C31.7935 13.8092 32.0443 13.7445 32.3251 13.7445C32.5617 13.7445 32.7668 13.7887 32.9403 13.877C33.1139 13.9654 33.2479 14.0931 33.3426 14.2603C33.4404 14.4244 33.4893 14.6216 33.4893 14.8519C33.4893 14.9118 33.4861 14.9734 33.4798 15.0365C33.4735 15.0995 33.4641 15.1579 33.4514 15.2115H31.4451C31.4486 15.4074 31.5069 15.5589 31.62 15.6659C31.7399 15.7763 31.9244 15.8315 32.1737 15.8315C32.3157 15.8315 32.4513 15.8094 32.5807 15.7652C32.71 15.7179 32.8173 15.6532 32.9025 15.5712L33.1486 15.9829C33.0161 16.0997 32.8583 16.188 32.6753 16.2479C32.4955 16.3047 32.3078 16.3331 32.1122 16.3331ZM31.549 14.6815C31.5282 14.725 31.5105 14.7707 31.496 14.8188H32.9437C32.9467 14.7153 32.9314 14.6253 32.8977 14.549C32.8504 14.4417 32.7747 14.3597 32.6706 14.3029C32.5665 14.2461 32.4419 14.2177 32.2967 14.2177C32.1232 14.2177 31.9718 14.2588 31.8424 14.3408C31.7162 14.4197 31.6184 14.5332 31.549 14.6815ZM35.0422 16.3331C34.7898 16.3331 34.5705 16.2874 34.3844 16.1959C34.1982 16.1012 34.0531 15.9719 33.949 15.8078C33.848 15.6406 33.7976 15.445 33.7976 15.221C33.7976 14.9339 33.8607 14.6799 33.9869 14.4591C34.1131 14.2383 34.285 14.0647 34.5027 13.9385C34.7235 13.8092 34.9744 13.7445 35.2551 13.7445C35.4918 13.7445 35.6968 13.7887 35.8704 13.877C36.0439 13.9654 36.178 14.0931 36.2726 14.2603C36.3704 14.4244 36.4193 14.6216 36.4193 14.8519C36.4193 14.9118 36.4162 14.9734 36.4098 15.0365C36.4035 15.0995 36.3941 15.1579 36.3815 15.2115H34.3751C34.3786 15.4074 34.4369 15.5589 34.55 15.6659C34.6699 15.7763 34.8545 15.8315 35.1037 15.8315C35.2457 15.8315 35.3813 15.8094 35.5107 15.7652C35.64 15.7179 35.7473 15.6532 35.8325 15.5712L36.0786 15.9829C35.9461 16.0997 35.7883 16.188 35.6053 16.2479C35.4255 16.3047 35.2378 16.3331 35.0422 16.3331ZM34.479 14.6815C34.4582 14.725 34.4406 14.7707 34.426 14.8188H35.8737C35.8767 14.7153 35.8614 14.6253 35.8278 14.549C35.7804 14.4417 35.7047 14.3597 35.6006 14.3029C35.4965 14.2461 35.3719 14.2177 35.2267 14.2177C35.0532 14.2177 34.9018 14.2588 34.7724 14.3408C34.6462 14.4197 34.5484 14.5332 34.479 14.6815ZM36.7039 16.3L37.2056 13.7729H37.7687L37.7047 14.0973C37.7959 13.9909 37.9008 13.9128 38.0195 13.8628C38.1994 13.7839 38.4186 13.7445 38.6773 13.7445L38.5685 14.3077C38.5432 14.3014 38.5196 14.2982 38.4975 14.2982C38.4754 14.295 38.4502 14.2935 38.4218 14.2935C38.1915 14.2935 38.0006 14.355 37.8492 14.478C37.6977 14.5979 37.5968 14.7904 37.5463 15.0554L37.2955 16.3H36.7039ZM21.4593 14.9608C21.3639 14.4151 21.1533 13.1223 21.0918 12.5156L21.0915 12.5153C21.0904 12.4988 21.0872 12.4647 21.0837 12.427C21.0788 12.3744 21.0733 12.3147 21.0718 12.2856C21.0718 12.2351 21.086 12.1742 21.1701 12.2062C21.229 12.2277 21.2934 12.289 21.33 12.3395C21.5376 12.6122 22.1881 13.6286 21.7761 15.2052C21.7761 15.2052 21.6694 15.5931 21.5376 15.3018C21.5121 15.248 21.4843 15.1153 21.4593 14.9608ZM26.8323 12.5368C27.1967 12.4792 26.9138 12.0985 26.8323 12.023L26.8318 12.0234C25.7775 11.0178 24.2182 12.727 23.5649 13.4525C21.5626 15.6792 20.8052 18.2036 20.7211 18.6884C20.6595 19.0472 20.7802 19.1408 20.8473 19.1658C20.8585 19.1697 20.8705 19.1683 20.8809 19.1617C20.8914 19.1552 20.8996 19.1439 20.904 19.1301C21.6525 16.8926 23.0494 15.0938 23.6717 14.4255C25.2242 12.7628 26.1955 12.6265 26.7386 12.5503C26.7714 12.5457 26.8026 12.5413 26.8323 12.5368Z" fill="#6C757D"/>
</svg>
