<svg width="30" height="30" viewBox="0 0 30 30" fill="none" xmlns="http://www.w3.org/2000/svg">
<path d="M17.5 8.75H12.5L10.6484 5.97266C10.3711 5.55469 10.668 5 11.168 5L15.0234 5.97266L18.832 5C19.332 5 19.6289 5.55469 19.3516 5.97266L17.5 8.75ZM12.5 10H17.5C17.6484 10.0977 17.8164 10.207 18.0078 10.3281C20.2227 11.7461 25 14.8008 25 21.25C25 23.3203 23.3203 25 21.25 25H8.75C6.67969 25 5 23.3203 5 21.25C5 14.8008 9.77734 11.7461 11.9922 10.3281C12.1797 10.207 12.3516 10.0977 12.5 10ZM15.7813 13.4375C15.7813 13.0078 15.4297 12.6563 15 12.6563C14.5703 12.6563 14.2188 13.0078 14.2188 13.4375V13.9844C13.9219 14.0508 13.625 14.1563 13.3516 14.3164C12.8086 14.6406 12.3398 15.207 12.3438 16.0313C12.3477 16.8242 12.8125 17.3242 13.3086 17.6211C13.7383 17.8789 14.2734 18.043 14.6992 18.168L14.7656 18.1875C15.2578 18.3359 15.6172 18.4531 15.8594 18.6055C16.0586 18.7305 16.0859 18.8164 16.0898 18.9258C16.0938 19.1211 16.0195 19.2383 15.8594 19.3359C15.6641 19.457 15.3555 19.5313 15.0234 19.5195C14.5898 19.5039 14.1836 19.3672 13.6523 19.1875C13.5625 19.1563 13.4688 19.125 13.3711 19.0938C12.9609 18.957 12.5195 19.1797 12.3828 19.5859C12.2461 19.9922 12.4688 20.4375 12.875 20.5742C12.9492 20.5977 13.0313 20.625 13.1133 20.6563C13.4375 20.7695 13.8125 20.8984 14.2148 20.9844V21.5625C14.2148 21.9922 14.5664 22.3438 14.9961 22.3438C15.4258 22.3438 15.7773 21.9922 15.7773 21.5625V21.0234C16.0898 20.957 16.4023 20.8477 16.6836 20.6719C17.2422 20.3242 17.6641 19.7305 17.6523 18.9141C17.6406 18.1211 17.1953 17.6094 16.6914 17.2891C16.2422 17.0078 15.6797 16.8359 15.2422 16.7031L15.2148 16.6953C14.7148 16.543 14.3594 16.4336 14.1094 16.2852C13.9063 16.1641 13.9023 16.0938 13.9023 16.0234C13.9023 15.8789 13.957 15.7695 14.1445 15.6602C14.3555 15.5352 14.6758 15.4609 14.9844 15.4648C15.3594 15.4688 15.7734 15.5508 16.2031 15.668C16.6211 15.7773 17.0469 15.5313 17.1602 15.1133C17.2734 14.6953 17.0234 14.2695 16.6055 14.1563C16.3516 14.0898 16.0703 14.0234 15.7813 13.9727V13.4375Z" fill="white"/>
</svg>
