<svg width="50" height="30" viewBox="0 0 50 30" fill="none" xmlns="http://www.w3.org/2000/svg">
<path d="M12.0129 14.1932L12.0932 13.8297H12.171C12.3473 13.8297 12.496 13.8341 12.6196 13.8476C12.7119 13.8576 12.7743 13.8711 12.8146 13.8837C12.8131 13.8924 12.8111 13.9024 12.8084 13.9136L12.8083 13.9136L12.8064 13.9226C12.7898 13.9994 12.7661 14.0339 12.7509 14.051C12.7346 14.0694 12.7051 14.0934 12.643 14.1171C12.5121 14.1671 12.3137 14.1894 12.0129 14.1932ZM12.8191 13.8328C12.8191 13.8328 12.8192 13.8331 12.8192 13.8337L12.8191 13.8328ZM30.2722 14.1928L30.3504 13.8297H30.4141C30.7002 13.8297 30.9131 13.8392 31.0511 13.8815C31.0606 13.8845 31.0688 13.8872 31.0757 13.8898C31.0712 13.9689 31.0538 14.0059 31.0446 14.0212C31.0352 14.0369 31.0164 14.0603 30.9617 14.0873C30.8384 14.1483 30.6215 14.1864 30.2722 14.1928ZM8.56725 17.1831L8.5672 17.1831L8.5658 17.19C8.51322 17.4457 8.62801 17.6605 8.76212 17.7854C8.89735 17.9114 9.07732 17.9781 9.26111 17.9781H10.4816C10.6964 17.9781 10.886 17.8959 11.0247 17.7871C11.1514 17.6877 11.2852 17.5255 11.3252 17.3098L11.5752 16.2314C11.5938 16.2295 11.6144 16.2278 11.6371 16.2266C11.7318 16.2216 11.8398 16.2246 11.9543 16.2301C11.9788 16.2313 12.0054 16.2327 12.0328 16.2342C12.117 16.2388 12.2099 16.2438 12.2802 16.2438C13.082 16.2438 13.7996 16.1026 14.3757 15.8059C14.367 15.8841 14.3625 15.9634 14.3625 16.0437C14.3625 16.6605 14.6345 17.1856 15.1119 17.5419C15.5752 17.8877 16.1999 18.0531 16.8988 18.0531C17.3206 18.0531 17.8061 17.952 18.2347 17.7753C18.2347 17.7754 18.2347 17.7754 18.2348 17.7754C18.3863 17.9255 18.5785 17.9734 18.7424 17.9734H19.8472C20.0657 17.9734 20.2537 17.8885 20.3903 17.7786C20.5228 17.672 20.6396 17.5155 20.6862 17.3251L20.6864 17.3251L20.6891 17.3125L21.2265 14.8404C21.3461 15.0973 21.5051 15.4342 21.6669 15.7756C21.7594 15.9708 21.8522 16.1662 21.9389 16.349C22.0559 16.5953 22.1619 16.8186 22.2417 16.9875C22.1018 17.1321 21.9232 17.3183 21.7511 17.5031C21.5956 17.6702 21.4401 17.8421 21.3215 17.984C21.263 18.0539 21.2066 18.1249 21.1623 18.1888C21.1407 18.2199 21.1149 18.2595 21.0925 18.3029L21.0914 18.305C21.0782 18.3304 21.0238 18.4349 21.0238 18.5703C21.0238 18.8178 21.1661 18.9918 21.295 19.0838C21.4247 19.1765 21.5797 19.2203 21.7293 19.2203H22.9627H22.9728L22.9829 19.2199C23.2043 19.2109 23.4473 19.1234 23.6176 18.9393L27.2871 15.0466L26.8229 17.1796L26.8187 17.1987L26.8161 17.2181C26.7826 17.4625 26.8959 17.6624 27.0228 17.7807C27.1527 17.9017 27.329 17.9734 27.517 17.9734H28.8339C29.1364 17.9734 29.4356 17.8055 29.5545 17.5104L29.5708 17.47L29.5799 17.4274L29.8343 16.2311C29.852 16.2293 29.8715 16.2278 29.893 16.2266C29.9877 16.2216 30.0957 16.2246 30.2102 16.2301C30.2347 16.2313 30.2613 16.2327 30.2887 16.2342C30.3729 16.2388 30.4658 16.2438 30.5361 16.2438C31.3284 16.2438 32.0393 16.1041 32.6118 15.8109C32.6034 15.8874 32.5991 15.9651 32.5991 16.0437C32.5991 16.6605 32.8711 17.1856 33.3485 17.5419C33.8119 17.8877 34.4365 18.0531 35.1354 18.0531C35.5622 18.0531 36.049 17.9548 36.4754 17.7793C36.6263 17.9263 36.8166 17.9734 36.979 17.9734H38.0903C38.3087 17.9734 38.4968 17.8885 38.6334 17.7786C38.7088 17.7179 38.7791 17.6411 38.8343 17.5511C38.8847 17.6693 38.9669 17.7605 39.047 17.8213C39.1802 17.9224 39.3443 17.9734 39.5099 17.9734H40.5698C40.786 17.9734 40.9747 17.8854 41.1081 17.7766C41.2283 17.6787 41.3626 17.5142 41.3966 17.2933L42.4328 12.5696L42.4444 12.5167V12.4625V12.4484C42.4444 12.2172 42.3232 12.0403 42.1892 11.9363C42.0577 11.8342 41.8966 11.7844 41.7389 11.7844H40.5505C40.4107 11.7844 40.273 11.8236 40.1574 11.8936C40.0532 11.9567 39.8995 12.0889 39.8551 12.3109L39.5226 13.8683C39.4848 13.8001 39.4373 13.7428 39.3891 13.6987C39.2552 13.576 39.0769 13.5094 38.8932 13.5094H37.6727C37.5181 13.5094 37.3654 13.5522 37.2346 13.6477C37.2311 13.6503 37.2276 13.6529 37.2241 13.6555C36.7915 13.4519 36.2999 13.425 35.8741 13.425C35.1784 13.425 34.513 13.6069 33.9658 13.9213C33.9783 13.8159 33.9845 13.7076 33.9845 13.5969C33.9845 13.2575 33.8931 12.9522 33.7156 12.6936C33.541 12.4391 33.3008 12.2555 33.0399 12.1246C32.5296 11.8685 31.8814 11.7844 31.2556 11.7844H28.7054C28.5335 11.7844 28.3586 11.8297 28.2102 11.9204C28.0708 12.0056 27.9058 12.1647 27.8612 12.409L27.5913 13.6493C27.4772 13.5682 27.3313 13.5141 27.1701 13.5141H25.9368C25.7107 13.5141 25.4539 13.6036 25.2807 13.7917C25.28 13.7925 25.2793 13.7932 25.2786 13.794L24.1159 15.0427L23.7028 14.0151L23.6953 13.9965L23.6864 13.9786C23.5331 13.671 23.1936 13.5141 22.8856 13.5141H21.6844C21.5036 13.5141 21.3419 13.5822 21.2229 13.6801C21.2068 13.6934 21.1901 13.7085 21.1733 13.7252C21.1643 13.7159 21.1552 13.7071 21.1461 13.6987C21.0121 13.576 20.8339 13.5094 20.6502 13.5094H19.4297C19.2752 13.5094 19.1222 13.5522 18.9911 13.6481C18.9871 13.651 18.9832 13.6539 18.9794 13.6569C18.5465 13.4539 18.0629 13.425 17.6375 13.425C16.9388 13.425 16.2707 13.6084 15.7223 13.9253C15.735 13.8186 15.7415 13.709 15.7415 13.5969C15.7415 13.2575 15.6501 12.9522 15.4726 12.6936C15.2979 12.4391 15.0578 12.2555 14.7969 12.1246C14.2865 11.8685 13.6383 11.7844 13.0125 11.7844H10.4431C10.2718 11.7844 10.0979 11.8327 9.95262 11.925C9.81966 12.0094 9.65526 12.1702 9.61644 12.4166L8.56725 17.1831ZM36.7039 15.5961H36.7038V15.6031C36.7038 15.6942 36.6581 15.8074 36.5055 15.9162C36.3501 16.0271 36.1069 16.1109 35.8099 16.1109C35.5753 16.1109 35.4181 16.0602 35.337 16.0085C35.2997 15.9846 35.2851 15.9651 35.2796 15.9557C35.2752 15.9483 35.2693 15.9357 35.2693 15.9078C35.2693 15.8101 35.3185 15.69 35.4701 15.5776C35.6237 15.4638 35.8643 15.3766 36.1632 15.3766C36.3958 15.3766 36.5519 15.4298 36.6325 15.4836C36.6967 15.5264 36.7044 15.5578 36.7039 15.5961ZM18.4672 15.6031C18.4672 15.6905 18.4228 15.8036 18.2677 15.9136C18.1101 16.0253 17.8618 16.1109 17.554 16.1109C17.3176 16.1109 17.1657 16.0607 17.09 16.0118C17.0556 15.9895 17.0425 15.9715 17.0374 15.9626C17.0331 15.9552 17.0262 15.9405 17.0262 15.9078C17.0262 15.8132 17.0748 15.6927 17.2277 15.5789C17.3818 15.4643 17.6224 15.3766 17.9201 15.3766C18.1525 15.3766 18.3091 15.4297 18.3911 15.4841C18.4574 15.5282 18.4672 15.5623 18.4672 15.6031ZM43.5 7.25V23.75C43.5 24.1723 43.2662 24.5982 42.8019 24.9369C42.3382 25.2754 41.6731 25.5 40.9167 25.5H10.0833C9.32686 25.5 8.66184 25.2754 8.19805 24.9369C7.73381 24.5982 7.5 24.1723 7.5 23.75V7.25C7.5 6.82766 7.73381 6.40185 8.19805 6.06308C8.66184 5.72464 9.32686 5.5 10.0833 5.5H40.9167C41.6731 5.5 42.3382 5.72464 42.8019 6.06308C43.2662 6.40185 43.5 6.82766 43.5 7.25Z" fill="#6C757E" stroke="#6C757E"/>
</svg>
