<svg width="50" height="30" viewBox="0 0 50 30" fill="none" xmlns="http://www.w3.org/2000/svg">
<path fill-rule="evenodd" clip-rule="evenodd" d="M11 5C8.79086 5 7 6.79086 7 9V22C7 24.2091 8.79086 26 11 26H40C42.2091 26 44 24.2091 44 22V9C44 6.79086 42.2091 5 40 5H11ZM14.44 17.904C14.952 18.032 15.484 18.096 16.036 18.096C16.684 18.096 17.232 18.008 17.68 17.832C18.0721 17.6807 18.3844 17.482 18.6168 17.236C18.8038 17.4856 19.0565 17.6883 19.375 17.844C19.735 18.012 20.167 18.096 20.671 18.096C21.239 18.096 21.703 17.988 22.063 17.772C22.3061 17.6262 22.4981 17.4348 22.639 17.1978V18H24.391V15.9673C24.4313 16.051 24.4757 16.1326 24.5241 16.212C24.8201 16.676 25.2081 17.04 25.6881 17.304C26.1761 17.56 26.7201 17.688 27.3201 17.688C27.8641 17.688 28.3441 17.576 28.7601 17.352C28.9876 17.2295 29.1876 17.0723 29.3601 16.8804V17.16C29.3601 17.744 29.2081 18.184 28.9041 18.48C28.6081 18.776 28.1281 18.924 27.4641 18.924C27.0561 18.924 26.6401 18.856 26.2161 18.72C25.8001 18.592 25.4561 18.416 25.1841 18.192L24.4401 19.536C24.8161 19.832 25.2841 20.052 25.8441 20.196C26.4121 20.348 27.0001 20.424 27.6081 20.424C28.7761 20.424 29.6721 20.14 30.2961 19.572C30.9201 19.004 31.2321 18.12 31.2321 16.92V16.1901C31.2793 16.2919 31.3321 16.3912 31.3905 16.488C31.6945 16.984 32.1225 17.376 32.6745 17.664C33.2345 17.952 33.8825 18.096 34.6185 18.096C35.2025 18.096 35.7185 18.008 36.1665 17.832C36.6145 17.648 36.9865 17.388 37.2825 17.052L36.2865 15.972C36.0705 16.18 35.8305 16.336 35.5665 16.44C35.3105 16.544 35.0105 16.596 34.6665 16.596C34.2825 16.596 33.9465 16.528 33.6585 16.392C33.3785 16.248 33.1585 16.044 32.9985 15.78C32.9157 15.6319 32.8554 15.4719 32.8177 15.3H37.7025C37.7105 15.22 37.7185 15.136 37.7265 15.048C37.7345 14.952 37.7385 14.868 37.7385 14.796C37.7385 14.1 37.5905 13.504 37.2945 13.008C36.9985 12.504 36.5945 12.12 36.0825 11.856C35.5785 11.584 35.0105 11.448 34.3785 11.448C33.7225 11.448 33.1345 11.592 32.6145 11.88C32.0945 12.16 31.6825 12.552 31.3785 13.056C31.3248 13.1459 31.276 13.2383 31.2321 13.3331V11.544H29.4561V12.3642C29.2632 12.1181 29.0312 11.9247 28.7601 11.784C28.3441 11.56 27.8641 11.448 27.3201 11.448C26.7201 11.448 26.1761 11.576 25.6881 11.832C25.2081 12.088 24.8201 12.452 24.5241 12.924C24.4329 13.071 24.3561 13.2263 24.2938 13.3901C24.1709 12.8633 23.9313 12.4479 23.575 12.144C23.031 11.68 22.267 11.448 21.283 11.448C20.771 11.448 20.267 11.516 19.771 11.652C19.4339 11.7444 19.1301 11.8627 18.8595 12.0069C18.5569 11.8254 18.1798 11.6871 17.728 11.592C17.272 11.496 16.824 11.448 16.384 11.448C15.76 11.448 15.224 11.54 14.776 11.724C14.328 11.9 13.984 12.144 13.744 12.456C13.512 12.768 13.396 13.128 13.396 13.536C13.396 13.904 13.464 14.204 13.6 14.436C13.744 14.668 13.932 14.852 14.164 14.988C14.396 15.124 14.652 15.228 14.932 15.3C15.212 15.364 15.488 15.416 15.76 15.456C16.04 15.496 16.296 15.536 16.528 15.576C16.76 15.616 16.944 15.676 17.08 15.756C17.224 15.828 17.296 15.94 17.296 16.092C17.296 16.276 17.204 16.42 17.02 16.524C16.844 16.628 16.54 16.68 16.108 16.68C15.716 16.68 15.316 16.624 14.908 16.512C14.508 16.392 14.16 16.24 13.864 16.056L13.24 17.4C13.536 17.6 13.936 17.768 14.44 17.904ZM18.6391 12.5007L18.244 13.344C17.932 13.16 17.616 13.036 17.296 12.972C16.984 12.9 16.68 12.864 16.384 12.864C15.968 12.864 15.664 12.92 15.472 13.032C15.28 13.144 15.184 13.288 15.184 13.464C15.184 13.624 15.252 13.744 15.388 13.824C15.532 13.904 15.72 13.968 15.952 14.016C16.184 14.064 16.436 14.108 16.708 14.148C16.988 14.18 17.268 14.232 17.548 14.304C17.828 14.376 18.08 14.48 18.304 14.616C18.4538 14.6986 18.5852 14.803 18.6983 14.929C18.8829 14.7365 19.1285 14.5802 19.435 14.46C19.843 14.292 20.375 14.208 21.031 14.208H22.519C22.519 13.808 22.395 13.496 22.147 13.272C21.907 13.048 21.535 12.936 21.031 12.936C20.687 12.936 20.347 12.992 20.011 13.104C19.683 13.208 19.403 13.352 19.171 13.536L18.6391 12.5007ZM22.519 15.3H21.235C20.795 15.3 20.491 15.372 20.323 15.516C20.163 15.66 20.083 15.84 20.083 16.056C20.083 16.296 20.175 16.488 20.359 16.632C20.551 16.768 20.811 16.836 21.139 16.836C21.451 16.836 21.731 16.764 21.979 16.62C22.227 16.468 22.407 16.248 22.519 15.96V15.3ZM32.7961 14.208H35.9754C35.9451 14.0046 35.8847 13.8206 35.7945 13.656C35.6585 13.408 35.4705 13.216 35.2305 13.08C34.9905 12.936 34.7105 12.864 34.3905 12.864C34.0705 12.864 33.7865 12.936 33.5385 13.08C33.2985 13.216 33.1105 13.412 32.9745 13.668C32.8867 13.828 32.8273 14.008 32.7961 14.208ZM28.5681 15.96C28.3121 16.088 28.0201 16.152 27.6921 16.152C27.3641 16.152 27.0721 16.088 26.8161 15.96C26.5601 15.824 26.3561 15.636 26.2041 15.396C26.0601 15.156 25.9881 14.88 25.9881 14.568C25.9881 14.248 26.0601 13.972 26.2041 13.74C26.3561 13.5 26.5601 13.316 26.8161 13.188C27.0721 13.052 27.3641 12.984 27.6921 12.984C28.0201 12.984 28.3121 13.052 28.5681 13.188C28.8241 13.316 29.0241 13.5 29.1681 13.74C29.3121 13.972 29.3841 14.248 29.3841 14.568C29.3841 14.88 29.3121 15.156 29.1681 15.396C29.0241 15.636 28.8241 15.824 28.5681 15.96Z" fill="#6C757D"/>
</svg>
