<svg width="37" height="21" viewBox="0 0 37 21" fill="none" xmlns="http://www.w3.org/2000/svg">
<path fill-rule="evenodd" clip-rule="evenodd" d="M4 0C1.79102 0 0 1.79102 0 4V17C0 19.209 1.79102 21 4 21H33C35.209 21 37 19.209 37 17V4C37 1.79102 35.209 0 33 0H4ZM7.43994 12.9038C7.95215 13.0322 8.48389 13.0962 9.03613 13.0962C9.68408 13.0962 10.2319 13.0078 10.6802 12.832C11.0723 12.6807 11.3843 12.4824 11.6167 12.2363C11.8037 12.4858 12.0566 12.6885 12.375 12.8442C12.7349 13.0122 13.167 13.0962 13.6709 13.0962C14.2388 13.0962 14.7031 12.9878 15.063 12.772C15.3062 12.626 15.498 12.4351 15.6392 12.1978V13H17.3911V10.9673C17.4312 11.0508 17.4756 11.1328 17.5239 11.2119C17.8203 11.6758 18.208 12.04 18.688 12.3042C19.1763 12.5601 19.7202 12.688 20.3203 12.688C20.8643 12.688 21.3442 12.5762 21.7603 12.3521C21.9595 12.2446 22.1377 12.1108 22.2949 11.9502C22.3174 11.9277 22.3389 11.9043 22.3604 11.8804V12.1602C22.3604 12.522 22.3018 12.8286 22.1851 13.0801C22.1138 13.2344 22.02 13.3677 21.9043 13.48C21.6079 13.7759 21.1279 13.9238 20.4644 13.9238C20.0562 13.9238 19.6401 13.856 19.2163 13.7202C19.0796 13.6782 18.9507 13.6309 18.8296 13.5786C18.5815 13.4712 18.3667 13.3423 18.1841 13.1919L17.4399 14.5361C17.8159 14.832 18.2842 15.0518 18.8442 15.1958C19.4121 15.3481 20 15.4238 20.6079 15.4238C21.2632 15.4238 21.833 15.3345 22.3169 15.1558C22.6958 15.0161 23.022 14.8213 23.2959 14.5718C23.9199 14.0039 24.2319 13.1201 24.2319 11.9199V11.1895C24.2793 11.2915 24.332 11.3906 24.3906 11.4878C24.6943 11.9839 25.1226 12.376 25.6743 12.6641C26.2344 12.9521 26.8823 13.0962 27.6187 13.0962C28.2026 13.0962 28.7183 13.0078 29.1665 12.832C29.6143 12.6479 29.9863 12.3882 30.2822 12.0518L29.2866 10.9722C29.0703 11.1802 28.8306 11.3359 28.5664 11.4399C28.3105 11.5439 28.0103 11.5962 27.6665 11.5962C27.2822 11.5962 26.9463 11.5278 26.6587 11.3921C26.3784 11.248 26.1587 11.0439 25.9985 10.7798C25.916 10.6318 25.8555 10.4717 25.8179 10.2998H30.7026L30.7266 10.0479C30.7344 9.95215 30.7383 9.86816 30.7383 9.7959C30.7383 9.1001 30.5903 8.50391 30.2944 8.00781C30.1187 7.7085 29.9048 7.45166 29.6523 7.23682C29.48 7.09033 29.29 6.96338 29.0825 6.85596C28.8301 6.71973 28.5615 6.61768 28.2769 6.5498C27.9932 6.48193 27.6938 6.44824 27.3784 6.44824C26.7227 6.44824 26.1343 6.5918 25.6143 6.87988C25.0942 7.16016 24.6826 7.55176 24.3784 8.05615C24.3247 8.146 24.2759 8.23828 24.2319 8.3335V6.54395H22.4561V7.36426C22.4092 7.30469 22.3604 7.24805 22.3091 7.19482C22.1484 7.02734 21.9658 6.89062 21.7603 6.78418C21.3442 6.56006 20.8643 6.44824 20.3203 6.44824C19.8843 6.44824 19.4775 6.51562 19.1006 6.65088C18.959 6.70166 18.8213 6.76221 18.688 6.83203C18.208 7.08789 17.8203 7.45215 17.5239 7.92383C17.4326 8.0708 17.3564 8.22656 17.2939 8.39014C17.1709 7.86328 16.9316 7.44775 16.5752 7.14404C16.0308 6.68018 15.2671 6.44824 14.2832 6.44824C13.771 6.44824 13.2671 6.51611 12.771 6.65186C12.479 6.73193 12.2119 6.83154 11.9702 6.9502C11.9326 6.96875 11.8955 6.9873 11.8594 7.00684C11.5566 6.8252 11.1797 6.68701 10.728 6.5918C10.272 6.49609 9.82422 6.44824 9.38379 6.44824C9.00488 6.44824 8.65869 6.48193 8.34473 6.5498C8.1416 6.59375 7.95215 6.65186 7.77588 6.72412C7.32812 6.8999 6.98389 7.14404 6.74414 7.45605C6.51221 7.76807 6.396 8.12793 6.396 8.53613C6.396 8.90381 6.46387 9.2041 6.6001 9.43604C6.74414 9.66797 6.93213 9.85205 7.16406 9.98779C7.27979 10.0557 7.40186 10.1157 7.52979 10.1675C7.65771 10.2197 7.79199 10.2637 7.93213 10.2998C8.21191 10.3638 8.48779 10.416 8.75977 10.4561C9.04004 10.4961 9.2959 10.5361 9.52783 10.5762C9.75977 10.6162 9.94385 10.6758 10.0801 10.7559C10.2241 10.8281 10.2959 10.9399 10.2959 11.0918C10.2959 11.2759 10.2041 11.4199 10.02 11.5239C9.84424 11.6279 9.54004 11.6802 9.10791 11.6802C8.98828 11.6802 8.86816 11.6748 8.74707 11.6646C8.47119 11.6406 8.19189 11.5898 7.9082 11.5122C7.67432 11.4419 7.4585 11.3608 7.26025 11.269C7.11914 11.2036 6.98682 11.1328 6.86377 11.0562L6.24023 12.3999C6.37646 12.4922 6.53467 12.5776 6.71484 12.6562C6.92627 12.748 7.16797 12.8306 7.43994 12.9038ZM11.6392 7.50098L11.2441 8.34424C10.9321 8.16016 10.6162 8.03613 10.2959 7.97217C9.98389 7.8999 9.68018 7.86377 9.38379 7.86377C8.96777 7.86377 8.66406 7.91992 8.47217 8.03223C8.27979 8.14404 8.18408 8.28809 8.18408 8.46387C8.18408 8.62402 8.25195 8.74414 8.38818 8.82422C8.53223 8.90381 8.72021 8.96777 8.95215 9.01611C9.18408 9.06396 9.43604 9.10791 9.70801 9.14795C9.98779 9.18018 10.2681 9.23193 10.5479 9.3042C10.8281 9.37598 11.0801 9.47998 11.3042 9.61621C11.4541 9.69873 11.5854 9.80273 11.6987 9.92871C11.8833 9.73633 12.1284 9.58008 12.4351 9.45996C12.6392 9.37598 12.874 9.31299 13.1401 9.271C13.4062 9.229 13.7031 9.20801 14.0308 9.20801H15.519C15.519 8.80811 15.395 8.49609 15.147 8.27197C14.9072 8.04785 14.5352 7.93604 14.0308 7.93604C13.687 7.93604 13.3472 7.99219 13.0112 8.104C12.6831 8.20801 12.4028 8.35205 12.1709 8.53613L11.6392 7.50098ZM15.519 10.2998H14.2349C13.7949 10.2998 13.4912 10.3721 13.3232 10.5161C13.1631 10.6602 13.083 10.8398 13.083 11.0562C13.083 11.1494 13.0967 11.2354 13.1245 11.314C13.1685 11.438 13.2466 11.5439 13.3589 11.6318C13.4209 11.6758 13.4902 11.7129 13.5664 11.7427C13.7261 11.8047 13.917 11.8359 14.1392 11.8359C14.4512 11.8359 14.731 11.7642 14.979 11.6201C15.2271 11.4678 15.4072 11.248 15.519 10.96V10.2998ZM25.7959 9.20801H28.9756C28.9453 9.00439 28.8848 8.82031 28.7944 8.65576C28.7236 8.52686 28.6387 8.4126 28.5396 8.31396C28.4487 8.22314 28.3457 8.14502 28.2305 8.08008C27.9902 7.93604 27.7104 7.86377 27.3906 7.86377C27.0703 7.86377 26.7866 7.93604 26.5386 8.08008C26.2983 8.21582 26.1104 8.41211 25.9746 8.66797C25.9087 8.7876 25.8589 8.91846 25.8247 9.06055C25.8135 9.1084 25.8037 9.15771 25.7959 9.20801ZM21.5684 10.96C21.312 11.0879 21.02 11.1519 20.6919 11.1519C20.3643 11.1519 20.0723 11.0879 19.8159 10.96C19.5601 10.8242 19.356 10.6362 19.2041 10.396C19.0601 10.1558 18.9883 9.87988 18.9883 9.56787C18.9883 9.24805 19.0601 8.97217 19.2041 8.74023C19.356 8.5 19.5601 8.31592 19.8159 8.18799C20.0723 8.05176 20.3643 7.98389 20.6919 7.98389C21.02 7.98389 21.312 8.05176 21.5684 8.18799C21.8242 8.31592 22.0239 8.5 22.168 8.74023C22.312 8.97217 22.3843 9.24805 22.3843 9.56787C22.3843 9.87988 22.312 10.1558 22.168 10.396C22.0239 10.6362 21.8242 10.8242 21.5684 10.96Z" fill="#6C757D"/>
</svg>
