<svg width="37" height="21" viewBox="0 0 37 21" fill="none" xmlns="http://www.w3.org/2000/svg">
<path fill-rule="evenodd" clip-rule="evenodd" d="M4 0C1.79102 0 0 1.79102 0 4V17C0 19.209 1.79102 21 4 21H33C35.209 21 37 19.209 37 17V4C37 1.79102 35.209 0 33 0H4ZM9.51074 6.90625L11.4731 6.62744L11.4775 7.79443H13.0049V8.94043H11.4775V10.8564C11.4775 11.6504 12.7466 11.4019 13.0049 11.3325V12.3569C12.7378 12.4541 12.2529 12.5356 11.5908 12.5356C10.3989 12.5356 9.50195 12.0205 9.50195 11.2231L9.51074 6.90625ZM15.3887 7.79443L15.5112 8.19189C15.7734 7.86963 16.1802 7.76318 16.5366 7.74316C16.8203 7.72754 17.0718 7.76611 17.1924 7.79443V9.03125C16.9341 8.97705 16.1318 8.89502 15.6562 9.31348V12.439H13.6484V7.79443H15.3887ZM17.6729 6.28809L19.6943 6V7.09717L17.6729 7.38525V6.28809ZM6.71484 8.86768C6.29297 8.87061 6.03027 8.95264 6.03027 9.16162C6.03027 9.39258 6.47656 9.49365 7.0293 9.61914C7.92773 9.82275 9.10742 10.0908 9.10742 11.084C9.10742 12.0537 7.95654 12.5327 6.28418 12.5327C5.59082 12.5327 4.83398 12.4419 4.08594 12.2266V11.0142C4.52051 11.1724 5.03174 11.3047 5.51855 11.3794C5.78857 11.4209 6.05078 11.4443 6.28857 11.4443C6.45215 11.4443 6.59912 11.4336 6.71973 11.4077C6.92969 11.3623 7.05908 11.272 7.05908 11.1143C7.05908 10.8594 6.57861 10.7437 5.99854 10.604C5.11475 10.3911 4 10.1226 4 9.22266C4 8.27051 5.08789 7.70068 6.71924 7.70068C7.40283 7.69678 8.08105 7.77979 8.71777 7.94629V9.21338C8.10596 8.99219 7.32666 8.86768 6.71484 8.86768ZM30.0903 7.70361C32.0029 7.70361 33 8.79199 33 10.1714C33 10.2422 32.9946 10.3574 32.9883 10.459C32.9829 10.5449 32.9771 10.6216 32.9727 10.6533H29.0347C29.0845 11.002 29.3179 11.2148 29.6494 11.335C29.917 11.4321 30.248 11.4688 30.5981 11.4688C31.3955 11.4688 32.0254 11.3564 32.5742 11.1719V12.1841C32.0254 12.3872 31.3052 12.5327 30.3442 12.5327C28.3862 12.5327 27.0132 11.7842 27.0132 10.1621C27.0132 8.79199 28.1782 7.70361 30.0903 7.70361ZM30.0767 8.80127C29.5737 8.80127 29.0166 9.05566 29.0166 9.66211H31.0967C31.0967 9.05566 30.5708 8.80127 30.0767 8.80127ZM22.3228 8.125C22.6035 7.95215 23.1113 7.70361 23.8999 7.70361C25.314 7.70361 26.646 8.55566 26.6416 10.1196C26.6416 11.8296 25.3276 12.5327 23.8862 12.5327C23.4839 12.5327 23.1714 12.4683 22.9229 12.3862C22.7373 12.3252 22.5874 12.2544 22.4634 12.1934L22.4585 13.7148L20.4463 14V7.7915H22.2183L22.3228 8.125ZM22.4722 11.1626C22.667 11.3022 22.9482 11.417 23.4194 11.417C23.8457 11.417 24.1909 11.2407 24.4082 10.9546C24.5718 10.7393 24.6631 10.4614 24.6611 10.1499C24.6611 9.44678 24.1538 8.89502 23.4194 8.89502C22.957 8.89502 22.667 9.00732 22.4585 9.16162L22.4722 11.1626ZM19.6987 12.439H17.6772V7.79443H19.6987V12.439Z" fill="#6C757D"/>
</svg>
