<svg width="50" height="30" viewBox="0 0 50 30" fill="none" xmlns="http://www.w3.org/2000/svg">
<path fill-rule="evenodd" clip-rule="evenodd" d="M11 5C8.79102 5 7 6.79102 7 9V22C7 24.209 8.79102 26 11 26H40C42.209 26 44 24.209 44 22V9C44 6.79102 42.209 5 40 5H11ZM16.5107 11.9062L18.4731 11.6274L18.4775 12.7944H20.0049V13.9404H18.4775V15.8564C18.4775 16.6504 19.7466 16.4019 20.0049 16.3325V17.3569C19.7378 17.4541 19.2529 17.5356 18.5908 17.5356C17.3989 17.5356 16.502 17.0205 16.502 16.2231L16.5107 11.9062ZM22.3887 12.7944L22.5112 13.1919C22.7734 12.8696 23.1802 12.7632 23.5366 12.7432C23.8203 12.7275 24.0718 12.7661 24.1924 12.7944V14.0312C23.9341 13.9771 23.1318 13.895 22.6562 14.3135V17.439H20.6484V12.7944H22.3887ZM24.6729 11.2881L26.6943 11V12.0972L24.6729 12.3853V11.2881ZM13.7148 13.8677C13.293 13.8706 13.0303 13.9526 13.0303 14.1616C13.0303 14.3926 13.4766 14.4937 14.0293 14.6191C14.9277 14.8228 16.1074 15.0908 16.1074 16.084C16.1074 17.0537 14.9565 17.5327 13.2842 17.5327C12.5908 17.5327 11.834 17.4419 11.0859 17.2266V16.0142C11.5205 16.1724 12.0317 16.3047 12.5186 16.3794C12.7886 16.4209 13.0508 16.4443 13.2886 16.4443C13.4521 16.4443 13.5991 16.4336 13.7197 16.4077C13.9297 16.3623 14.0591 16.272 14.0591 16.1143C14.0591 15.8594 13.5786 15.7437 12.9985 15.604C12.1147 15.3911 11 15.1226 11 14.2227C11 13.2705 12.0879 12.7007 13.7192 12.7007C14.4028 12.6968 15.0811 12.7798 15.7178 12.9463V14.2134C15.106 13.9922 14.3267 13.8677 13.7148 13.8677ZM37.0903 12.7036C39.0029 12.7036 40 13.792 40 15.1714C40 15.2422 39.9946 15.3574 39.9883 15.459C39.9829 15.5449 39.9771 15.6216 39.9727 15.6533H36.0347C36.0845 16.002 36.3179 16.2148 36.6494 16.335C36.917 16.4321 37.248 16.4688 37.5981 16.4688C38.3955 16.4688 39.0254 16.3564 39.5742 16.1719V17.1841C39.0254 17.3872 38.3052 17.5327 37.3442 17.5327C35.3862 17.5327 34.0132 16.7842 34.0132 15.1621C34.0132 13.792 35.1782 12.7036 37.0903 12.7036ZM37.0767 13.8013C36.5737 13.8013 36.0166 14.0557 36.0166 14.6621H38.0967C38.0967 14.0557 37.5708 13.8013 37.0767 13.8013ZM29.3228 13.125C29.6035 12.9521 30.1113 12.7036 30.8999 12.7036C32.314 12.7036 33.646 13.5557 33.6416 15.1196C33.6416 16.8296 32.3276 17.5327 30.8862 17.5327C30.4839 17.5327 30.1714 17.4683 29.9229 17.3862C29.7373 17.3252 29.5874 17.2544 29.4634 17.1934L29.4585 18.7148L27.4463 19V12.7915H29.2183L29.3228 13.125ZM29.4722 16.1626C29.667 16.3022 29.9482 16.417 30.4194 16.417C30.8457 16.417 31.1909 16.2407 31.4082 15.9546C31.5718 15.7393 31.6631 15.4614 31.6611 15.1499C31.6611 14.4468 31.1538 13.895 30.4194 13.895C29.957 13.895 29.667 14.0073 29.4585 14.1616L29.4722 16.1626ZM26.6987 17.439H24.6772V12.7944H26.6987V17.439Z" fill="#6C757D"/>
</svg>
