<svg width="50" height="30" viewBox="0 0 50 30" fill="none" xmlns="http://www.w3.org/2000/svg">
<path d="M8.48 5C7.66278 5 7 5.59883 7 6.33758V24.6624C7 25.4011 7.66311 26 8.48 26H42.52C43.3372 26 44 25.4012 44 24.6624V6.33758C44 5.59887 43.3369 5 42.52 5H8.48ZM29.0983 11.2584C29.9988 11.2584 30.7204 11.4382 31.1806 11.6053L30.8661 13.3933L30.658 13.2982C30.2293 13.131 29.6786 12.9702 28.919 12.9816C28.0097 12.9816 27.5894 13.3482 27.5894 13.6912C27.5841 14.0776 28.0805 14.3325 28.8924 14.7142C30.2324 15.303 30.8518 16.017 30.8431 16.9557C30.825 18.6683 29.2401 19.775 26.7985 19.775C25.7568 19.7647 24.7533 19.5654 24.2108 19.3351L24.5369 17.4875L24.8363 17.6192C25.5992 17.9273 26.0931 18.0519 27.0228 18.0519C27.6904 18.0519 28.4069 17.7992 28.4126 17.2462C28.4169 16.885 28.1131 16.6275 27.2089 16.2231C26.3279 15.8284 25.1599 15.1672 25.1728 13.9816C25.1866 12.3779 26.8031 11.2584 29.0983 11.2584ZM10.2722 11.5207H14.0219C14.5268 11.538 14.9345 11.6849 15.0753 12.1801L15.8835 15.9504C15.8836 15.9507 15.8833 15.9521 15.8835 15.9525L16.1263 17.0821L18.4029 11.5207H20.8658L17.205 19.6611L14.7445 19.6632L12.7859 13.0944C13.9513 13.6524 14.9435 14.2981 15.5181 15.1865C15.37 14.9054 15.1747 14.588 14.925 14.2753C14.6341 13.9111 14.0058 13.4408 13.7433 13.2407C12.8282 12.5436 11.5856 11.9806 10.2433 11.6827L10.2722 11.5207ZM21.8451 11.5301H24.2536L22.7469 19.658H20.3385L21.8451 11.5301ZM35.4484 11.5301H37.273L39.1831 19.658H36.9931C36.9931 19.658 36.7759 18.7242 36.7052 18.4395C36.361 18.4395 33.9536 18.4364 33.6828 18.4364C33.5911 18.6565 33.1856 19.658 33.1856 19.658H30.7078L34.2124 12.2052C34.4605 11.6756 34.8834 11.5301 35.4484 11.5301ZM35.6276 13.7162C35.5091 14.0185 35.3027 14.5067 35.3165 14.4853C35.3165 14.4853 34.5752 16.2723 34.3812 16.7362L36.3294 16.7352C36.1484 15.9601 35.9673 15.1851 35.786 14.4101L35.6276 13.7163V13.7162Z" fill="#6C757D"/>
</svg>
