<svg width="24" height="24" viewBox="0 0 24 24" fill="none" xmlns="http://www.w3.org/2000/svg">
<g clip-path="url(#clip0_6_1381)">
<path fill-rule="evenodd" clip-rule="evenodd" d="M21.0823 12.2413H21.8223H21.8229C21.9003 12.2427 21.9646 12.1806 21.9675 12.1016V10.0072C21.9675 9.74416 21.9813 9.50656 22.0851 9.269C22.1564 9.08831 22.3243 8.96664 22.5149 8.95764C22.9882 8.95764 22.9836 9.48727 22.98 9.90337C22.9797 9.93847 22.9794 9.97276 22.9794 10.0058V12.1191C22.9886 12.1869 23.0439 12.2383 23.1109 12.2413H23.8574C23.9282 12.2428 23.9892 12.1905 24 12.1191V9.67031C24 9.29386 24 8.76971 23.8062 8.45836C23.5965 8.12283 23.2719 8 22.9394 8C22.4268 8 22.1357 8.25367 21.928 8.78583H21.9136V8.19059C21.8986 8.12836 21.8449 8.08391 21.7821 8.08186H21.0935C21.0207 8.08006 20.9587 8.13547 20.9509 8.20936V12.1016C20.9518 12.1763 21.0093 12.2373 21.0823 12.2413ZM20.3858 10.1998C20.3858 8.97174 19.7897 8.00536 18.6877 8.00536C17.6139 8.00536 17.0179 8.95563 17.0179 10.1589C17.0179 11.3621 17.6067 12.3285 18.6877 12.3285C19.7286 12.3285 20.3858 11.387 20.3858 10.1998ZM18.1127 10.0361C18.1127 9.56094 18.1475 8.79993 18.6949 8.79993C18.9302 8.79993 19.0965 8.90797 19.1799 9.17639C19.2771 9.4871 19.2909 9.88036 19.2909 10.2079C19.2909 10.7071 19.2693 11.5259 18.6877 11.5259C18.1125 11.5259 18.1126 10.5332 18.1127 10.0518V10.0361ZM4.22739 12.2493H4.96929H4.96997C5.00717 12.2502 5.04326 12.2359 5.07013 12.2096C5.097 12.1832 5.11251 12.147 5.1132 12.109V10.0468V10.0145C5.1129 9.56609 5.11247 8.97307 5.62577 8.97307C6.10029 8.97307 6.09296 9.49413 6.08704 9.9149C6.0864 9.96024 6.08576 10.0045 6.08576 10.0468V12.1097C6.08704 12.1842 6.14434 12.245 6.2172 12.2493H6.96107C6.99819 12.25 7.0341 12.2356 7.06084 12.2093C7.08759 12.183 7.10297 12.1469 7.1037 12.109V10.0468L7.10361 9.99774C7.10319 9.77926 7.10254 9.4844 7.17334 9.30123C7.24551 9.11394 7.41994 8.98859 7.61691 8.98246C7.8318 8.98246 7.99804 9.05626 8.05324 9.31799C8.08144 9.44394 8.07776 9.73597 8.07536 9.9296C8.0748 9.97529 8.07429 10.0155 8.07429 10.0468V12.1097C8.07523 12.1843 8.1327 12.2454 8.20569 12.2493H8.94763C8.98487 12.2502 9.02091 12.2359 9.04779 12.2096C9.07466 12.1832 9.09017 12.147 9.09086 12.109V9.65351C9.09086 9.59369 9.09189 9.53253 9.09291 9.47073C9.099 9.10409 9.10543 8.71374 8.90357 8.4335C8.6589 8.11567 8.26539 7.95727 7.8741 8.01916C7.48286 8.08104 7.1547 8.35357 7.01563 8.73213C6.8073 8.24026 6.50961 8.0114 6.05224 8.0114C5.59487 8.0114 5.25514 8.24026 5.0751 8.73213H5.0613V8.22414C5.0574 8.15171 5.00079 8.0939 4.92986 8.08991H4.23789C4.16147 8.08914 4.09847 8.15081 4.09594 8.22881V12.1211C4.10267 12.1911 4.15856 12.2456 4.22739 12.2493ZM2.9361 12.2788C2.88724 12.3221 2.817 12.3293 2.76064 12.2969C2.55039 12.1183 2.487 12.0217 2.38963 11.8734C2.37291 11.8479 2.35513 11.8209 2.33546 11.7916C1.92737 12.2157 1.6389 12.3426 1.11122 12.3426C0.486283 12.3426 0 11.9486 0 11.1608C0 10.5454 0.328568 10.1273 0.788567 9.92197C1.12824 9.76979 1.58143 9.72251 1.97327 9.68167C2.04613 9.67409 2.11684 9.66671 2.18434 9.65891V9.56094C2.18434 9.54226 2.18447 9.52319 2.18464 9.50386C2.18593 9.3368 2.18739 9.1508 2.0943 9.01066C2.00361 8.87107 1.83146 8.81403 1.67769 8.81403C1.39444 8.81403 1.14211 8.96236 1.08034 9.26904C1.07251 9.34057 1.0186 9.39783 0.948909 9.40863L0.235256 9.32874C0.199646 9.32356 0.167679 9.30367 0.14682 9.27371C0.125957 9.2438 0.118016 9.20643 0.124856 9.17039C0.2898 8.27917 1.07837 8.01007 1.78479 8.01007C2.1462 8.01007 2.61806 8.10804 2.90194 8.38721C3.2352 8.70586 3.2331 9.12299 3.23087 9.57881C3.2307 9.61644 3.23049 9.65433 3.23049 9.69247V10.8729C3.23049 11.1908 3.34599 11.3489 3.46766 11.5155C3.4821 11.5353 3.49667 11.5552 3.51111 11.5755C3.55843 11.6426 3.56893 11.7265 3.51111 11.7768C3.35931 11.9064 3.08987 12.1453 2.94201 12.2801L2.9361 12.2788ZM2.1876 10.4306L2.18764 10.4674C2.1879 10.7465 2.18811 10.9832 2.04896 11.2359C1.93067 11.4494 1.74339 11.5809 1.53441 11.5809C1.24986 11.5809 1.08361 11.3594 1.08361 11.0306C1.08361 10.385 1.65073 10.2676 2.1876 10.2676V10.4306ZM13.1972 11.5127C13.2117 11.5325 13.2262 11.5525 13.2407 11.5728C13.2906 11.6426 13.3011 11.7245 13.2374 11.7708C13.0856 11.9003 12.8162 12.1399 12.6684 12.2741C12.6192 12.3168 12.5492 12.3238 12.4929 12.2915C12.2817 12.1121 12.2192 12.017 12.1204 11.8667L12.1202 11.8664C12.1038 11.8414 12.0863 11.8149 12.0671 11.7862C11.6596 12.2104 11.3692 12.3372 10.8435 12.3372C10.2185 12.3372 9.73226 11.9433 9.73226 11.1561C9.73226 10.5401 10.0588 10.1219 10.5241 9.91661C10.8645 9.76383 11.3202 9.71677 11.7132 9.67623C11.7844 9.66886 11.8538 9.66174 11.9199 9.6542V9.55824C11.9199 9.53964 11.92 9.52066 11.9202 9.50146C11.9214 9.33436 11.9229 9.14827 11.8292 9.00864C11.7411 8.86906 11.5656 8.81133 11.4126 8.81133C11.1293 8.81133 10.8783 8.95966 10.8159 9.26634C10.8078 9.33779 10.754 9.39491 10.6844 9.40593L9.96489 9.32673C9.92901 9.32171 9.89674 9.30179 9.87574 9.2717C9.8547 9.24157 9.84677 9.20394 9.8538 9.16769C10.0194 8.27583 10.808 8.00737 11.5144 8.00737C11.8752 8.00737 12.347 8.10534 12.6315 8.38451C12.9655 8.70153 12.9631 9.1154 12.9606 9.56891C12.9603 9.60877 12.9601 9.64936 12.9601 9.68977V10.8709C12.9601 11.1881 13.0756 11.3462 13.1972 11.5127ZM11.268 11.5769C11.4763 11.5769 11.6642 11.4453 11.7819 11.2326C11.9215 10.9785 11.9214 10.7407 11.9212 10.458V10.4279V10.2642C11.3843 10.2642 10.8172 10.381 10.8172 11.0272C10.8172 11.3554 10.9834 11.5769 11.268 11.5769ZM13.8689 8.2154V8.76971C13.8685 8.80773 13.8834 8.84429 13.9101 8.87077C13.9368 8.89726 13.973 8.91144 14.0102 8.90999H15.2877L13.8229 11.0574C13.756 11.1726 13.7244 11.3056 13.7322 11.4393V12.0063C13.7322 12.0882 13.8209 12.1815 13.9057 12.1352C14.7136 11.7074 15.6743 11.7056 16.4837 12.1305C16.5763 12.1795 16.6637 12.0848 16.6637 12.003V11.4071C16.6612 11.3159 16.611 11.2332 16.5323 11.1903C16.1058 10.9454 15.6096 10.8736 15.1404 10.885L16.4048 9.04216C16.5224 8.87707 16.5882 8.77241 16.5882 8.69253V8.2154C16.5885 8.17751 16.5737 8.14109 16.5471 8.1146C16.5206 8.08811 16.4846 8.07389 16.4475 8.07517H14.0076C13.9704 8.07303 13.9341 8.08709 13.9077 8.11379C13.8813 8.14053 13.8672 8.17747 13.8689 8.2154Z" fill="#D9D9D9"/>
<path fill-rule="evenodd" clip-rule="evenodd" d="M15.0876 14.7242C15.2565 14.2954 15.6324 13.3344 15.4537 13.1015H15.4549C15.277 12.8681 14.2781 12.9906 13.8288 13.0457L13.8279 13.0458C13.6912 13.0626 13.6702 12.9411 13.793 12.8532C14.5908 12.2808 15.8979 12.4445 16.0497 12.6378C16.2015 12.8311 16.0083 14.1692 15.2611 14.8081C15.1461 14.906 15.0364 14.8537 15.0876 14.7242ZM9.71941 15.3859C11.4569 15.3859 13.4803 14.8255 14.874 13.7753V13.7773C15.1047 13.6001 14.9069 13.3398 14.6716 13.4418C13.1503 14.0971 11.5171 14.4392 9.86598 14.4484C7.57518 14.4484 5.3593 13.8068 3.56662 12.7418C3.4096 12.6485 3.2926 12.813 3.42404 12.9331C5.1499 14.5232 7.39497 15.398 9.71941 15.3859Z" fill="#D9D9D9"/>
</g>
<defs>
<clipPath id="clip0_6_1381">
<rect width="24" height="24" fill="white"/>
</clipPath>
</defs>
</svg>
