<svg width="24" height="24" viewBox="0 0 24 24" fill="none" xmlns="http://www.w3.org/2000/svg">
<g clip-path="url(#clip0_6_1355)">
<path d="M2.07422 10.0559H2.91187L2.49316 8.98996L2.07422 10.0559Z" fill="#D9D9D9"/>
<path d="M6.52344 13.6345V14.1295H7.93205V14.6627H6.52344V15.2338H8.08425L8.80764 14.4341L8.12236 13.6345H6.52344Z" fill="#D9D9D9"/>
<path d="M17.5272 8.98996L17.0703 10.0559H17.9461L17.5272 8.98996Z" fill="#D9D9D9"/>
<path d="M10.6032 15.5381V13.3681L9.61328 14.4341L10.6032 15.5381Z" fill="#D9D9D9"/>
<path d="M12.4645 13.9774C12.4264 13.749 12.2739 13.6346 12.0454 13.6346H11.2461V14.3199H12.0837C12.3121 14.3198 12.4645 14.2057 12.4645 13.9774Z" fill="#D9D9D9"/>
<path d="M15.1284 14.2438C15.2045 14.2057 15.2427 14.0913 15.2427 13.9773C15.2809 13.8251 15.2045 13.7489 15.1284 13.7107C15.0525 13.6726 14.9381 13.6726 14.824 13.6726H14.0625V14.2819H14.824C14.9381 14.2819 15.0525 14.2819 15.1284 14.2438Z" fill="#D9D9D9"/>
<path d="M20.6123 8.00006V8.45693L20.3839 8.00006H18.5948V8.45693L18.3662 8.00006H15.9297C15.511 8.00006 15.1682 8.07627 14.8637 8.22852V8.00006H13.1505V8.03816V8.22852C12.9602 8.07627 12.7319 8.00006 12.4272 8.00006H6.29787L5.87888 8.95186L5.46017 8.00006H4.0896H3.51846V8.45693L3.3281 8.00006H3.29H1.65314L0.891644 9.78934L0.016113 11.7309L0 11.7691H0.016113H1.95776H1.98207L1.99587 11.7309L2.22433 11.16H2.71926L2.94767 11.7691H5.15555V11.7309V11.3123L5.34613 11.7691H6.45007L6.64038 11.3123V11.7309V11.7691H7.51596H11.8942H11.9323V10.7792H12.0086C12.0846 10.7792 12.0846 10.7792 12.0846 10.8934V11.7309H14.8257V11.5025C15.0542 11.6169 15.3966 11.7309 15.8536 11.7309H16.9958L17.2242 11.122H17.7571L17.9855 11.7309H20.1935V11.3503V11.16L20.5363 11.7309H20.6122H20.6504H22.3255V8L20.6123 8.00006ZM7.70638 11.1982H7.32555H7.09719V10.9699V9.10417L7.05903 9.19152V9.1905L6.17338 11.1982H6.1454H5.94181H5.61236L4.69873 9.10417V11.1982H3.40437L3.13786 10.6271H1.84339L1.57681 11.1982H0.907644L2.03397 8.5332H2.98566L4.05155 11.0839V8.5332H4.2799H5.06017L5.07809 8.57136H5.0795L5.55984 9.61679L5.90477 10.4L5.91699 10.3605L6.67837 8.5332H7.70638V11.1982ZM10.3334 9.10422H8.84848V9.59915H10.2952V10.1321H8.84848V10.6652H10.3334V11.2361H8.20142V8.5332H10.3334V9.10422ZM13.0488 10.0859C13.0498 10.0867 13.0511 10.0874 13.0522 10.0882C13.0666 10.1034 13.079 10.1187 13.0895 10.1333C13.1625 10.2289 13.2214 10.3711 13.2244 10.5796C13.2246 10.5832 13.2247 10.5867 13.225 10.5904C13.225 10.5924 13.2253 10.5943 13.2253 10.5964C13.2253 10.5976 13.2252 10.5986 13.2252 10.5997C13.226 10.6207 13.2266 10.642 13.2266 10.6652V11.1982H12.6556V10.8935C12.6556 10.7412 12.6556 10.5127 12.5412 10.3605C12.5053 10.3246 12.4688 10.3008 12.4293 10.284C12.3723 10.2471 12.264 10.2464 12.0845 10.2464H11.3991V11.1982H10.752V8.53326H12.1987C12.5412 8.53326 12.7697 8.53326 12.9601 8.64746C13.1468 8.75946 13.2593 8.9453 13.2637 9.23946C13.2549 9.6446 12.9948 9.86691 12.8078 9.94187C12.8079 9.94176 12.9348 9.96737 13.0488 10.0859ZM14.3309 11.1982H13.6836V8.5332H14.3309V11.1982ZM21.7546 11.1982H20.9169L19.6987 9.18032V10.8555L19.6948 10.8514V11.1998H19.0516V11.1982H18.4044L18.176 10.6271H16.8434L16.615 11.2361H15.8916C15.5873 11.2361 15.2063 11.16 14.978 10.9316C14.7496 10.7032 14.6355 10.3986 14.6355 9.90377C14.6355 9.52305 14.7115 9.1421 14.978 8.83765C15.1682 8.60907 15.511 8.53314 15.9297 8.53314H16.539V9.10417H15.9297C15.7013 9.10417 15.5872 9.14216 15.4347 9.25653C15.3206 9.37068 15.2444 9.59909 15.2444 9.86549C15.2444 10.1701 15.2826 10.3605 15.4347 10.5127C15.5491 10.627 15.7013 10.6652 15.8916 10.6652H16.1581L17.0337 8.57131H17.4145H17.9855L19.0516 11.122V10.9919V10.132V10.056V8.57131H20.0033L21.1072 10.4367V8.57131H21.7546V11.1982Z" fill="#D9D9D9"/>
<path d="M12.5051 9.64318C12.5162 9.63131 12.5264 9.61786 12.5349 9.60242C12.5694 9.54781 12.609 9.44954 12.5876 9.31533C12.5867 9.303 12.5845 9.29164 12.5819 9.28061C12.5812 9.27756 12.5813 9.2749 12.5805 9.27179L12.5802 9.27185C12.5612 9.20666 12.5129 9.16652 12.4646 9.14221C12.3883 9.10422 12.274 9.10422 12.1599 9.10422H11.3984V9.71346H12.1599C12.2741 9.71346 12.3883 9.71346 12.4646 9.6753C12.476 9.66953 12.4863 9.66156 12.496 9.65268L12.4962 9.65319C12.4962 9.65302 12.5 9.64889 12.5051 9.64318Z" fill="#D9D9D9"/>
<path d="M23.9973 15.0053C23.9973 14.7388 23.9213 14.4723 23.8071 14.2819V12.5688H23.8054V12.4544C23.8054 12.4544 22.2096 12.4544 21.9722 12.4544C21.7347 12.4544 21.4467 12.6828 21.4467 12.6828V12.4544H19.6954C19.4289 12.4544 19.0865 12.5306 18.9339 12.6828V12.4544H15.8123V12.5688V12.6828C15.5839 12.4926 15.165 12.4544 14.9747 12.4544H12.9189V12.5688V12.6828C12.7286 12.4926 12.2716 12.4544 12.043 12.4544H9.75901L9.22592 13.0256L8.73094 12.4544H8.57156H8.31217H5.30469V12.5688V12.8695V16.2998H8.6549L9.20545 15.7491L9.68262 16.2998H9.72084H11.6512H11.7387H11.7768H11.8147V15.9191V15.4241H12.0052C12.2715 15.4241 12.6143 15.4241 12.8807 15.3098V16.2615V16.3378H14.594V16.2615V15.3479H14.67C14.7843 15.3479 14.7843 15.3479 14.7843 15.4621V16.2615V16.3378H19.9618C20.3047 16.3378 20.6471 16.2615 20.8375 16.1092V16.2615V16.3378H22.4746C22.8171 16.3378 23.16 16.2998 23.3884 16.1474C23.7389 15.9371 23.9598 15.5649 23.9926 15.1209C23.9942 15.1077 23.9962 15.0946 23.9973 15.0814L23.9951 15.0793C23.9962 15.0546 23.9973 15.0301 23.9973 15.0053ZM12.005 14.777H11.2436V14.8909V15.1195V15.3479V15.7667H9.99222L9.26391 14.9291L9.26137 14.9319L9.22586 14.8909L8.38832 15.7667H5.95181V13.1018H8.42643L9.1025 13.8423L9.24463 13.9973L9.26397 13.9773L10.0635 13.1018H12.0812C12.4729 13.1018 12.9113 13.1985 13.0775 13.5969C13.0974 13.6758 13.109 13.7635 13.109 13.8631C13.109 14.6245 12.5759 14.777 12.005 14.777ZM15.8121 14.7388C15.8881 14.8528 15.9263 15.0053 15.9263 15.2338V15.7667H15.2792V15.4241C15.2792 15.2716 15.2792 15.0053 15.1648 14.8909C15.0889 14.7769 14.9364 14.7769 14.708 14.7769H14.0228V15.7666H13.3757V13.0636H14.8223C15.1267 13.0636 15.3932 13.0636 15.5838 13.1777C15.774 13.292 15.9263 13.4824 15.9263 13.787C15.9263 14.2057 15.6598 14.4341 15.4694 14.5104C15.6599 14.5863 15.7741 14.6626 15.8121 14.7388ZM18.4391 13.6345H16.9542V14.1295H18.4009V14.6626H16.9542V15.1956H18.4391V15.7666H16.3072V13.0636H18.4391V13.6345ZM20.038 15.7666H18.8197V15.1956H20.038C20.152 15.1956 20.2283 15.1956 20.3046 15.1194C20.3427 15.0812 20.3805 15.0053 20.3805 14.9291C20.3805 14.8527 20.3427 14.777 20.3046 14.7388C20.2665 14.7008 20.1902 14.6626 20.076 14.6626C19.4668 14.6245 18.7436 14.6626 18.7436 13.8252C18.7436 13.4444 18.9719 13.0256 19.6573 13.0256H20.9136V13.6727H19.7335C19.6194 13.6727 19.5431 13.6727 19.4669 13.7109C19.391 13.749 19.391 13.8252 19.391 13.9013C19.391 14.0155 19.4669 14.0536 19.5431 14.0914C19.6194 14.1296 19.6954 14.1296 19.7715 14.1296H20.1141C20.4568 14.1296 20.6852 14.2057 20.8375 14.358C20.9517 14.4723 21.0279 14.6626 21.0279 14.9291C21.0278 15.5 20.6851 15.7666 20.038 15.7666ZM23.312 15.5C23.16 15.6525 22.8933 15.7667 22.5124 15.7667H21.2945V15.1957H22.5124C22.6267 15.1957 22.703 15.1957 22.779 15.1195C22.8171 15.0813 22.8552 15.0053 22.8552 14.9291C22.8552 14.8528 22.817 14.777 22.779 14.7389C22.7409 14.7008 22.6649 14.6627 22.5507 14.6627C21.9417 14.6246 21.2182 14.6627 21.2182 13.8253C21.2182 13.4634 21.4252 13.1366 21.9357 13.0395C21.9968 13.0311 22.0614 13.0256 22.1319 13.0256H23.3883V13.6727H22.5507H22.2462H22.2081C22.0938 13.6727 22.0178 13.6727 21.9416 13.7109C21.9034 13.749 21.8652 13.8252 21.8652 13.9013C21.8652 14.0155 21.9034 14.0536 22.0177 14.0914C22.0937 14.1296 22.1699 14.1296 22.2461 14.1296H22.284H22.5886C22.755 14.1296 22.8808 14.1501 22.996 14.1906C23.1014 14.2287 23.4505 14.3849 23.5286 14.7925C23.5354 14.8352 23.5403 14.8798 23.5403 14.9291C23.5404 15.1576 23.4642 15.3479 23.312 15.5Z" fill="#D9D9D9"/>
</g>
<defs>
<clipPath id="clip0_6_1355">
<rect width="24" height="24" fill="white"/>
</clipPath>
</defs>
</svg>
