<svg width="24" height="24" viewBox="0 0 24 24" fill="none" xmlns="http://www.w3.org/2000/svg">
<g clip-path="url(#clip0_1_24)">
<path d="M24 12.1879C23.8043 12.7984 23.3738 13.0333 22.7476 13.002C22.2074 12.9785 21.6673 13.002 21.1272 12.9941C20.9707 12.9941 20.9237 13.0489 20.908 13.1898C20.6419 15.1703 19.8043 16.8767 18.411 18.2935C17.0489 19.6791 15.3973 20.5479 13.4716 20.8689C12.9941 20.9472 12.9941 20.9393 12.9941 21.4325C12.9941 21.9804 13.002 22.5284 12.9863 23.0763C12.9707 23.5773 12.5714 23.9687 12.0705 24.0078C11.593 24.047 11.1389 23.7182 11.0294 23.2407C11.0059 23.1233 11.0059 22.9902 11.0059 22.865C11.0059 22.3014 10.998 21.7378 11.0059 21.1742C11.0059 21.002 10.9589 20.9315 10.7789 20.908C7.34247 20.3523 4.955 18.4501 3.61644 15.2564C3.3503 14.6223 3.24071 13.9256 3.09198 13.2446C3.04502 13.0489 2.99022 12.9941 2.79453 12.9941C2.1683 13.002 1.54208 13.002 0.923685 12.9863C0.500985 12.9785 0.156562 12.681 0.0391454 12.274C-0.0782715 11.8669 0.054801 11.4207 0.414879 11.2016C0.602746 11.0841 0.845408 11.0215 1.07241 11.0137C1.6595 10.9902 2.24658 10.998 2.83367 11.0059C3.01371 11.0059 3.0685 10.9511 3.09981 10.7789C3.74169 7.02935 5.8865 4.5636 9.48729 3.37378C9.90999 3.23288 10.3562 3.17808 10.7867 3.0998C10.9511 3.06849 11.0137 3.02153 11.0059 2.84932C10.998 2.31703 11.0215 1.78474 10.998 1.25245C10.9667 0.626223 11.2016 0.195695 11.8121 0C11.9374 0 12.0626 0 12.1879 0C12.7984 0.195695 13.0254 0.626223 13.002 1.25245C12.9785 1.84736 12.9941 2.43444 12.9941 3.06067C15.0842 3.31115 16.8767 4.17221 18.3562 5.64384C19.8356 7.12329 20.6889 8.91585 20.9472 11.0059C21.5656 11.0059 22.1605 11.0294 22.7554 10.998C23.3816 10.9746 23.8121 11.2016 24.0078 11.8121C24 11.9374 24 12.0626 24 12.1879ZM12 18.998C15.8513 18.998 18.9824 15.8748 18.998 12.0157C19.0137 8.16438 15.8591 5.00978 12 5.00978C8.14873 5.00978 5.01762 8.13307 5.00196 11.9922C4.98631 15.8434 8.14873 18.998 12 18.998Z" fill="#6C757D"/>
<path d="M12 15.499C10.0744 15.499 8.48531 13.91 8.50097 11.9922C8.5088 10.0587 10.1057 8.47749 12.0156 8.49315C13.9413 8.50881 15.499 10.0665 15.5068 11.9922C15.5068 13.91 13.9256 15.5068 12 15.499ZM13.4951 12.0157C13.5029 11.2094 12.8376 10.5205 12.0156 10.5049C11.2016 10.4892 10.5049 11.1703 10.4971 11.9922C10.4892 12.7984 11.1546 13.4873 11.9765 13.5029C12.7906 13.5186 13.4873 12.8376 13.4951 12.0157Z" fill="#6C757D"/>
</g>
<defs>
<clipPath id="clip0_1_24">
<rect width="24" height="24" fill="white"/>
</clipPath>
</defs>
</svg>
