<svg width="30" height="30" viewBox="0 0 30 30" fill="none" xmlns="http://www.w3.org/2000/svg">
<path d="M27.33 14.2544C26.9764 14.4761 26.5576 14.5872 26.0736 14.5876C25.5906 14.588 25.172 14.4777 24.8181 14.2566L16.0385 8.77349C15.0645 8.16523 13.8288 8.16631 12.8559 8.77626L4.0502 14.2968C3.72017 14.5037 3.30749 14.6074 2.81218 14.6078C2.31686 14.6082 1.89221 14.4979 1.53823 14.2768C1.18425 14.0558 1.00713 13.7938 1.00687 13.491C1.00662 13.1887 1.1833 12.9267 1.53691 12.705L13.4536 5.25628C13.5951 5.1676 13.7483 5.1046 13.9134 5.06726C14.0785 5.03052 14.2553 5.01206 14.444 5.0119C14.6327 5.01174 14.8096 5.02988 14.9748 5.06634C15.1399 5.10339 15.2933 5.16613 15.4349 5.25456L27.3641 12.7047C27.6945 12.9111 27.8598 13.1653 27.8601 13.4676C27.8603 13.7705 27.6836 14.0327 27.33 14.2544Z" fill="black"/>
<path d="M24.7 17.2809V23.6C24.7 24.7598 23.7598 25.7 22.6 25.7H6.45024C5.27342 25.7 4.32633 24.7331 4.35073 23.5565L4.48172 17.2398C4.49703 16.5016 4.89895 15.8256 5.54024 15.4596L13.4709 10.9328C14.1105 10.5678 14.8944 10.5644 15.5371 10.9239L23.6252 15.4481C24.2889 15.8194 24.7 16.5204 24.7 17.2809Z" fill="black" stroke="black" stroke-width="0.599988"/>
</svg>
