<svg width="162" height="169" viewBox="0 0 162 169" fill="none" xmlns="http://www.w3.org/2000/svg">
<path d="M146 54H5C2.23858 54 0 56.2386 0 59V164C0 166.761 2.23858 169 5 169H146C148.761 169 151 166.761 151 164V59C151 56.2386 148.761 54 146 54Z" fill="#DC9F2C"/>
<path d="M34.5 86.5L39.5 88.5V92L40 94.5C41.3333 95.1667 44.1 96.5 44.5 96.5C44.9 96.5 49 96.8333 51 97L52 99.5L51 100.5L39 100L37.5 104L39.5 105L43.5 111V119.5L46.5 121L47.5 124.5H37.5V118.5V114L36.5 111.5L31 111L27 109L26 101.5L29 91.5L32 87L34.5 86.5Z" fill="#263238"/>
<path d="M35.5 130V153" stroke="black" stroke-dasharray="2 2"/>
<path d="M36.0039 152.5L131.004 153.5" stroke="black" stroke-dasharray="2 2"/>
<path d="M131.5 154V94" stroke="black" stroke-dasharray="2 2"/>
<path d="M131.213 54.7643C133.29 54.7643 135.069 53.9654 136.549 52.3674C138.027 50.7722 138.766 48.8535 138.766 46.6115C138.766 44.3694 138.027 42.4494 136.549 40.8515C135.069 39.2563 133.29 38.4586 131.213 38.4586C129.135 38.4586 127.358 39.2563 125.88 40.8515C124.4 42.4494 123.66 44.3694 123.66 46.6115C123.66 48.8535 124.4 50.7722 125.88 52.3674C127.358 53.9654 129.135 54.7643 131.213 54.7643ZM131.213 94C130.709 94 130.206 93.898 129.702 93.6943C129.198 93.4905 128.758 93.2187 128.38 92.879C119.191 84.1146 112.33 75.9794 107.798 68.4734C103.266 60.9646 101 53.949 101 47.4267C101 37.2357 104.038 29.1168 110.113 23.07C116.186 17.0234 123.219 14 131.213 14C139.207 14 146.24 17.0234 152.312 23.07C158.388 29.1168 161.426 37.2357 161.426 47.4267C161.426 53.949 159.16 60.9646 154.628 68.4734C150.096 75.9794 143.235 84.1146 134.045 92.879C133.667 93.2187 133.227 93.4905 132.723 93.6943C132.22 93.898 131.717 94 131.213 94Z" fill="#D81B21"/>
<rect x="3" y="92" width="16" height="17" fill="#FEE49A"/>
<path d="M12 114.5L10.5 109.5H27L31.5 111.5H37.5V113.5V124.5H46H48H50.5L52.5 119.5L53.5 108.5L50.5 101H56.5L61 115.5L62.5 119.5L66.5 120.5L72.5 126.5L54 131.5L52.5 129H10.5V121L12 114.5Z" fill="#FEE49A"/>
<path d="M52.5 100L51.5 97L55.5 94.5L58.5 95L59.5 98L58 100.5L52.5 100Z" fill="#EFC60A"/>
<path d="M32 84.5L36.5 87.5V87L37 82L37.5 79H40H46L46.5 78L46 76.5L44 72.5L38.5 71L34 71.5L32 75.5L30 79L32 84.5Z" fill="black"/>
<path d="M37 79.5L36.5 86.5L39.5 88L42 87L44.5 82.5V79.5H37Z" fill="#FEE49A"/>
<path d="M73 126.635C72.4554 125.02 71.7794 123.461 70.5963 122.166C68.5869 119.969 66.1268 118.729 63.141 118.598C62.6339 118.579 62.4274 118.391 62.2959 117.922C61.864 116.325 61.3945 114.729 60.9062 113.133C60.6997 112.457 60.1551 112.138 59.5729 112.325C58.9908 112.513 58.7279 113.039 58.8969 113.734C58.9344 113.865 58.972 113.997 59.0096 114.147C59.4603 115.706 59.8734 117.246 60.3617 118.785C60.4931 119.236 60.4368 119.518 60.1175 119.856C57.7326 122.504 55.3664 125.17 52.9815 127.799C52.7749 128.025 52.3993 128.137 52.0988 128.194C51.6857 128.269 51.2726 128.213 50.6904 128.213C54.7843 119.537 55.6293 110.71 52.3805 101.621C53.4509 101.621 54.4087 101.621 55.4227 101.621C56.0425 103.725 56.6434 105.847 57.2631 107.95C57.357 108.25 57.4133 108.532 57.526 108.814C57.7514 109.415 58.2396 109.678 58.7842 109.527C59.3476 109.358 59.6668 108.889 59.5166 108.269C59.2912 107.311 58.9908 106.372 58.7279 105.434C58.3711 104.175 58.0143 102.917 57.6199 101.584C58.0518 101.584 58.3898 101.603 58.7467 101.584C59.5166 101.546 59.911 101.171 59.9297 100.401C59.9485 98.5791 59.9485 96.7388 59.9297 94.9172C59.911 93.6027 59.0283 92.9266 57.7701 93.3022C55.4979 93.997 53.2256 94.7482 50.9721 95.5369C50.127 95.8374 49.3008 95.8937 48.4181 95.8186C46.897 95.6684 45.3759 95.5745 43.8736 95.4242C43.5919 95.4055 43.2914 95.274 43.0661 95.105C41.5262 94.0534 40.3431 92.8327 40.606 90.7295C40.6999 90.0722 40.3995 89.3586 40.2868 88.6074C44.3994 87.3492 46.3524 84.5511 46.0895 80.2319C47.7796 79.9502 47.8735 79.8563 47.7233 78.185C47.3665 73.8658 43.7234 70.279 39.4417 70.0161C35.0474 69.7532 31.0287 72.7391 30.1273 77.0583C29.47 80.2319 30.0897 83.1427 32.1742 85.6966C32.2681 85.8093 32.3432 85.922 32.4559 86.0535C30.1836 87.7436 28.6625 89.9407 27.5358 92.4571C26.0334 95.8749 25.3949 99.4617 25.2071 103.161C25.132 104.776 25.1884 106.372 25.1884 108.044C23.8738 108.044 22.4091 108.044 20.8316 108.044C20.8316 107.781 20.8316 107.518 20.8316 107.255C20.8316 102.973 20.8316 98.673 20.8316 94.3914C20.8316 91.7999 19.2729 90.2412 16.6814 90.2412C12.8129 90.2412 8.94443 90.2412 5.09471 90.2412C2.59709 90.2412 1.00087 91.8374 1.00087 94.3163C1.00087 98.2599 1.00087 102.185 1.00087 106.128C1.00087 108.626 2.59709 110.203 5.09471 110.203C6.74727 110.203 8.41862 110.203 10.09 110.203C10.4092 112.006 9.50781 114.053 11.3106 115.349C10.9162 116.645 10.4655 117.865 10.2026 119.123C9.78949 120.983 9.80827 122.898 10.1087 124.776C10.2402 125.677 10.1651 126.541 9.99606 127.405C9.90217 127.893 9.86461 128.382 9.86461 128.87C9.84583 129.771 10.3153 130.316 11.2167 130.278C12.043 130.241 12.3435 130.504 12.55 131.311C13.658 135.405 17.2824 138.09 21.4325 137.996C25.4888 137.903 29.0193 134.973 29.9395 130.898C30.0522 130.429 30.2212 130.297 30.6719 130.297C37.6014 130.316 44.5309 130.316 51.4791 130.297C51.9111 130.297 52.1364 130.353 52.2115 130.879C52.3805 132.156 52.8876 132.457 54.1458 132.175C54.4462 132.1 54.7279 132.044 55.0096 131.987C57.4884 136.231 60.4931 137.865 64.3616 137.02C68.1925 136.194 70.2207 133.471 70.7465 128.4C71.4789 128.062 72.5117 128.25 72.9812 127.33C73 127.105 73 126.86 73 126.635ZM49.5824 125.527C49.2632 126.278 48.9627 126.917 48.7374 127.574C48.5684 128.1 48.2867 128.213 47.7609 128.213C42.9159 128.194 38.0708 128.213 33.2071 128.213C33.0756 128.213 32.9441 128.175 32.7939 128.156C32.024 123.123 29.4137 119.537 24.4748 118.109C19.5359 116.682 15.3857 118.297 12.0054 122.278C12.0242 120.156 12.381 118.278 13.2261 116.476C13.4514 116.006 13.7143 115.837 14.2401 115.837C17.057 115.856 19.8551 115.856 22.672 115.856C22.8598 115.856 23.0475 115.856 23.2353 115.856C24.0053 115.837 24.4748 115.443 24.4748 114.823C24.4748 114.203 24.0241 113.771 23.2541 113.753C21.9208 113.734 20.5875 113.753 19.2542 113.753C17.2636 113.753 15.273 113.753 13.2824 113.753C12.8317 113.753 12.3435 113.734 12.3059 113.189C12.2496 112.194 12.2871 111.199 12.2871 110.185C16.9819 110.185 21.564 110.185 26.1649 110.203C26.3715 110.203 26.6156 110.316 26.7658 110.466C27.7799 111.424 29.0193 111.931 30.3714 112.006C32.0803 112.1 33.7892 112.119 35.4981 112.119C36.1178 112.119 36.4183 112.325 36.4371 112.945C36.4371 113.189 36.4371 113.452 36.4371 113.753C36.1178 113.753 35.8737 113.753 35.6108 113.753C33.3197 113.753 31.0287 113.753 28.7188 113.753C28.4372 113.753 28.1555 113.753 27.8738 113.809C27.348 113.94 27.1038 114.316 27.1226 114.842C27.1414 115.349 27.4043 115.687 27.8926 115.8C28.1367 115.856 28.3996 115.856 28.6625 115.856C30.9536 115.856 33.2446 115.856 35.5544 115.856C35.8361 115.856 36.099 115.856 36.4558 115.856C36.4558 116.194 36.4558 116.438 36.4558 116.682C36.4558 118.673 36.4558 120.663 36.4558 122.654C36.4558 125.114 36.8502 125.508 39.3103 125.508C42.7093 125.527 46.0707 125.527 49.5824 125.527ZM39.0286 104.025C39.2915 103.049 39.5356 102.128 39.7422 101.34C40.4558 101.434 41.0567 101.565 41.6577 101.584C44.3055 101.603 46.9534 101.603 49.6012 101.584C49.9768 101.584 50.2209 101.621 50.3712 102.072C52.5308 108.551 52.9627 115.067 50.9345 121.659C50.3524 123.574 50.3712 123.574 48.3806 123.386C48.3618 123.386 48.343 123.368 48.3242 123.368C48.3055 123.33 48.2679 123.292 48.2679 123.255C48.2303 123.105 48.1928 122.936 48.174 122.767C47.836 120.907 46.8782 119.574 45.0191 119.03C44.6248 118.917 44.606 118.673 44.606 118.354C44.606 116.757 44.6248 115.161 44.606 113.584C44.5872 111.818 44.4182 110.072 43.7421 108.419C42.8407 106.26 41.3009 104.776 39.0286 104.025ZM30.5968 128.156C24.3809 128.156 18.2025 128.156 12.043 128.156C12.4749 123.311 16.6251 119.668 21.564 119.724C26.1461 119.8 30.2963 123.649 30.5968 128.156ZM38.6154 91.274C38.2023 91.105 37.9394 90.9924 37.6577 90.8797C36.1742 90.3539 34.5404 90.8046 33.5451 92.0252C32.531 93.2646 32.362 94.9172 33.3009 96.2505C33.7892 96.9453 34.4653 97.5275 35.1413 98.0533C35.8737 98.6355 36.6812 99.1049 37.4887 99.5932C37.8267 99.7998 37.9018 100.006 37.8079 100.382C37.545 101.283 37.3197 102.185 37.1131 103.105C37.0004 103.593 36.7751 103.781 36.2493 103.762C33.4887 103.743 30.7282 103.743 27.9677 103.743C27.7611 103.743 27.5733 103.706 27.3104 103.687C27.517 99.7059 28.1179 95.8749 29.9395 92.3257C30.8784 90.4853 32.0991 88.8703 33.8268 87.6872C34.0333 87.5558 34.3901 87.4994 34.6155 87.5746C35.6296 87.8562 36.6061 88.1943 37.6014 88.5511C37.8079 88.6262 38.0896 88.7952 38.146 88.9642C38.3337 89.6966 38.4464 90.4478 38.6154 91.274ZM27.348 105.941C27.4794 105.922 27.6109 105.884 27.7423 105.884C30.9348 105.884 34.1084 105.865 37.3009 105.903C37.7892 105.903 38.2774 106.016 38.7281 106.185C40.8126 106.955 41.883 108.626 42.1647 110.692C42.4276 112.682 42.39 114.71 42.4652 116.701C42.4839 117.377 42.4652 118.053 42.4652 118.729C41.1318 118.729 39.8924 118.729 38.6718 118.729C38.6342 118.654 38.5967 118.635 38.5967 118.616C38.5779 116.814 38.5779 115.011 38.5403 113.208C38.484 110.955 37.5262 110.053 35.2915 110.016C33.6577 109.997 32.0052 110.034 30.3902 109.865C28.2681 109.678 27.1038 108.119 27.348 105.941ZM3.14169 102.692C8.39984 102.692 13.5453 102.692 18.6908 102.692C18.6908 104.513 18.6908 106.279 18.6908 108.081C17.0946 108.081 15.5547 108.081 14.0148 108.081C10.9914 108.081 7.96792 108.081 4.96326 108.081C3.94919 108.081 3.19802 107.462 3.16047 106.504C3.10413 105.246 3.14169 103.988 3.14169 102.692ZM35.93 85.8657C35.6859 85.753 35.5732 85.7154 35.4793 85.6591C33.2071 84.307 32.2305 82.2037 32.0052 79.6498C31.7047 76.232 34.0897 72.9456 37.376 72.232C40.7187 71.5184 44.0238 73.3775 45.2257 76.6451C45.3759 77.0583 45.4698 77.509 45.6013 78.0348C43.498 78.0348 41.545 78.0348 39.5732 78.0348C38.9347 78.0348 38.2962 78.0348 37.6765 78.1099C36.6812 78.2601 36.1366 78.8235 35.9864 79.8C35.93 80.1756 35.9112 80.5512 35.9112 80.9268C35.93 82.5418 35.93 84.1568 35.93 85.8657ZM54.296 129.997C54.2397 129.94 54.2021 129.884 54.1458 129.846C54.296 129.64 54.4275 129.396 54.6152 129.208C56.7373 126.823 58.972 124.532 60.9438 122.053C62.0706 120.626 63.2724 120.494 64.7935 120.964C65.0189 121.039 65.2442 121.095 65.4696 121.17C67.9296 122.072 69.6385 123.743 70.6338 126.26C65.1128 127.499 59.7044 128.738 54.296 129.997ZM18.7284 96.1378C13.489 96.1378 8.3435 96.1378 3.16047 96.1378C3.14169 95.8937 3.1229 95.6871 3.1229 95.4993C3.1229 94.936 3.08535 94.3726 3.14169 93.8092C3.23558 92.9829 3.91163 92.3445 4.77547 92.3445C8.86932 92.3257 12.9632 92.3257 17.0758 92.3445C17.9396 92.3445 18.6532 92.9829 18.7096 93.7904C18.7847 94.5416 18.7284 95.3116 18.7284 96.1378ZM27.855 130.353C27.4794 133.565 24.0616 136.156 20.6626 135.893C17.6392 135.668 14.4843 132.795 14.5782 130.353C18.9913 130.353 23.4044 130.353 27.855 130.353ZM68.5493 128.889C68.9625 131.555 66.6902 134.447 63.7607 135.029C61.0753 135.555 57.8265 133.809 57.3007 131.48C61.0377 130.616 64.7935 129.752 68.5493 128.889ZM18.7284 100.457C13.489 100.457 8.3435 100.457 3.17925 100.457C3.17925 99.7059 3.17925 99.0298 3.17925 98.335C8.38106 98.335 13.5453 98.335 18.7284 98.335C18.7284 99.0674 18.7284 99.7434 18.7284 100.457ZM43.7985 80.1568C44.6999 82.9737 42.4088 86.8046 38.4652 86.5417C38.315 86.5229 38.0521 86.2412 38.0521 86.0722C38.0145 84.2507 38.0333 82.4291 38.0521 80.5887C38.0521 80.4385 38.2962 80.1568 38.4276 80.1568C40.2117 80.138 42.0145 80.1568 43.7985 80.1568ZM45.3196 97.7153C45.3196 98.2974 45.3196 98.8608 45.3196 99.4805C43.9487 99.4805 42.6342 99.4993 41.3009 99.4617C41.1131 99.4617 40.9065 99.3115 40.7375 99.1988C39.2351 98.2411 37.7328 97.2834 36.268 96.2881C35.7986 95.9688 35.3291 95.5557 35.0286 95.0674C34.4089 94.0534 35.1601 92.7388 36.3432 92.7952C36.8314 92.8139 37.376 93.0956 37.7892 93.3961C38.6718 94.0534 39.5168 94.767 40.2868 95.5369C41.6201 96.9078 43.1036 97.8092 45.0942 97.6402C45.1506 97.6589 45.2069 97.6777 45.3196 97.7153ZM46.052 123.368C43.5919 123.368 41.1318 123.368 38.653 123.368C38.653 122.522 38.653 121.734 38.653 120.907C40.3807 120.907 42.0332 120.851 43.6858 120.926C45.1506 120.983 45.9581 121.865 46.052 123.368ZM57.7889 99.4242C56.0612 99.4242 54.4275 99.4242 52.85 99.4242C52.6998 98.673 52.5683 97.9782 52.4181 97.2458C54.1833 96.6637 55.9486 96.0815 57.7701 95.4806C57.7889 96.8702 57.7889 98.1284 57.7889 99.4242ZM47.498 97.828C48.3806 97.9219 49.2069 97.9406 49.9956 98.1096C50.2585 98.166 50.4838 98.5979 50.5965 98.8984C50.6341 99.0298 50.3336 99.443 50.1458 99.443C49.2632 99.4993 48.3994 99.4617 47.4792 99.4617C47.498 98.8984 47.498 98.4289 47.498 97.828Z" fill="#D81B21"/>
</svg>
