<svg width="167" height="187" viewBox="0 0 167 187" fill="none" xmlns="http://www.w3.org/2000/svg">
<g clip-path="url(#clip0_10_1627)">
<path d="M0 61.4627L53 37L105 61.4627V186L53 163.761L0 186V61.4627Z" fill="#FEE49A"/>
<path d="M0 60.6269L53 36V163.612L0 186V60.6269Z" fill="#DC9F2C"/>
<path d="M105 61.6269L158 37V164.612L105 187V61.6269Z" fill="#DC9F2C"/>
<path d="M34.0933 115.031H20.7891V129.031H34.0933V115.031Z" fill="#D81B21"/>
<path d="M23.3003 127.615V117.198H30.6915V127.615C30.6915 128.76 31.523 129.698 32.5393 129.698H38.0828C39.0991 129.698 39.9306 128.76 39.9306 127.615V113.031H43.0719C43.9218 113.031 44.3284 111.844 43.6816 111.219L28.2339 95.5312C27.5318 94.8229 26.46 94.8229 25.7579 95.5312L10.3102 111.219C9.6819 111.844 10.0699 113.031 10.9199 113.031H14.0612V127.615C14.0612 128.76 14.8927 129.698 15.909 129.698H21.4525C22.4688 129.698 23.3003 128.76 23.3003 127.615Z" fill="#FEE49A"/>
<path d="M37.5 130V153" stroke="black" stroke-dasharray="2 2"/>
<path d="M37.0039 152.5L132.004 153.5" stroke="black" stroke-dasharray="2 2"/>
<path d="M131.5 154V94" stroke="black" stroke-dasharray="2 2"/>
<path d="M131.5 47.8981C133.941 47.8981 136.031 46.9593 137.77 45.0817C139.507 43.2073 140.375 40.9529 140.375 38.3185C140.375 35.6841 139.507 33.4281 137.77 31.5505C136.031 29.6761 133.941 28.7389 131.5 28.7389C129.059 28.7389 126.971 29.6761 125.234 31.5505C123.495 33.4281 122.625 35.6841 122.625 38.3185C122.625 40.9529 123.495 43.2073 125.234 45.0817C126.971 46.9593 129.059 47.8981 131.5 47.8981ZM131.5 94C130.908 94 130.317 93.8802 129.725 93.6408C129.133 93.4013 128.616 93.082 128.172 92.6828C117.374 82.3847 109.313 72.8258 103.988 64.0062C98.6625 55.1834 96 46.9401 96 39.2764C96 27.3019 99.5692 17.7622 106.708 10.6573C113.843 3.55244 122.107 0 131.5 0C140.893 0 149.157 3.55244 156.292 10.6573C163.431 17.7622 167 27.3019 167 39.2764C167 46.9401 164.338 55.1834 159.013 64.0062C153.688 72.8258 145.626 82.3847 134.828 92.6828C134.384 93.082 133.867 93.4013 133.275 93.6408C132.683 93.8802 132.092 94 131.5 94Z" fill="#D81B21"/>
</g>
<defs>
<clipPath id="clip0_10_1627">
<rect width="167" height="187" fill="white"/>
</clipPath>
</defs>
</svg>
