<svg width="104" height="86" viewBox="0 0 104 86" fill="none" xmlns="http://www.w3.org/2000/svg">
<path d="M55.0611 60.1702C54.9236 61.1177 55.0611 61.7888 55.0611 62.7679C55.0611 71.3741 60.5691 76.8378 68.6733 80.8093L70.1513 80.0908V61.323L68.6734 60.1702H55.0611ZM102 61.323C102 59.8781 100.322 58.4332 98.6446 58.4332H85.2322C86.0665 55.5434 86.9099 52.6615 86.9099 51.2166C86.9099 48.3268 85.2322 45.4449 84.3979 44.7185C84.3796 44.7027 83.5637 44 81.886 44C79.374 44 79.374 46.1634 79.374 46.1634C79.374 46.2029 78.5397 49.7717 78.5397 51.2166C78.5397 52.6615 75.1843 58.4332 73.5066 59.8781L71.0203 60.1702V82L73.5066 81.5278H91.943C95.2984 81.5278 96.9761 80.0829 96.9761 78.638C96.9761 77.1932 95.2984 75.7483 93.6207 75.7483C96.9761 75.7483 98.6538 74.3034 98.6538 72.8585C98.6538 71.4136 96.9761 69.9687 95.2984 69.9687C98.6538 69.9687 100.331 68.5238 100.331 67.0789C100.331 65.634 98.6538 64.1891 96.9761 64.1891C100.322 64.2128 102 62.7679 102 61.323Z" fill="#FFE29C"/>
<path d="M28.1653 37.2083C29.182 37.2083 30.157 36.7957 30.8759 36.0612C31.5948 35.3266 31.9987 34.3304 31.9987 33.2917C31.9987 32.2529 31.5948 31.2567 30.8759 30.5222C30.157 29.7876 29.182 29.375 28.1653 29.375C27.1487 29.375 26.1737 29.7876 25.4548 30.5222C24.7359 31.2567 24.332 32.2529 24.332 33.2917C24.332 34.3304 24.7359 35.3266 25.4548 36.0612C26.1737 36.7957 27.1487 37.2083 28.1653 37.2083ZM35.832 33.2917C35.832 32.2529 36.2359 31.2567 36.9548 30.5222C37.6737 29.7876 38.6487 29.375 39.6653 29.375H51.1653C52.182 29.375 53.157 29.7876 53.8759 30.5222C54.5948 31.2567 54.9987 32.2529 54.9987 33.2917C54.9987 34.3304 54.5948 35.3266 53.8759 36.0612C53.157 36.7957 52.182 37.2083 51.1653 37.2083H39.6653C38.6487 37.2083 37.6737 36.7957 36.9548 36.0612C36.2359 35.3266 35.832 34.3304 35.832 33.2917ZM39.6653 41.125C38.6487 41.125 37.6737 41.5376 36.9548 42.2722C36.2359 43.0067 35.832 44.0029 35.832 45.0417C35.832 46.0804 36.2359 47.0766 36.9548 47.8112C37.6737 48.5457 38.6487 48.9583 39.6653 48.9583H51.1653C52.182 48.9583 53.157 48.5457 53.8759 47.8112C54.5948 47.0766 54.9987 46.0804 54.9987 45.0417C54.9987 44.0029 54.5948 43.0067 53.8759 42.2722C53.157 41.5376 52.182 41.125 51.1653 41.125H39.6653ZM39.6653 52.875C38.6487 52.875 37.6737 53.2876 36.9548 54.0222C36.2359 54.7567 35.832 55.7529 35.832 56.7917C35.832 57.8304 36.2359 58.8267 36.9548 59.5612C37.6737 60.2957 38.6487 60.7083 39.6653 60.7083H51.1653C52.182 60.7083 53.157 60.2957 53.8759 59.5612C54.5948 58.8267 54.9987 57.8304 54.9987 56.7917C54.9987 55.7529 54.5948 54.7567 53.8759 54.0222C53.157 53.2876 52.182 52.875 51.1653 52.875H39.6653ZM31.9987 45.0417C31.9987 46.0804 31.5948 47.0766 30.8759 47.8112C30.157 48.5457 29.182 48.9583 28.1653 48.9583C27.1487 48.9583 26.1737 48.5457 25.4548 47.8112C24.7359 47.0766 24.332 46.0804 24.332 45.0417C24.332 44.0029 24.7359 43.0067 25.4548 42.2722C26.1737 41.5376 27.1487 41.125 28.1653 41.125C29.182 41.125 30.157 41.5376 30.8759 42.2722C31.5948 43.0067 31.9987 44.0029 31.9987 45.0417ZM28.1653 60.7083C29.182 60.7083 30.157 60.2957 30.8759 59.5612C31.5948 58.8267 31.9987 57.8304 31.9987 56.7917C31.9987 55.7529 31.5948 54.7567 30.8759 54.0222C30.157 53.2876 29.182 52.875 28.1653 52.875C27.1487 52.875 26.1737 53.2876 25.4548 54.0222C24.7359 54.7567 24.332 55.7529 24.332 56.7917C24.332 57.8304 24.7359 58.8267 25.4548 59.5612C26.1737 60.2957 27.1487 60.7083 28.1653 60.7083Z" fill="#DC9F2C"/>
<path d="M28.1667 0C27.15 0 26.175 0.412647 25.4561 1.14716C24.7372 1.88168 24.3333 2.8779 24.3333 3.91667H16.6667C14.6333 3.91667 12.6833 4.74196 11.2455 6.211C9.80774 7.68003 9 9.67247 9 11.75V70.5C9 72.5775 9.80774 74.57 11.2455 76.039C12.6833 77.508 14.6333 78.3333 16.6667 78.3333H62.6667C64.7 78.3333 66.65 77.508 68.0878 76.039C69.5256 74.57 70.3333 72.5775 70.3333 70.5V11.75C70.3333 9.67247 69.5256 7.68003 68.0878 6.211C66.65 4.74196 64.7 3.91667 62.6667 3.91667H55C55 2.8779 54.5961 1.88168 53.8772 1.14716C53.1584 0.412647 52.1833 0 51.1667 0H28.1667ZM55 11.75H62.6667V70.5H16.6667V11.75H24.3333V15.6667C24.3333 16.7054 24.7372 17.7016 25.4561 18.4362C26.175 19.1707 27.15 19.5833 28.1667 19.5833H51.1667C52.1833 19.5833 53.1584 19.1707 53.8772 18.4362C54.5961 17.7016 55 16.7054 55 15.6667V11.75ZM32 11.75V7.83333H47.3333V11.75H32Z" fill="#DC9F2C"/>
<path d="M0 65C0 62.2386 2.23858 60 5 60H71V82H5C2.23858 82 0 79.7614 0 77V65Z" fill="#D81B21"/>
</svg>
