<svg width="30" height="30" viewBox="0 0 30 30" fill="none" xmlns="http://www.w3.org/2000/svg">
<path d="M15.5 0C8.55339 0 3 4.99805 3 11.25C3 13.4121 3.71615 15.082 4.95964 16.7754L14.1849 29.373C14.4648 29.7539 14.9466 30 15.5 30C16.0534 30 16.5417 29.748 16.8151 29.373L26.0404 16.7754C27.2839 15.082 28 13.4121 28 11.25C28 4.99805 22.4466 0 15.5 0ZM15.5 17.4961C11.6654 17.4961 8.55339 14.6953 8.55339 11.2383C8.55339 7.78125 11.6654 4.98047 15.5 4.98047C19.3346 4.98047 22.4466 7.78125 22.4466 11.2383C22.4466 14.6953 19.3346 17.4961 15.5 17.4961Z" fill="black"/>
</svg>
