<svg width="24" height="24" viewBox="0 0 24 24" fill="none" xmlns="http://www.w3.org/2000/svg">
<g clip-path="url(#clip0_6_1356)">
<path d="M2.87993 9.00033H1.01317C0.951373 9.00029 0.891591 9.02232 0.844598 9.06246C0.797606 9.1026 0.766492 9.15819 0.756865 9.21924L0.00186531 14.0061C-0.00160566 14.0283 -0.00022107 14.051 0.00592305 14.0726C0.0120672 14.0943 0.022825 14.1143 0.0374562 14.1314C0.0520875 14.1484 0.0702443 14.1621 0.0906766 14.1715C0.111109 14.1809 0.133331 14.1857 0.155813 14.1857H1.04702C1.10886 14.1857 1.16867 14.1637 1.21567 14.1235C1.26267 14.0833 1.29376 14.0276 1.30333 13.9665L1.50695 12.6754C1.51651 12.6144 1.54756 12.5587 1.5945 12.5186C1.64144 12.4784 1.70119 12.4563 1.76299 12.4562H2.35394C3.58361 12.4562 4.2933 11.8612 4.47864 10.682C4.56216 10.1661 4.48218 9.76079 4.24062 9.47691C3.9753 9.16519 3.50472 9.00033 2.87993 9.00033ZM3.09529 10.7486C2.9932 11.4185 2.48141 11.4185 1.98654 11.4185H1.70484L1.90247 10.1675C1.90825 10.1309 1.92691 10.0976 1.95508 10.0735C1.98325 10.0494 2.01909 10.0362 2.05614 10.0362H2.18525C2.52235 10.0362 2.84035 10.0362 3.00467 10.2284C3.10266 10.343 3.13268 10.5133 3.09529 10.7486ZM8.45999 10.7271H7.56606C7.529 10.7271 7.49317 10.7403 7.46499 10.7643C7.43682 10.7884 7.41817 10.8217 7.41238 10.8583L7.3728 11.1084L7.31029 11.0178C7.11677 10.7369 6.68522 10.643 6.2545 10.643C5.26666 10.643 4.42295 11.3912 4.25863 12.4407C4.1732 12.9642 4.29466 13.4648 4.59164 13.8139C4.86405 14.1349 5.25383 14.2687 5.71759 14.2687C6.51353 14.2687 6.9549 13.7569 6.9549 13.7569L6.91505 14.0053C6.9115 14.0275 6.91281 14.0502 6.91888 14.0718C6.92495 14.0935 6.93565 14.1136 6.95023 14.1307C6.96481 14.1478 6.98293 14.1616 7.00334 14.171C7.02375 14.1805 7.04596 14.1854 7.06845 14.1854H7.87368C7.93552 14.1855 7.99533 14.1634 8.04233 14.1232C8.08933 14.083 8.12042 14.0273 8.12999 13.9662L8.61312 10.9067C8.61667 10.8845 8.61538 10.8618 8.60932 10.8402C8.60326 10.8186 8.59258 10.7986 8.57802 10.7815C8.56346 10.7644 8.54537 10.7507 8.52499 10.7413C8.50461 10.7319 8.48243 10.727 8.45999 10.7271ZM7.21394 12.4669C7.12769 12.9776 6.72235 13.3204 6.20536 13.3204C5.94578 13.3204 5.73833 13.2372 5.60513 13.0794C5.47302 12.9227 5.4228 12.6997 5.46483 12.4513C5.54535 11.945 5.95752 11.591 6.46658 11.591C6.72043 11.591 6.92679 11.6753 7.06272 11.8344C7.19893 11.9952 7.25297 12.2196 7.21394 12.4669ZM13.2209 10.7271H12.3226C12.2802 10.7271 12.2385 10.7375 12.2011 10.7574C12.1637 10.7772 12.1316 10.8059 12.1078 10.8409L10.8688 12.6659L10.3437 10.9121C10.3275 10.8586 10.2946 10.8118 10.2498 10.7784C10.205 10.7451 10.1506 10.7271 10.0947 10.7271H9.21199C9.18721 10.727 9.16277 10.7328 9.14071 10.7441C9.11865 10.7554 9.09961 10.7718 9.08516 10.7919C9.07072 10.8121 9.06129 10.8354 9.05766 10.8599C9.05404 10.8844 9.05632 10.9094 9.06432 10.9329L10.0538 13.8366L9.12355 15.1498C9.10702 15.1731 9.09721 15.2004 9.09521 15.2289C9.0932 15.2574 9.09907 15.2859 9.11218 15.3113C9.12529 15.3366 9.14513 15.3579 9.16952 15.3728C9.19391 15.3876 9.22192 15.3955 9.25047 15.3954H10.1477C10.1896 15.3955 10.2309 15.3854 10.268 15.366C10.3051 15.3466 10.337 15.3185 10.3609 15.2841L13.3487 10.9714C13.3648 10.948 13.3743 10.9207 13.3761 10.8924C13.3779 10.864 13.3719 10.8357 13.3587 10.8105C13.3455 10.7854 13.3257 10.7643 13.3015 10.7496C13.2772 10.7349 13.2493 10.7271 13.2209 10.7271Z" fill="#D9D9D9"/>
<path d="M16.1964 9.00027H14.3294C14.2676 9.0003 14.2079 9.02236 14.1609 9.06249C14.114 9.10262 14.0829 9.15819 14.0733 9.21918L13.3183 14.006C13.3148 14.0282 13.3161 14.0509 13.3222 14.0725C13.3283 14.0941 13.339 14.1141 13.3536 14.1312C13.3682 14.1483 13.3863 14.162 13.4067 14.1714C13.4271 14.1808 13.4493 14.1856 13.4717 14.1856H14.4298C14.473 14.1856 14.5148 14.1701 14.5476 14.142C14.5805 14.1139 14.6022 14.0749 14.6089 14.0322L14.8231 12.6754C14.8327 12.6143 14.8637 12.5587 14.9107 12.5185C14.9576 12.4783 15.0174 12.4562 15.0792 12.4562H15.6698C16.8998 12.4562 17.6092 11.8611 17.7948 10.682C17.8786 10.1661 17.7981 9.76073 17.5565 9.47686C17.2915 9.16514 16.8212 9.00027 16.1964 9.00027ZM16.4117 10.7486C16.3099 11.4184 15.7981 11.4184 15.303 11.4184H15.0216L15.2195 10.1674C15.2251 10.1308 15.2437 10.0975 15.2719 10.0734C15.3 10.0493 15.3358 10.0361 15.3729 10.0361H15.502C15.8388 10.0361 16.1571 10.0361 16.3214 10.2283C16.4194 10.3429 16.4491 10.5133 16.4117 10.7486ZM21.7762 10.727H20.8828C20.8457 10.7269 20.8099 10.7401 20.7817 10.7642C20.7536 10.7883 20.735 10.8217 20.7294 10.8583L20.6898 11.1083L20.627 11.0177C20.4335 10.7368 20.0022 10.6429 19.5715 10.6429C18.5837 10.6429 17.7402 11.3911 17.5759 12.4406C17.4907 12.9642 17.6117 13.4648 17.9086 13.8139C18.1816 14.1349 18.5708 14.2686 19.0346 14.2686C19.8305 14.2686 20.2719 13.7568 20.2719 13.7568L20.2321 14.0052C20.2285 14.0275 20.2298 14.0502 20.2359 14.0719C20.242 14.0936 20.2528 14.1137 20.2674 14.1309C20.282 14.148 20.3002 14.1617 20.3207 14.1712C20.3412 14.1806 20.3635 14.1854 20.386 14.1854H21.1909C21.2527 14.1853 21.3125 14.1632 21.3594 14.123C21.4064 14.0829 21.4374 14.0272 21.447 13.9662L21.9304 10.9066C21.9338 10.8844 21.9324 10.8617 21.9262 10.84C21.92 10.8184 21.9093 10.7984 21.8946 10.7813C21.8799 10.7643 21.8618 10.7506 21.8413 10.7412C21.8209 10.7318 21.7987 10.727 21.7762 10.727ZM20.5301 12.4668C20.4444 12.9775 20.0385 13.3204 19.5215 13.3204C19.2625 13.3204 19.0545 13.2371 18.9213 13.0793C18.7892 12.9227 18.7395 12.6997 18.781 12.4513C18.8621 11.9449 19.2737 11.5909 19.7828 11.5909C20.0366 11.5909 20.243 11.6753 20.3789 11.8344C20.5157 11.9952 20.5697 12.2195 20.5301 12.4668ZM22.8301 9.13157L22.0639 14.006C22.0604 14.0282 22.0617 14.0509 22.0678 14.0725C22.0739 14.0941 22.0846 14.1141 22.0992 14.1312C22.1138 14.1483 22.1319 14.162 22.1522 14.1714C22.1726 14.1808 22.1948 14.1856 22.2173 14.1856H22.9876C23.1156 14.1856 23.2242 14.0928 23.2439 13.9665L23.9994 9.17988C24.0029 9.15769 24.0016 9.13501 23.9955 9.11339C23.9894 9.09176 23.9787 9.07172 23.9641 9.05463C23.9495 9.03754 23.9314 9.0238 23.911 9.01437C23.8907 9.00494 23.8685 9.00004 23.846 9H22.9835C22.9464 9.00013 22.9107 9.01344 22.8825 9.03755C22.8544 9.06166 22.8358 9.09499 22.8301 9.13157Z" fill="#D9D9D9"/>
</g>
<defs>
<clipPath id="clip0_6_1356">
<rect width="24.0012" height="24" fill="white"/>
</clipPath>
</defs>
</svg>
