<svg width="24" height="24" viewBox="0 0 24 24" fill="none" xmlns="http://www.w3.org/2000/svg">
<g clip-path="url(#clip0_10_4462)">
<path fill-rule="evenodd" clip-rule="evenodd" d="M17.1916 4.69565H21.3913L23.7885 22.4348L24 24H22.4206H1.57944H0L0.211516 22.4348L2.6087 4.69565H6.80837C7.07014 2.05914 9.2946 0 12 0C14.7054 0 16.9299 2.05914 17.1916 4.69565ZM15.6152 4.69565C15.362 2.92576 13.8399 1.56522 12 1.56522C10.1601 1.56522 8.63798 2.92576 8.38481 4.69565H15.6152ZM1.79096 22.4348L3.97662 6.26087L6.78176 6.26087V8.08686C6.46495 8.32483 6.26002 8.7037 6.26002 9.13043C6.26002 9.8508 6.844 10.4348 7.56437 10.4348C8.28474 10.4348 8.86872 9.8508 8.86872 9.13043C8.86872 8.7037 8.66379 8.32483 8.34698 8.08686V6.26087L8.34783 6.26087H15.6522L15.6537 6.26087V8.08686C15.3369 8.32483 15.132 8.7037 15.132 9.13043C15.132 9.8508 15.7159 10.4348 16.4363 10.4348C17.1567 10.4348 17.7407 9.8508 17.7407 9.13043C17.7407 8.7037 17.5357 8.32483 17.2189 8.08686V6.26087L20.0234 6.26087L22.209 22.4348H1.79096Z" fill="#DB2A30"/>
</g>
<defs>
<clipPath id="clip0_10_4462">
<rect width="24" height="24" fill="white"/>
</clipPath>
</defs>
</svg>
