<svg width="24" height="24" viewBox="0 0 24 24" fill="none" xmlns="http://www.w3.org/2000/svg">
<g clip-path="url(#clip0_6_1386)">
<path d="M11.8832 8.13924L10.2803 15.6348H8.34062L9.94585 8.13924H11.8832ZM20.0429 12.9789L21.0632 10.1638L21.6514 12.9789H20.0429ZM22.2059 15.6348H24L22.4348 8.13924H20.7791C20.7767 8.13924 20.7735 8.13924 20.7711 8.13924C20.4038 8.13924 20.0886 8.3641 19.9557 8.68338L19.9533 8.68898L17.0445 15.6348H19.0803L19.4852 14.5145H21.9731L22.2059 15.6348ZM17.1446 13.1878C17.1526 11.2089 14.4086 11.1 14.4278 10.2158C14.4342 9.94692 14.6895 9.66044 15.2497 9.58762C15.3537 9.57722 15.4737 9.57082 15.5954 9.57082C16.1643 9.57082 16.7037 9.70045 17.1838 9.93252L17.1622 9.92291L17.5023 8.33289C16.9637 8.12403 16.3404 8.0024 15.689 8H15.6882C13.7709 8 12.4225 9.02027 12.4105 10.4791C12.3985 11.5577 13.3732 12.1587 14.1086 12.5188C14.8648 12.8861 15.1184 13.1222 15.1144 13.4495C15.1096 13.9536 14.5127 14.1744 13.9541 14.1832C13.9285 14.184 13.8973 14.184 13.8669 14.184C13.1699 14.184 12.5137 14.0088 11.9408 13.6991L11.9624 13.7095L11.6111 15.3516C12.2401 15.6036 12.9691 15.7493 13.7325 15.7493C13.7445 15.7493 13.7565 15.7493 13.7685 15.7493H13.7669C15.8042 15.7493 17.1366 14.7434 17.1438 13.1854L17.1446 13.1878ZM9.11203 8.13924L5.97039 15.6348H3.92025L2.37423 9.65164C2.34463 9.36036 2.16618 9.1171 1.91811 8.99547L1.91331 8.99306C1.36276 8.72259 0.722593 8.50253 0.0528142 8.3641L0 8.35529L0.0464124 8.13844H3.34649C3.79621 8.13844 4.16991 8.46732 4.23953 8.89704L4.24033 8.90184L5.05735 13.2398L7.07549 8.13764L9.11203 8.13924Z" fill="#D9D9D9"/>
</g>
<defs>
<clipPath id="clip0_6_1386">
<rect width="24" height="24" fill="white"/>
</clipPath>
</defs>
</svg>
