<svg width="51" height="13" viewBox="0 0 51 13" fill="none" xmlns="http://www.w3.org/2000/svg">
<path d="M24.3024 5.63454V10H23.3794V5.63454H24.3024ZM25.0618 5.63454H26.2L27.4022 8.56758H27.4534L28.6556 5.63454H29.7938V10H28.8986V7.15862H28.8624L27.7326 9.97868H27.123L25.9933 7.14796H25.957V10H25.0618V5.63454ZM33.449 7.04564C33.4191 6.94191 33.3772 6.85025 33.3232 6.77067C33.2692 6.68967 33.2031 6.62146 33.125 6.56604C33.0482 6.5092 32.9601 6.46586 32.8606 6.43601C32.7626 6.40617 32.6539 6.39125 32.5345 6.39125C32.3114 6.39125 32.1153 6.44667 31.9462 6.55751C31.7785 6.66836 31.6478 6.82964 31.554 7.04138C31.4602 7.2517 31.4133 7.5089 31.4133 7.81301C31.4133 8.11711 31.4595 8.37574 31.5519 8.5889C31.6442 8.80206 31.775 8.96477 31.9441 9.07703C32.1132 9.18787 32.3128 9.24329 32.543 9.24329C32.7519 9.24329 32.9303 9.20635 33.0781 9.13245C33.2273 9.05714 33.341 8.95127 33.4191 8.81485C33.4987 8.67843 33.5385 8.51714 33.5385 8.33098L33.7261 8.35869H32.6006V7.6638H34.4273V8.21374C34.4273 8.59743 34.3463 8.92711 34.1843 9.20279C34.0223 9.47705 33.7992 9.68879 33.515 9.838C33.2308 9.98579 32.9054 10.0597 32.5388 10.0597C32.1295 10.0597 31.77 9.96945 31.4602 9.78897C31.1504 9.60708 30.9088 9.34916 30.7355 9.01521C30.5635 8.67985 30.4775 8.28195 30.4775 7.82154C30.4775 7.46769 30.5287 7.15222 30.631 6.87512C30.7348 6.59659 30.8797 6.3607 31.0659 6.16744C31.252 5.97417 31.4687 5.8271 31.716 5.7262C31.9633 5.62531 32.2311 5.57486 32.5196 5.57486C32.7669 5.57486 32.9971 5.6111 33.2102 5.68357C33.4234 5.75462 33.6124 5.85552 33.7772 5.98625C33.9435 6.11699 34.0792 6.27259 34.1843 6.45307C34.2895 6.63212 34.357 6.82964 34.3868 7.04564H33.449ZM36.5099 10V5.63454H39.4003V6.39551H37.4329V7.43572H39.2085V8.19669H37.4329V10H36.5099ZM41.243 10.0639C40.9119 10.0639 40.6256 9.99361 40.384 9.85292C40.1439 9.71082 39.9584 9.51329 39.8277 9.26035C39.6969 9.00598 39.6316 8.71111 39.6316 8.37574C39.6316 8.03753 39.6969 7.74196 39.8277 7.48901C39.9584 7.23464 40.1439 7.03712 40.384 6.89643C40.6256 6.75433 40.9119 6.68328 41.243 6.68328C41.5741 6.68328 41.8598 6.75433 42.0999 6.89643C42.3415 7.03712 42.5277 7.23464 42.6584 7.48901C42.7891 7.74196 42.8545 8.03753 42.8545 8.37574C42.8545 8.71111 42.7891 9.00598 42.6584 9.26035C42.5277 9.51329 42.3415 9.71082 42.0999 9.85292C41.8598 9.99361 41.5741 10.0639 41.243 10.0639ZM41.2473 9.36053C41.3979 9.36053 41.5237 9.3179 41.6246 9.23263C41.7255 9.14595 41.8015 9.028 41.8527 8.87879C41.9053 8.72958 41.9315 8.55977 41.9315 8.36935C41.9315 8.17893 41.9053 8.00911 41.8527 7.8599C41.8015 7.71069 41.7255 7.59275 41.6246 7.50606C41.5237 7.41938 41.3979 7.37604 41.2473 7.37604C41.0953 7.37604 40.9674 7.41938 40.8636 7.50606C40.7613 7.59275 40.6839 7.71069 40.6313 7.8599C40.5801 8.00911 40.5545 8.17893 40.5545 8.36935C40.5545 8.55977 40.5801 8.72958 40.6313 8.87879C40.6839 9.028 40.7613 9.14595 40.8636 9.23263C40.9674 9.3179 41.0953 9.36053 41.2473 9.36053ZM44.9243 10.0639C44.5932 10.0639 44.3068 9.99361 44.0652 9.85292C43.8251 9.71082 43.6396 9.51329 43.5089 9.26035C43.3782 9.00598 43.3128 8.71111 43.3128 8.37574C43.3128 8.03753 43.3782 7.74196 43.5089 7.48901C43.6396 7.23464 43.8251 7.03712 44.0652 6.89643C44.3068 6.75433 44.5932 6.68328 44.9243 6.68328C45.2554 6.68328 45.541 6.75433 45.7812 6.89643C46.0227 7.03712 46.2089 7.23464 46.3396 7.48901C46.4704 7.74196 46.5357 8.03753 46.5357 8.37574C46.5357 8.71111 46.4704 9.00598 46.3396 9.26035C46.2089 9.51329 46.0227 9.71082 45.7812 9.85292C45.541 9.99361 45.2554 10.0639 44.9243 10.0639ZM44.9285 9.36053C45.0792 9.36053 45.2049 9.3179 45.3058 9.23263C45.4067 9.14595 45.4827 9.028 45.5339 8.87879C45.5865 8.72958 45.6128 8.55977 45.6128 8.36935C45.6128 8.17893 45.5865 8.00911 45.5339 7.8599C45.4827 7.71069 45.4067 7.59275 45.3058 7.50606C45.2049 7.41938 45.0792 7.37604 44.9285 7.37604C44.7765 7.37604 44.6486 7.41938 44.5448 7.50606C44.4425 7.59275 44.3651 7.71069 44.3125 7.8599C44.2613 8.00911 44.2358 8.17893 44.2358 8.36935C44.2358 8.55977 44.2613 8.72958 44.3125 8.87879C44.3651 9.028 44.4425 9.14595 44.5448 9.23263C44.6486 9.3179 44.7765 9.36053 44.9285 9.36053ZM48.3326 10.0533C48.084 10.0533 47.8587 9.98934 47.6569 9.86145C47.4566 9.73213 47.2974 9.54242 47.1795 9.29232C47.0629 9.04079 47.0047 8.73243 47.0047 8.36722C47.0047 7.99206 47.0651 7.68014 47.1859 7.43146C47.3066 7.18135 47.4672 6.99449 47.6676 6.87086C47.8694 6.7458 48.0904 6.68328 48.3305 6.68328C48.5138 6.68328 48.6666 6.71454 48.7888 6.77707C48.9124 6.83817 49.0119 6.91491 49.0872 7.00728C49.164 7.09822 49.2222 7.18775 49.262 7.27585H49.2897V5.63454H50.1956V10H49.3004V9.47563H49.262C49.2194 9.56658 49.159 9.65682 49.0808 9.74634C49.0041 9.83445 48.9039 9.90763 48.7803 9.96589C48.6581 10.0242 48.5089 10.0533 48.3326 10.0533ZM48.6204 9.33069C48.7668 9.33069 48.8904 9.2909 48.9913 9.21132C49.0936 9.13032 49.1718 9.01735 49.2258 8.8724C49.2812 8.72745 49.3089 8.55764 49.3089 8.36295C49.3089 8.16827 49.2819 7.99917 49.2279 7.85564C49.1739 7.71211 49.0957 7.60127 48.9934 7.52312C48.8911 7.44496 48.7668 7.40588 48.6204 7.40588C48.4712 7.40588 48.3454 7.44638 48.2431 7.52738C48.1408 7.60838 48.0634 7.72064 48.0108 7.86417C47.9582 8.00769 47.9319 8.17395 47.9319 8.36295C47.9319 8.55337 47.9582 8.72177 48.0108 8.86814C48.0648 9.01308 48.1422 9.12677 48.2431 9.20919C48.3454 9.29019 48.4712 9.33069 48.6204 9.33069Z" fill="#333333"/>
<g clip-path="url(#clip0_126_226)">
<path fill-rule="evenodd" clip-rule="evenodd" d="M20.3722 8.16644C20.5495 8.49623 20.6436 8.88406 20.6233 9.29606C20.5724 10.3355 19.7919 11.1743 18.8282 11.2252C18.5519 11.2399 18.2875 11.1899 18.0469 11.0881C18.203 11.124 18.3666 11.1388 18.5341 11.13C19.4977 11.0792 20.2782 10.2404 20.3291 9.2009C20.3494 8.7889 20.2553 8.40107 20.0781 8.07128L20.0825 8.07034C20.3125 8.02495 20.4157 7.73228 20.2725 7.53307C20.0061 7.16209 19.6465 6.8713 19.2295 6.70312C19.7718 6.83807 20.2394 7.17285 20.5666 7.62838C20.7098 7.82776 20.6066 8.12026 20.3767 8.16566L20.3722 8.16644Z" fill="url(#paint0_linear_126_226)"/>
<path fill-rule="evenodd" clip-rule="evenodd" d="M20.1407 8.06662C20.3707 8.02122 20.4739 7.72856 20.3307 7.52934C20.0643 7.15836 19.7047 6.86757 19.2877 6.6994C19.0733 6.61313 18.8434 6.55915 18.6034 6.54324C18.5958 6.54262 18.5878 6.54199 18.5802 6.54168C18.5167 6.53825 18.4534 6.53731 18.3908 6.5395C18.3885 6.5395 18.3861 6.5395 18.3837 6.53981C18.2831 6.54262 18.1838 6.55276 18.0867 6.56961C18.2311 5.22673 17.2201 4.28243 16.3949 3.25125H16.9375C16.9463 3.25125 16.9548 3.25094 16.9634 3.25063C16.9713 3.25 16.979 3.24938 16.9866 3.24875C16.9869 3.24844 16.9872 3.24844 16.9875 3.24844C17.118 3.23409 17.1884 3.16217 17.226 3.05422C17.2633 2.94626 17.2683 2.80258 17.2683 2.64549V2.32272C17.2683 2.10883 17.2592 1.91991 17.1711 1.81196C17.1296 1.7611 17.0708 1.7285 16.9875 1.71929C16.984 1.71898 16.9801 1.71867 16.9764 1.71836C16.9722 1.71804 16.9684 1.71773 16.9644 1.71742C16.9556 1.7168 16.9467 1.7168 16.9376 1.7168H16.3043C16.0252 1.7168 15.792 1.93957 15.7497 2.22849C15.6803 2.25454 15.625 2.29073 15.5839 2.34658C15.5801 2.35204 15.5762 2.35766 15.5725 2.36374L14.0566 2.50493C13.934 2.51632 13.8172 2.62739 13.7973 2.75407C13.777 2.88136 13.861 2.97778 13.9837 2.96639L14.1005 2.95562L14.1776 2.94829L15.4976 2.82552C15.4976 2.83066 15.4979 2.83566 15.4982 2.8408C15.4985 2.84455 15.4985 2.84876 15.4988 2.85282C15.5002 2.88261 15.502 2.91444 15.5047 2.94735C15.5124 3.0486 15.5255 3.16451 15.5439 3.2968C15.6604 4.13532 16.2872 5.11674 16.3258 6.04512C16.3559 6.78021 16.0603 7.56928 15.4628 8.12559L14.6405 8.15164H13.666C13.666 8.15164 13.666 8.15164 13.6657 8.15164H13.372C13.372 8.15164 13.372 8.15164 13.3718 8.15164C13.2833 6.71485 12.0244 6.67896 12.4084 6.22765C12.6324 5.96478 12.934 5.75792 13.113 5.59068H13.1269C13.3372 5.59068 13.5092 5.40504 13.5092 5.17805V4.56605C13.5092 4.43906 13.4554 4.32487 13.3707 4.24905C13.3045 4.18977 13.2196 4.15389 13.1269 4.15389H9.83969C9.62939 4.15389 9.45768 4.33922 9.45768 4.56621V5.0559H5.45804C5.32925 5.0559 5.22461 5.16854 5.22461 5.30785C5.22461 5.37743 5.25077 5.44014 5.29312 5.48585C5.33518 5.53125 5.39372 5.55948 5.45804 5.55948H7.63911L7.7929 5.65464L8.6607 6.1913C7.95608 6.6877 7.13988 7.29268 7.31274 8.21747C7.35986 8.2117 7.40597 8.20577 7.4515 8.19969C7.3444 8.45366 7.27675 8.72464 7.2503 9.00139C7.23238 9.19094 7.40265 9.33649 7.5693 9.2744L7.57248 9.27315C7.64778 10.1688 8.26293 10.9001 9.06194 11.0839C9.18927 11.1131 9.32095 11.1287 9.45623 11.1287C9.50538 11.1287 9.55409 11.1268 9.60236 11.1226C10.3405 11.061 10.9622 10.5393 11.22 9.82353C11.3633 9.82291 11.4509 9.81683 11.5452 9.78578C11.6664 9.74584 11.7388 9.68859 11.8778 9.57845L11.9167 9.54772C11.922 9.54397 11.9267 9.54039 11.9317 9.53633L11.9505 9.52135L15.3208 9.5084C15.6117 9.43071 15.851 9.25646 16.1 8.86692C16.0974 8.89859 16.095 8.93072 16.0935 8.9627C16.0891 9.05631 16.0894 9.14897 16.0944 9.24008C16.0959 9.26987 16.0979 9.29967 16.1003 9.32931C16.1038 9.37253 16.1086 9.41496 16.1142 9.45755C16.1412 9.66316 16.3221 9.79748 16.5056 9.75942C16.5189 9.75723 16.5324 9.75333 16.5457 9.74896C16.5627 9.74319 16.5795 9.73726 16.596 9.73149C16.6292 9.71948 16.6613 9.70762 16.6927 9.69561C16.6994 9.71885 16.7068 9.74194 16.7142 9.76488C16.7247 9.79732 16.7363 9.82931 16.7483 9.86097C16.9833 10.4767 17.4896 10.943 18.1051 11.0842C18.2612 11.1201 18.4248 11.1349 18.5923 11.1262C18.6099 11.1252 18.6276 11.124 18.6452 11.1227C19.5844 11.0447 20.3373 10.2176 20.3872 9.19718C20.4074 8.78517 20.3133 8.39735 20.1361 8.06755L20.1407 8.06662ZM10.6189 8.9276C10.6248 8.98002 10.628 9.03291 10.628 9.08688C10.628 9.12526 10.6263 9.16332 10.6229 9.20077L10.4151 9.19983C10.4186 9.1627 10.4207 9.12495 10.4207 9.08688C10.4207 9.02979 10.4163 8.97394 10.408 8.91902C10.4771 8.92324 10.5472 8.92636 10.6189 8.9276ZM9.44915 5.55948C9.42241 5.59115 9.39264 5.62297 9.36012 5.65464C9.30418 5.70956 9.23986 5.76478 9.16962 5.82063C9.1475 5.83842 9.12496 5.85589 9.10168 5.87367C9.08116 5.88927 9.05991 5.90534 9.03852 5.92125L8.45329 5.55948H9.44915ZM9.45652 10.3518C9.39336 10.3518 9.33121 10.3463 9.27094 10.3358C8.71317 10.2394 8.28461 9.71542 8.28461 9.08688C8.28461 9.07191 8.2849 9.0574 8.28548 9.04242C8.35818 9.02308 8.42814 9.0056 8.49607 8.99C8.49376 9.02199 8.49231 9.05412 8.49231 9.08688C8.49231 9.32182 8.56502 9.53914 8.68758 9.71371C8.73528 9.78126 8.79021 9.84288 8.85135 9.89623L8.85163 9.89654C8.98634 10.014 9.15097 10.0936 9.33092 10.119C9.37211 10.1248 9.41389 10.1276 9.45652 10.1276C9.50653 10.1276 9.55539 10.1235 9.60323 10.1156C9.81209 10.0809 9.99897 9.97345 10.1413 9.81823L10.4105 9.81979C10.3937 9.84522 10.3761 9.86987 10.3579 9.89373C10.2758 10.0004 10.1779 10.0922 10.0682 10.1647C9.92945 10.2568 9.77176 10.319 9.60294 10.3415C9.55495 10.3483 9.5061 10.3518 9.45652 10.3518ZM18.4984 10.3518C18.4355 10.3518 18.3733 10.3463 18.3131 10.3355C17.8423 10.2546 17.4635 9.86799 17.3568 9.37159C17.4221 9.33228 17.4853 9.29218 17.5464 9.25162C17.572 9.4237 17.6368 9.58204 17.7306 9.71495C17.7783 9.7825 17.8332 9.84381 17.8943 9.89717C17.8943 9.89748 17.8946 9.89748 17.8946 9.89748C18.0293 10.0146 18.1934 10.0933 18.3728 10.1187C18.4139 10.1248 18.4557 10.1276 18.4984 10.1276C18.5484 10.1276 18.5978 10.1235 18.6456 10.1156C19.1076 10.0385 19.4629 9.60622 19.4629 9.08688C19.4629 8.78985 19.3464 8.52059 19.1599 8.33089C19.2302 8.30577 19.304 8.28112 19.3811 8.25694C19.4208 8.30608 19.4569 8.3585 19.4893 8.41373C19.5158 8.4585 19.5396 8.50546 19.5601 8.55397C19.6307 8.71591 19.6701 8.89671 19.6701 9.08688C19.6701 9.39437 19.5675 9.67689 19.3972 9.89654C19.3162 10.0015 19.2193 10.092 19.1111 10.1641C18.9723 10.2564 18.8146 10.3187 18.6458 10.3415C18.5974 10.3483 18.5484 10.3518 18.4984 10.3518Z" fill="url(#paint1_linear_126_226)"/>
<path fill-rule="evenodd" clip-rule="evenodd" d="M13.8029 4.56841V5.1801C13.8029 5.40709 13.6309 5.59273 13.4206 5.59273H13.4067C13.2276 5.75997 12.9263 5.96699 12.7021 6.2297C12.3181 6.68102 13.577 6.7169 13.6654 8.15369H13.3718C13.3718 8.15369 13.3718 8.15369 13.3715 8.15369C13.283 6.7169 12.0241 6.68102 12.4081 6.2297C12.6322 5.96683 12.9337 5.75997 13.1127 5.59273H13.1266C13.3369 5.59273 13.5089 5.40709 13.5089 5.1801V4.56841C13.5089 4.44142 13.4551 4.32723 13.3704 4.25141C13.3043 4.19213 13.2193 4.15625 13.1266 4.15625H13.4207C13.5134 4.15625 13.5984 4.19213 13.6646 4.25141C13.749 4.32723 13.8029 4.44142 13.8029 4.56841Z" fill="url(#paint2_linear_126_226)"/>
<path fill-rule="evenodd" clip-rule="evenodd" d="M16.0946 9.24246C15.9443 9.38302 15.7887 9.46398 15.615 9.51063L12.2447 9.52358L12.2259 9.53855C12.2208 9.54261 12.2162 9.5462 12.2109 9.54994L12.172 9.58067C12.0329 9.69081 11.9605 9.74791 11.8394 9.788C11.745 9.81905 11.6574 9.82513 11.5142 9.82576C11.2396 10.5881 10.5517 11.1309 9.7504 11.1309C9.70068 11.1309 9.65125 11.1287 9.60254 11.1248C10.3407 11.0632 10.9623 10.5415 11.2202 9.82576C11.3634 9.82513 11.451 9.81905 11.5454 9.788C11.6665 9.74807 11.7389 9.69081 11.878 9.58067L11.9169 9.54994C11.9222 9.5462 11.9268 9.54261 11.9319 9.53855L11.9507 9.52358L15.321 9.51063C15.6118 9.43294 15.8512 9.25868 16.1002 8.86914C16.0976 8.90081 16.0952 8.93295 16.0937 8.96493C16.0892 9.05869 16.0895 9.15135 16.0946 9.24246Z" fill="url(#paint3_linear_126_226)"/>
<path fill-rule="evenodd" clip-rule="evenodd" d="M18.3909 6.54199C18.288 6.5448 18.1863 6.55494 18.0868 6.5721C18.2312 5.22922 17.2202 4.28493 16.395 3.25374H16.9376C16.9464 3.25374 16.955 3.25343 16.9635 3.25312C16.9714 3.2525 16.9791 3.25187 16.9868 3.25125C16.987 3.25094 16.9873 3.25094 16.9876 3.25094C17.1181 3.23658 17.1885 3.16467 17.2261 3.05671C17.2634 2.94876 17.2685 2.80508 17.2685 2.64798V2.32521C17.2685 2.11133 17.2594 1.92241 17.1712 1.81445H17.2317C17.2409 1.81445 17.2497 1.81445 17.2585 1.81508C17.2627 1.81539 17.2664 1.8157 17.2705 1.81601C17.2742 1.81633 17.2781 1.81664 17.2816 1.81695C17.5428 1.84581 17.5624 2.10602 17.5624 2.42037V2.74314C17.5624 2.90024 17.5574 3.04407 17.5201 3.15187C17.4825 3.25983 17.4121 3.3319 17.2816 3.3461C17.2813 3.3461 17.281 3.3461 17.2807 3.34641C17.2731 3.34703 17.2654 3.34766 17.2575 3.34828C17.2489 3.34859 17.2404 3.34891 17.2316 3.34891H16.689C17.4884 4.3478 18.4621 5.2651 18.3909 6.54199Z" fill="url(#paint4_linear_126_226)"/>
<path d="M7.30205 2.57584C6.41257 2.65961 5.68887 3.44961 5.51774 4.47892H5.13428C5.31278 3.38549 6.11468 2.56055 7.07744 2.56055C7.15318 2.56055 7.22819 2.56569 7.30205 2.57584Z" fill="url(#paint5_linear_126_226)"/>
<path d="M9.02044 4.48121H5.51758C5.68871 3.4519 6.41241 2.6619 7.30189 2.57812C8.16247 2.69466 8.85582 3.47421 9.02044 4.48121Z" fill="url(#paint6_linear_126_226)"/>
<path d="M7.24756 2.52304C7.24756 2.41009 7.17124 2.31836 7.07715 2.31836C6.98305 2.31836 6.90674 2.40993 6.90674 2.52304C6.90674 2.53661 6.90789 2.54987 6.90992 2.56266H7.077H7.24409C7.2464 2.54987 7.24756 2.53661 7.24756 2.52304Z" fill="url(#paint7_linear_126_226)"/>
<path d="M9.12182 4.65234H5.03328C4.97446 4.65234 4.92676 4.7096 4.92676 4.78027C4.92676 4.85094 4.97446 4.90819 5.03328 4.90819H9.12182C9.18064 4.90819 9.22834 4.85094 9.22834 4.78027C9.22834 4.7096 9.18064 4.65234 9.12182 4.65234Z" fill="url(#paint8_linear_126_226)"/>
<path d="M6.84277 7.57617H4.58553C4.5267 7.57617 4.479 7.62765 4.479 7.69115C4.479 7.75464 4.5267 7.80612 4.58553 7.80612H6.84277C6.9016 7.80612 6.9493 7.75464 6.9493 7.69115C6.9493 7.62765 6.9016 7.57617 6.84277 7.57617Z" fill="url(#paint9_linear_126_226)"/>
<path d="M4.20216 7.57617H3.75496C3.69614 7.57617 3.64844 7.62765 3.64844 7.69115C3.64844 7.75464 3.69614 7.80612 3.75496 7.80612H4.20216C4.26099 7.80612 4.30869 7.75464 4.30869 7.69115C4.30869 7.62765 4.26099 7.57617 4.20216 7.57617Z" fill="url(#paint10_linear_126_226)"/>
<path d="M4.62849 4.79662C4.62849 4.73312 4.5808 4.68164 4.52197 4.68164H2.26473C2.2059 4.68164 2.1582 4.73312 2.1582 4.79662C2.1582 4.86011 2.2059 4.91159 2.26473 4.91159H4.52197C4.5808 4.91159 4.62849 4.86011 4.62849 4.79662Z" fill="url(#paint11_linear_126_226)"/>
<path d="M1.88122 4.68164H1.43416C1.37533 4.68164 1.32764 4.73312 1.32764 4.79662C1.32764 4.86011 1.37533 4.91159 1.43416 4.91159H1.88136C1.94019 4.91159 1.98788 4.86011 1.98788 4.79662C1.98774 4.73312 1.94004 4.68164 1.88122 4.68164Z" fill="url(#paint12_linear_126_226)"/>
<path d="M4.73474 6.7263C4.73474 6.66281 4.68705 6.61133 4.62822 6.61133H3.56356C3.50473 6.61133 3.45703 6.66281 3.45703 6.7263C3.45703 6.7898 3.50473 6.84128 3.56356 6.84128H4.62822C4.68719 6.84112 4.73474 6.78964 4.73474 6.7263Z" fill="url(#paint13_linear_126_226)"/>
<path d="M6.92813 6.61133H4.99031C4.93149 6.61133 4.88379 6.66281 4.88379 6.7263C4.88379 6.7898 4.93149 6.84128 4.99031 6.84128H6.92813C6.98695 6.84128 7.03465 6.7898 7.03465 6.7263C7.03465 6.66281 6.98695 6.61133 6.92813 6.61133Z" fill="url(#paint14_linear_126_226)"/>
<path d="M3.1797 6.61133H2.7325C2.67367 6.61133 2.62598 6.66281 2.62598 6.7263C2.62598 6.7898 2.67367 6.84128 2.7325 6.84128H3.1797C3.23853 6.84128 3.28622 6.7898 3.28622 6.7263C3.28622 6.66281 3.23853 6.61133 3.1797 6.61133Z" fill="url(#paint15_linear_126_226)"/>
<path d="M2.79695 5.64648C2.73813 5.64648 2.69043 5.69797 2.69043 5.76146C2.69043 5.82495 2.73813 5.87643 2.79695 5.87643H3.86162C3.92044 5.87643 3.96814 5.82495 3.96814 5.76146C3.96814 5.69797 3.92044 5.64648 3.86162 5.64648H2.79695Z" fill="url(#paint16_linear_126_226)"/>
<path d="M4.13867 5.76146C4.13867 5.82495 4.18637 5.87643 4.2452 5.87643H4.6924C4.75122 5.87643 4.79892 5.82495 4.79892 5.76146C4.79892 5.69797 4.75122 5.64648 4.6924 5.64648H4.2452C4.18637 5.64648 4.13867 5.69797 4.13867 5.76146Z" fill="url(#paint17_linear_126_226)"/>
<path d="M12.5683 3.92571H12.2658C12.187 3.45348 12.0364 3.00373 11.8138 2.58798C11.1678 1.38066 9.99189 0.596588 8.50229 0.381147C8.22824 0.341522 7.94943 0.321865 7.6683 0.321865C7.58158 0.321865 7.49486 0.323737 7.4077 0.327637C6.22524 0.377715 5.00607 0.768816 3.88243 1.46896C2.40714 2.38798 1.27714 3.72836 0.699571 5.24332C0.127925 6.7436 0.168829 8.23469 0.814478 9.44216C1.46056 10.6495 2.63652 11.4335 4.12627 11.649C4.55554 11.7112 4.99638 11.7242 5.44098 11.6892C6.3546 11.6181 7.28557 11.3462 8.17317 10.8872C8.19933 10.9091 8.22636 10.9307 8.25339 10.951C8.32132 11.0025 8.39186 11.0492 8.46456 11.091C7.49804 11.6175 6.47529 11.9298 5.47076 12.0094C5.29991 12.0231 5.12936 12.0299 4.95967 12.0299C4.66496 12.0299 4.37357 12.0094 4.08666 11.9677C2.5034 11.7387 1.24939 10.8986 0.556334 9.603C-0.136723 8.30739 -0.183842 6.71537 0.423938 5.12085C1.02623 3.54038 2.20132 2.14461 3.73341 1.19018C4.90055 0.462737 6.16974 0.0571269 7.40178 0.00564567C7.78668 -0.0105787 8.1684 0.00814173 8.54189 0.062119C10.1252 0.291289 11.3787 1.13106 12.0719 2.42698C12.3189 2.88844 12.4836 3.38765 12.566 3.91136C12.5668 3.91619 12.5674 3.92103 12.5683 3.92571Z" fill="url(#paint18_linear_126_226)"/>
</g>
<defs>
<linearGradient id="paint0_linear_126_226" x1="18.047" y1="8.96533" x2="20.6322" y2="8.96533" gradientUnits="userSpaceOnUse">
<stop stop-color="#ED1C24"/>
<stop offset="1" stop-color="#FBB03B"/>
</linearGradient>
<linearGradient id="paint1_linear_126_226" x1="5.2246" y1="6.42265" x2="20.3964" y2="6.42265" gradientUnits="userSpaceOnUse">
<stop stop-color="#FBB03B"/>
<stop offset="1" stop-color="#FF3008"/>
</linearGradient>
<linearGradient id="paint2_linear_126_226" x1="12.3354" y1="6.15491" x2="13.8029" y2="6.15491" gradientUnits="userSpaceOnUse">
<stop stop-color="#ED1C24"/>
<stop offset="0.1321" stop-color="#F03D29"/>
<stop offset="0.322" stop-color="#F46630"/>
<stop offset="0.5079" stop-color="#F78635"/>
<stop offset="0.6864" stop-color="#F99D38"/>
<stop offset="0.8541" stop-color="#FBAB3A"/>
<stop offset="1" stop-color="#FBB03B"/>
</linearGradient>
<linearGradient id="paint3_linear_126_226" x1="9.6025" y1="10.0001" x2="16.1001" y2="10.0001" gradientUnits="userSpaceOnUse">
<stop stop-color="#ED1C24"/>
<stop offset="0.1321" stop-color="#F03D29"/>
<stop offset="0.322" stop-color="#F46630"/>
<stop offset="0.5079" stop-color="#F78635"/>
<stop offset="0.6864" stop-color="#F99D38"/>
<stop offset="0.8541" stop-color="#FBAB3A"/>
<stop offset="1" stop-color="#FBB03B"/>
</linearGradient>
<linearGradient id="paint4_linear_126_226" x1="16.3952" y1="4.19325" x2="18.3946" y2="4.19325" gradientUnits="userSpaceOnUse">
<stop stop-color="#ED1C24"/>
<stop offset="1" stop-color="#FBB03B"/>
</linearGradient>
<linearGradient id="paint5_linear_126_226" x1="7.31006" y1="3.50957" x2="5.12599" y2="3.52839" gradientUnits="userSpaceOnUse">
<stop stop-color="#FF350A"/>
<stop offset="1" stop-color="#FF350A"/>
</linearGradient>
<linearGradient id="paint6_linear_126_226" x1="18.5837" y1="3.42503" x2="2.07731" y2="3.5673" gradientUnits="userSpaceOnUse">
<stop stop-color="#FF350A"/>
<stop offset="1" stop-color="#FF390B"/>
</linearGradient>
<linearGradient id="paint7_linear_126_226" x1="19.622" y1="2.31543" x2="1.30854" y2="2.47327" gradientUnits="userSpaceOnUse">
<stop stop-color="#FF3409"/>
<stop offset="1" stop-color="#FF350A"/>
</linearGradient>
<linearGradient id="paint8_linear_126_226" x1="19.6425" y1="4.65409" x2="1.3291" y2="4.81194" gradientUnits="userSpaceOnUse">
<stop stop-color="#C1272D"/>
<stop offset="1" stop-color="#ED1C24"/>
</linearGradient>
<linearGradient id="paint9_linear_126_226" x1="62.5227" y1="7.12063" x2="-6.00413" y2="7.71127" gradientUnits="userSpaceOnUse">
<stop stop-color="#C1272D"/>
<stop offset="1" stop-color="#ED1C24"/>
</linearGradient>
<linearGradient id="paint10_linear_126_226" x1="19.1604" y1="7.5386" x2="0.84696" y2="7.69645" gradientUnits="userSpaceOnUse">
<stop stop-color="#C1272D"/>
<stop offset="1" stop-color="#ED1C24"/>
</linearGradient>
<linearGradient id="paint11_linear_126_226" x1="60.202" y1="4.22621" x2="-8.3249" y2="4.81685" gradientUnits="userSpaceOnUse">
<stop stop-color="#C1272D"/>
<stop offset="1" stop-color="#ED1C24"/>
</linearGradient>
<linearGradient id="paint12_linear_126_226" x1="16.8395" y1="4.64418" x2="-1.47395" y2="4.80202" gradientUnits="userSpaceOnUse">
<stop stop-color="#C1272D"/>
<stop offset="1" stop-color="#ED1C24"/>
</linearGradient>
<linearGradient id="paint13_linear_126_226" x1="33.4798" y1="6.43119" x2="-1.96522" y2="6.7367" gradientUnits="userSpaceOnUse">
<stop stop-color="#C1272D"/>
<stop offset="1" stop-color="#ED1C24"/>
</linearGradient>
<linearGradient id="paint14_linear_126_226" x1="55.4219" y1="6.22958" x2="-4.24373" y2="6.74385" gradientUnits="userSpaceOnUse">
<stop stop-color="#C1272D"/>
<stop offset="1" stop-color="#ED1C24"/>
</linearGradient>
<linearGradient id="paint15_linear_126_226" x1="18.138" y1="6.5738" x2="-0.175473" y2="6.73164" gradientUnits="userSpaceOnUse">
<stop stop-color="#C1272D"/>
<stop offset="1" stop-color="#ED1C24"/>
</linearGradient>
<linearGradient id="paint16_linear_126_226" x1="32.7131" y1="5.46638" x2="-2.73194" y2="5.77189" gradientUnits="userSpaceOnUse">
<stop stop-color="#C1272D"/>
<stop offset="1" stop-color="#ED1C24"/>
</linearGradient>
<linearGradient id="paint17_linear_126_226" x1="19.6506" y1="5.60898" x2="1.33712" y2="5.76683" gradientUnits="userSpaceOnUse">
<stop stop-color="#C1272D"/>
<stop offset="1" stop-color="#ED1C24"/>
</linearGradient>
<linearGradient id="paint18_linear_126_226" x1="12.5857" y1="5.95206" x2="-0.0110141" y2="6.06063" gradientUnits="userSpaceOnUse">
<stop stop-color="#FBB03B"/>
<stop offset="1" stop-color="#FF350A"/>
</linearGradient>
<clipPath id="clip0_126_226">
<rect width="20.6316" height="12.0301" fill="white"/>
</clipPath>
</defs>
</svg>
