<svg width="56" height="46" viewBox="0 0 56 46" fill="none" xmlns="http://www.w3.org/2000/svg">
<g clip-path="url(#clip0_123_152)">
<path d="M50.8367 15.6918C49.8277 12.663 48.0563 10.1023 45.81 8.14168L46.5368 7.2594L46.8478 7.51631C47.1352 7.75463 47.387 7.78336 47.5847 7.54335L48.1003 6.91797C48.298 6.67796 48.2372 6.41767 47.9498 6.18104L45.183 3.89588C44.8956 3.65756 44.6742 3.68629 44.4765 3.9263L43.9609 4.55168C43.7632 4.79169 43.7936 4.99452 44.0809 5.23284L44.4393 5.52862L43.6516 6.4819L43.9508 6.72867C41.522 5.12635 38.7061 4.13758 35.7685 3.90264L35.733 2.31553L36.2705 2.3037C36.7674 2.29187 37.0463 2.10257 37.0378 1.68847L37.0125 0.608424C37.0023 0.194323 36.715 -0.0152632 36.2181 -0.00343177L31.4382 0.108122C30.9413 0.119953 30.7435 0.339681 30.752 0.753782L30.7773 1.83383C30.7875 2.24793 30.9937 2.42709 31.4906 2.41526L32.1092 2.40174L32.1464 4.00405C31.0782 4.14603 30.0083 4.38604 28.9485 4.7376C27.3699 5.26326 25.9197 6.00019 24.6131 6.89938L23.9844 6.03907L24.3106 5.80075C24.6114 5.58102 24.7027 5.34439 24.5185 5.09255L24.0401 4.43844C23.8559 4.1866 23.5889 4.18153 23.288 4.40294L20.391 6.52077C20.0901 6.7405 20.0614 6.96192 20.2456 7.21207L20.7239 7.86618C20.9082 8.11802 21.111 8.1383 21.4136 7.91858L21.7888 7.64476L22.497 8.61494C17.7914 13.0991 15.8071 20.0644 17.9926 26.6292C20.4569 34.0289 27.4645 38.6652 34.8862 38.4674C36.7623 38.4167 38.6672 38.0584 40.5298 37.3569C44.4376 35.8865 47.6963 33.0283 49.6671 29.3487C51.937 25.1063 52.3494 20.2351 50.8367 15.6918ZM48.1543 27.9594L46.8292 27.2563C46.6585 27.165 46.4439 27.241 46.3695 27.4253C46.3053 27.5842 46.3864 27.7667 46.5385 27.8478L47.8501 28.5425C46.6872 30.662 45.0697 32.4435 43.1209 33.7822C42.9908 34.007 42.7626 34.1472 42.4752 34.2047C41.4763 34.8199 40.3997 35.327 39.2571 35.7056C38.0604 36.1045 36.8502 36.3428 35.6468 36.4409L35.6434 36.3868C35.4237 36.4104 35.2023 36.4138 34.9842 36.4104L34.9876 36.4797C34.9352 36.4814 34.8828 36.4848 34.8304 36.4865C32.4371 36.5507 30.0928 36.0437 27.9733 35.0616L28.5969 33.8041C28.673 33.6503 28.6324 33.4543 28.4871 33.3613C28.3197 33.2565 28.1017 33.3207 28.0155 33.4931L27.3817 34.7726C25.2622 33.6774 23.3962 32.0919 21.9679 30.111L23.1224 29.3285C23.2643 29.2321 23.3252 29.0411 23.2441 28.8907C23.1494 28.7166 22.928 28.6642 22.7691 28.7724L21.5961 29.5685C20.8845 28.4833 20.298 27.2918 19.8687 26.0021C19.5205 24.9576 19.2957 23.9029 19.1774 22.8499L20.5617 22.7383C20.7307 22.7248 20.8761 22.5896 20.8811 22.4206C20.8862 22.2211 20.7223 22.0622 20.5245 22.0808L19.1166 22.1958C18.9526 19.7534 19.3853 17.3483 20.3166 15.1611L21.586 15.7493C21.6299 15.7696 21.6772 15.7797 21.7246 15.7797C21.8699 15.7797 22.0102 15.6817 22.0474 15.5211C22.0829 15.3673 21.995 15.2118 21.8513 15.1459L20.5887 14.5611C21.6181 12.4061 23.1443 10.4928 25.0762 9.00538L25.9061 10.1615C25.9704 10.2511 26.0718 10.2984 26.1749 10.2984C26.2425 10.2984 26.3118 10.2764 26.3709 10.2325C26.518 10.1226 26.5366 9.90795 26.4301 9.75921L25.607 8.61325C26.7969 7.7766 28.1051 7.09545 29.5536 6.61374C30.921 6.15907 32.1684 5.90216 33.7064 5.83962V7.2932C33.7064 7.47574 33.9093 7.62279 34.0901 7.62279C34.2727 7.62279 34.4738 7.47574 34.4738 7.2932V5.82948C36.4733 5.8261 39.1422 6.36527 41.3124 7.45208C41.3952 7.49264 41.4561 7.53828 41.5372 7.58223L40.8019 8.86678C40.7124 9.02566 40.7631 9.2268 40.9219 9.31638C40.9727 9.34511 41.0267 9.35864 41.0808 9.35864C41.1958 9.35864 41.3056 9.29779 41.3665 9.1913L42.0966 7.89829C44.2229 9.12708 45.9943 10.819 47.3008 12.8489L46.0281 13.6146C45.8793 13.7042 45.81 13.8935 45.8844 14.049C45.9419 14.169 46.0602 14.2366 46.1819 14.2366C46.2393 14.2366 46.2985 14.2214 46.3509 14.1893L47.6422 13.4118C48.1746 14.3245 48.6175 15.2963 48.9589 16.3206C49.395 17.6305 49.6468 18.9725 49.7229 20.3163L48.2135 20.3703C47.9972 20.3754 47.8349 20.5563 47.9126 20.7946C47.9566 20.9281 48.0867 21.0177 48.227 21.0177H48.2304L49.7465 20.9856C49.7702 23.3536 49.2361 25.7723 48.1543 27.9594Z" fill="white"/>
<path d="M34.3184 8.82812L33.5511 21.0821L27.0269 15.7833L33.1133 22.8721C33.3043 23.0935 33.5815 23.2219 33.8739 23.2219H34.1562C34.7342 23.2219 35.1923 22.7335 35.1551 22.1571L34.3184 8.82812Z" fill="white"/>
<path d="M55.9763 39.294C56.5054 31.8622 47.7552 28.9145 47.7552 28.9145C46.403 25.0828 43.1578 23.3621 42.8671 23.2218C42.8164 23.1728 42.8417 23.0528 42.9178 23.0477L43.3336 23.0021C43.8457 22.9683 44.2361 22.6404 44.3409 22.2043C44.5353 21.3998 44.6925 20.0358 44.0874 18.6498C43.915 18.2543 43.484 18.0092 43.0327 18.0397L39.8957 18.2459C39.1942 18.2915 38.5148 18.4994 37.9165 18.8476L35.0566 20.5192C34.7929 20.673 34.6425 20.9519 34.6645 21.2426C34.6645 21.2426 34.7203 22.0032 34.722 22.0066C34.7338 22.1722 33.2075 22.3581 33.0402 22.4325C32.3236 22.7503 32.1782 23.8675 33.1213 23.9892C33.5895 24.05 33.9191 23.7509 34.2741 23.5227C34.6358 23.2894 35.0397 23.0917 35.4217 22.8905C36.282 22.4376 37.1643 22.0252 38.0263 21.5773C38.2072 21.4826 38.3035 21.3018 38.3272 21.1091C38.3644 20.7981 38.8173 20.7322 38.9492 21.0212C39.0421 21.2223 39.0489 21.4674 38.8393 21.7344L35.8307 23.2827C35.7074 23.3469 35.7057 23.5109 35.8257 23.5802C37.095 24.3154 38.1869 25.3583 38.9965 26.5346C40.1999 28.2874 41.187 30.6233 40.5515 32.7529C39.9379 34.8116 37.766 36.3429 35.5045 36.3429C32.5669 36.3429 30.1871 33.9817 30.1871 31.0678C30.1871 29.8711 30.5894 28.9652 31.2672 28.0812C31.7793 27.4135 31.2722 26.6884 30.3866 26.6884H20.7896C19.4273 26.6884 17.7016 27.3189 17.7016 28.5764V29.4114C16.8565 30.0063 16.5218 30.674 16.0975 31.372L0 32.0244L15.5651 32.6498C15.4553 32.9372 15.3775 33.2262 15.3015 33.5135L1.96402 34.051L15.0902 34.58C15.0344 34.9451 15.0006 35.3001 14.9786 35.6398L4.11735 36.0776L14.9533 36.5136C14.9533 36.7114 14.9567 36.899 14.9617 37.0765C14.9888 37.9419 14.0135 37.7813 13.4034 37.8066C12.5836 37.8404 11.7639 37.8726 10.9441 37.9064C9.3046 37.9723 7.6651 38.0382 6.02559 38.1041C8.85162 38.2174 11.6777 38.3323 14.5037 38.4455C14.0913 38.4303 14.3702 41.6417 14.4597 41.9223C14.573 42.2756 14.6575 42.3313 14.9955 42.0068V41.9798C15.5026 40.9994 16.9663 40.8355 18.2035 40.6496L18.2103 40.7797C18.2069 40.8963 18.2255 40.9724 18.239 41.0873C18.2576 41.3206 18.3151 41.5488 18.3692 41.7769C18.4706 42.1234 18.6092 42.4632 18.7833 42.7826L8.31921 43.1021L19.2261 43.435C19.3089 43.5365 19.3968 43.6311 19.4864 43.7258L10.4658 44.0013L20.1304 44.2954C20.2977 44.4204 20.4735 44.5337 20.6544 44.6385L12.1357 44.8988L22.0302 45.1996C23.4162 45.5613 24.9492 45.4143 26.2405 44.6621C26.9233 44.2632 27.4507 43.7528 27.8344 43.2457C28.382 42.5189 28.7335 41.591 28.8248 40.702C28.8434 40.5127 28.8485 40.4146 28.8485 40.4146H28.8333C28.8299 39.6169 28.7843 39.3498 28.6997 38.9205C32.8678 38.9205 37.4533 38.836 41.5943 38.836C41.5893 38.9306 41.5859 38.983 41.5859 39.0777C41.5859 39.152 41.591 39.2552 41.5927 39.2552C41.6096 39.9312 41.4659 40.462 41.6434 41.013C41.7566 41.3662 41.8699 41.422 42.2079 41.0975V41.0772C42.5459 40.1003 44.0806 39.938 45.3449 39.7538L45.3466 39.938C45.3432 40.0546 45.3584 40.1307 45.3737 40.2456C45.3922 40.4789 45.448 40.707 45.5021 40.9352C45.6154 41.3223 45.7742 41.6958 45.9787 42.0474C45.9787 42.0474 46.3438 42.666 46.6396 42.9381C46.6616 42.955 46.6819 42.9719 46.6988 42.9888C46.6988 42.9888 47.194 43.4012 47.5777 43.6734C47.7028 43.7528 47.8312 43.8305 47.9614 43.8998C48.2014 43.9641 48.531 44.4306 49.8814 44.5151L50.1012 44.5218C51.215 44.6233 52.3677 44.4069 53.3734 43.8204C54.0563 43.4215 54.5836 42.9111 54.9673 42.404C55.5149 41.6772 55.8665 40.8051 55.9577 39.916C55.9763 39.7267 55.9814 39.6845 55.9814 39.6845C55.9814 39.6845 55.978 39.4867 55.9763 39.4174C55.9763 39.4022 55.9763 39.294 55.9763 39.294ZM26.112 41.4575C25.9836 41.8479 25.7791 42.2536 25.4883 42.5578C24.912 43.1612 24.0601 43.4587 23.2099 43.4621C21.2611 43.4688 19.8532 42.1708 19.5084 40.4146H21.469C21.4555 40.4146 21.4487 40.6479 21.4487 40.7239C21.4487 41.4862 22.1029 42.1471 22.9108 42.1471C23.7187 42.1471 24.3728 41.4643 24.3728 40.702C24.3728 40.6259 24.3644 40.4129 24.3525 40.4129H26.3385C26.3368 40.5735 26.134 41.3916 26.112 41.4575ZM53.2433 40.5837C53.1148 40.9741 52.9103 41.3933 52.6196 41.6992C52.0432 42.3026 51.1914 42.6913 50.3412 42.6947C48.3755 42.7015 46.9608 41.3307 46.6295 39.5712L46.6278 39.458H48.4769C48.4667 39.458 48.46 39.6997 48.46 39.7673C48.46 40.5296 49.1141 41.2057 49.922 41.2057C50.7299 41.2057 51.384 40.5025 51.384 39.7402C51.384 39.6743 51.3773 39.4597 51.3671 39.4597H53.4478C53.5441 39.4563 53.2686 40.5076 53.2433 40.5837Z" fill="#FF3008"/>
<path d="M20.6559 44.6387L12.1372 44.899L21.7207 45.1914L21.5635 45.068C21.1748 44.9277 20.9533 44.7671 20.6559 44.6387Z" fill="white"/>
<path d="M0 32.0238L15.5398 32.6492C15.6834 32.2182 15.866 31.7871 16.0942 31.373L0 32.0238Z" fill="white"/>
<path d="M13.4032 37.8066C12.5834 37.8404 11.7636 37.8725 10.9439 37.9063C9.3044 37.9722 7.66489 38.0382 6.02539 38.1041C8.82607 38.2173 11.6251 38.3289 14.4257 38.4421L14.6133 37.6934C14.2787 37.8438 13.7733 37.7931 13.4032 37.8066Z" fill="white"/>
<path d="M18.6683 42.7871L8.3208 43.1032L19.2277 43.4361C19.2463 43.4581 19.2649 43.4801 19.2852 43.5021C19.1601 43.3415 19.0164 43.1336 18.915 42.9832L18.6683 42.7871Z" fill="white"/>
<path d="M10.4673 44.0001L20.1319 44.2942C20.1573 44.3128 20.1826 44.3297 20.208 44.3466C19.9071 44.11 19.613 43.8176 19.4879 43.7246L10.4673 44.0001Z" fill="white"/>
<path d="M15.2965 33.5137L1.9624 34.0512L15.0886 34.5802C15.0328 34.9453 14.999 35.3002 14.977 35.64L4.11573 36.0777L14.9077 36.5121L14.9804 36.2214C15.0007 35.4743 15.0649 34.5143 15.2965 33.5137Z" fill="white"/>
<path d="M38.8359 44.1754L49.8815 44.5117C48.5327 44.4272 48.2014 43.9607 47.9614 43.8965L38.8359 44.1754Z" fill="white"/>
<path d="M35.0024 42.3815L46.435 42.7314V42.7213C46.435 42.7956 46.5499 42.8683 46.6395 42.9376C46.3437 42.6655 45.9787 42.0469 45.9787 42.0469L35.0024 42.3815Z" fill="white"/>
<path d="M37.1592 43.279L47.4559 43.5934C47.4965 43.6204 47.5388 43.6458 47.5793 43.6728C47.1956 43.4024 46.7004 42.9883 46.7004 42.9883L37.1592 43.279Z" fill="white"/>
</g>
<defs>
<clipPath id="clip0_123_152">
<rect width="56" height="45.3889" fill="white"/>
</clipPath>
</defs>
</svg>
