<svg width="57" height="50" viewBox="0 0 57 50" fill="none" xmlns="http://www.w3.org/2000/svg">
<g clip-path="url(#clip0_124_170)">
<path d="M39.9608 15.4077C39.2272 13.2056 37.9394 11.3438 36.3062 9.91835L36.8346 9.27688L37.0607 9.46367C37.2696 9.63694 37.4527 9.65783 37.5965 9.48333L37.9713 9.02865C38.1151 8.85415 38.0708 8.66491 37.8619 8.49286L35.8503 6.83144C35.6414 6.65817 35.4804 6.67906 35.3366 6.85355L34.9618 7.30824C34.818 7.48274 34.8401 7.6302 35.0491 7.80347L35.3096 8.01852L34.7369 8.7116L34.9544 8.89102C33.1886 7.72605 31.1413 7.00716 29.0055 6.83635L28.9797 5.68244L29.3705 5.67384C29.7317 5.66524 29.9345 5.52761 29.9284 5.22653L29.9099 4.44129C29.9026 4.14022 29.6937 3.98784 29.3324 3.99644L25.8571 4.07754C25.4958 4.08615 25.3521 4.2459 25.3582 4.54697L25.3766 5.33222C25.384 5.63329 25.5339 5.76355 25.8952 5.75495L26.345 5.74512L26.372 6.91008C25.5954 7.01331 24.8175 7.18781 24.047 7.44341C22.8992 7.82559 21.8449 8.36137 20.895 9.01513L20.4378 8.38964L20.675 8.21637C20.8937 8.05662 20.9601 7.88457 20.8261 7.70147L20.4784 7.2259C20.3444 7.0428 20.1503 7.03911 19.9315 7.2001L17.8253 8.73987C17.6065 8.89962 17.5856 9.0606 17.7196 9.24247L18.0673 9.71804C18.2013 9.90115 18.3488 9.91589 18.5687 9.75614L18.8415 9.55706L19.3564 10.2624C15.9353 13.5226 14.4926 18.5868 16.0815 23.3597C17.8732 28.7397 22.9681 32.1105 28.364 31.9667C29.7281 31.9298 31.113 31.6693 32.4672 31.1593C35.3083 30.0902 37.6776 28.0122 39.1105 25.3369C40.7608 22.2525 41.0607 18.7109 39.9608 15.4077ZM38.0106 24.3268L37.0472 23.8156C36.9231 23.7492 36.767 23.8045 36.7129 23.9385C36.6662 24.054 36.7252 24.1867 36.8358 24.2457L37.7894 24.7508C36.944 26.2918 35.7679 27.587 34.3511 28.5603C34.2564 28.7237 34.0905 28.8257 33.8816 28.8675C33.1554 29.3148 32.3726 29.6834 31.5419 29.9587C30.6718 30.2487 29.792 30.422 28.917 30.4933L28.9146 30.4539C28.7548 30.4712 28.5938 30.4736 28.4353 30.4712L28.4378 30.5215C28.3997 30.5228 28.3616 30.5252 28.3235 30.5265C26.5834 30.5731 24.879 30.2045 23.338 29.4905L23.7914 28.5762C23.8467 28.4644 23.8172 28.3219 23.7115 28.2543C23.5899 28.1781 23.4313 28.2248 23.3687 28.3501L22.9078 29.2804C21.3668 28.4841 20.0102 27.3314 18.9718 25.8912L19.8111 25.3222C19.9143 25.2522 19.9586 25.1133 19.8996 25.0039C19.8308 24.8773 19.6698 24.8393 19.5543 24.9179L18.7014 25.4967C18.1841 24.7078 17.7577 23.8414 17.4455 22.9038C17.1924 22.1443 17.0289 21.3775 16.9429 20.612L17.9494 20.5308C18.0723 20.521 18.1779 20.4227 18.1816 20.2998C18.1853 20.1548 18.0661 20.0393 17.9223 20.0528L16.8987 20.1364C16.7795 18.3607 17.0941 16.612 17.7712 15.0218L18.6941 15.4495C18.726 15.4642 18.7604 15.4716 18.7948 15.4716C18.9005 15.4716 19.0025 15.4003 19.0295 15.2836C19.0554 15.1718 18.9914 15.0587 18.887 15.0108L17.969 14.5856C18.7174 13.0188 19.8271 11.6277 21.2317 10.5463L21.835 11.3868C21.8817 11.452 21.9555 11.4864 22.0304 11.4864C22.0796 11.4864 22.13 11.4704 22.173 11.4385C22.2799 11.3586 22.2934 11.2025 22.216 11.0944L21.6175 10.2612C22.4827 9.65291 23.4338 9.15768 24.4869 8.80745C25.4811 8.47689 26.388 8.2901 27.5063 8.24463V9.30146C27.5063 9.43418 27.6537 9.54109 27.7852 9.54109C27.9179 9.54109 28.0642 9.43418 28.0642 9.30146V8.23726C29.5179 8.2348 31.4583 8.62681 33.0362 9.41697C33.0964 9.44646 33.1406 9.47964 33.1996 9.51159L32.6651 10.4455C32.5999 10.561 32.6368 10.7073 32.7523 10.7724C32.7892 10.7933 32.8285 10.8031 32.8678 10.8031C32.9514 10.8031 33.0313 10.7589 33.0755 10.6815L33.6064 9.74139C35.1523 10.6348 36.4401 11.8649 37.39 13.3407L36.4647 13.8974C36.3566 13.9626 36.3062 14.1002 36.3603 14.2132C36.402 14.3005 36.4881 14.3496 36.5765 14.3496C36.6183 14.3496 36.6613 14.3386 36.6994 14.3152L37.6383 13.75C38.0254 14.4135 38.3473 15.1201 38.5956 15.8648C38.9126 16.8172 39.0957 17.7929 39.151 18.7699L38.0536 18.8092C37.8963 18.8129 37.7784 18.9444 37.8349 19.1176C37.8668 19.2147 37.9615 19.2799 38.0635 19.2799H38.0659L39.1682 19.2565C39.1854 20.9782 38.7971 22.7367 38.0106 24.3268Z" fill="white"/>
<path d="M27.9512 10.418L27.3933 19.3273L22.6499 15.4748L27.0751 20.6286C27.2139 20.7896 27.4155 20.883 27.628 20.883H27.8333C28.2535 20.883 28.5866 20.5279 28.5595 20.1088L27.9512 10.418Z" fill="white"/>
<path d="M43.6976 32.5701C44.0823 27.1668 37.7204 25.0236 37.7204 25.0236C36.7373 22.2378 34.3779 20.9868 34.1665 20.8848C34.1297 20.8492 34.1481 20.7619 34.2034 20.7582L34.5057 20.725C34.878 20.7005 35.1619 20.4621 35.2381 20.145C35.3794 19.5601 35.4937 18.5684 35.0538 17.5607C34.9284 17.2731 34.6151 17.095 34.287 17.1171L32.0062 17.267C31.4962 17.3002 31.0022 17.4513 30.5672 17.7045L28.4879 18.9198C28.2962 19.0317 28.1869 19.2344 28.2028 19.4458C28.2028 19.4458 28.2434 19.9988 28.2446 20.0012C28.2532 20.1217 27.1436 20.2568 27.0219 20.3109C26.5009 20.5419 26.3952 21.3542 27.0809 21.4427C27.4213 21.4869 27.6609 21.2694 27.919 21.1035C28.1819 20.9339 28.4756 20.7902 28.7534 20.6439C29.3789 20.3146 30.0203 20.0148 30.6471 19.6891C30.7785 19.6203 30.8486 19.4888 30.8658 19.3487C30.8928 19.1226 31.2222 19.0747 31.318 19.2848C31.3856 19.431 31.3905 19.6092 31.2381 19.8034L29.0508 20.929C28.961 20.9757 28.9598 21.0949 29.0471 21.1453C29.9699 21.6799 30.7638 22.4381 31.3524 23.2934C32.2274 24.5677 32.945 26.266 32.483 27.8144C32.0369 29.3111 30.4578 30.4245 28.8136 30.4245C26.6778 30.4245 24.9476 28.7078 24.9476 26.5892C24.9476 25.7192 25.24 25.0605 25.7328 24.4178C26.1052 23.9324 25.7365 23.4052 25.0926 23.4052H18.1151C17.1246 23.4052 15.8699 23.8636 15.8699 24.7778V25.3849C15.2555 25.8175 15.0122 26.3029 14.7037 26.8104L3 27.2847L14.3166 27.7394C14.2368 27.9483 14.1802 28.1585 14.1249 28.3674L4.42794 28.7581L13.9713 29.1428C13.9308 29.4082 13.9062 29.6663 13.8902 29.9133L5.99352 30.2316L13.8718 30.5486C13.8718 30.6924 13.8742 30.8288 13.8779 30.9578C13.8976 31.587 13.1885 31.4702 12.7449 31.4887C12.1489 31.5133 11.5529 31.5366 10.9569 31.5612C9.76491 31.6091 8.57291 31.657 7.38091 31.705C9.43558 31.7873 11.4902 31.8709 13.5449 31.9532C13.2451 31.9421 13.4478 34.277 13.513 34.481C13.5953 34.7378 13.6567 34.7784 13.9025 34.5424V34.5228C14.2712 33.81 15.3354 33.6908 16.2349 33.5556L16.2398 33.6503C16.2374 33.7351 16.2509 33.7904 16.2607 33.8739C16.2742 34.0435 16.316 34.2094 16.3553 34.3753C16.4291 34.6272 16.5298 34.8742 16.6564 35.1065L9.04848 35.3387L16.9784 35.5808C17.0386 35.6545 17.1025 35.7234 17.1676 35.7922L10.6091 35.9925L17.6358 36.2063C17.7575 36.2972 17.8853 36.3796 18.0168 36.4558L11.8233 36.645L19.0171 36.8637C20.0247 37.1267 21.1393 37.0198 22.0782 36.473C22.5746 36.183 22.958 35.8118 23.237 35.4432C23.6351 34.9148 23.8907 34.2401 23.9571 33.5937C23.9706 33.4561 23.9743 33.3848 23.9743 33.3848H23.9632C23.9608 32.8048 23.9276 32.6106 23.8662 32.2985C26.8965 32.2985 30.2305 32.2371 33.2412 32.2371C33.2375 32.3059 33.235 32.344 33.235 32.4128C33.235 32.4669 33.2387 32.5418 33.24 32.5418C33.2523 33.0334 33.1478 33.4192 33.2768 33.8198C33.3592 34.0767 33.4415 34.1172 33.6873 33.8813V33.8665C33.933 33.1563 35.0489 33.0383 35.968 32.9043L35.9693 33.0383C35.9668 33.1231 35.9779 33.1784 35.9889 33.2619C36.0025 33.4315 36.043 33.5974 36.0823 33.7633C36.1647 34.0447 36.2802 34.3163 36.4289 34.5719C36.4289 34.5719 36.6943 35.0217 36.9094 35.2195C36.9253 35.2318 36.9401 35.2441 36.9524 35.2564C36.9524 35.2564 37.3124 35.5562 37.5914 35.7541C37.6823 35.8118 37.7757 35.8684 37.8703 35.9187C38.0448 35.9654 38.2845 36.3046 39.2663 36.3661L39.4261 36.371C40.2359 36.4447 41.074 36.2874 41.8052 35.861C42.3016 35.571 42.685 35.1999 42.964 34.8312C43.3621 34.3028 43.6177 33.6687 43.6841 33.0223C43.6976 32.8847 43.7013 32.854 43.7013 32.854C43.7013 32.854 43.6988 32.7102 43.6976 32.6598C43.6976 32.6487 43.6976 32.5701 43.6976 32.5701ZM21.9848 34.143C21.8914 34.4269 21.7427 34.7218 21.5313 34.943C21.1123 35.3817 20.4929 35.598 19.8748 35.6005C18.4579 35.6054 17.4343 34.6616 17.1836 33.3848H18.6091C18.5992 33.3848 18.5943 33.5544 18.5943 33.6097C18.5943 34.1639 19.0699 34.6444 19.6573 34.6444C20.2447 34.6444 20.7203 34.148 20.7203 33.5937C20.7203 33.5384 20.7141 33.3836 20.7055 33.3836H22.1494C22.1482 33.5003 22.0007 34.0951 21.9848 34.143ZM41.7105 33.5077C41.6171 33.7916 41.4685 34.0963 41.2571 34.3188C40.838 34.7575 40.2187 35.0401 39.6006 35.0426C38.1714 35.0475 37.1428 34.0509 36.902 32.7716L36.9008 32.6893H38.2451C38.2378 32.6893 38.2328 32.865 38.2328 32.9142C38.2328 33.4684 38.7084 33.9599 39.2958 33.9599C39.8832 33.9599 40.3588 33.4487 40.3588 32.8945C40.3588 32.8466 40.3539 32.6905 40.3465 32.6905H41.8592C41.9293 32.6881 41.729 33.4524 41.7105 33.5077Z" fill="#FF3008"/>
<path d="M18.0177 36.4531L11.8242 36.6424L18.7919 36.855L18.6776 36.7653C18.395 36.6633 18.234 36.5465 18.0177 36.4531Z" fill="white"/>
<path d="M3 27.2817L14.2982 27.7364C14.4027 27.423 14.5354 27.1097 14.7013 26.8086L3 27.2817Z" fill="white"/>
<path d="M12.7449 31.4866C12.1489 31.5112 11.5529 31.5346 10.9569 31.5591C9.76486 31.6071 8.57286 31.655 7.38086 31.7029C9.41709 31.7852 11.4521 31.8664 13.4883 31.9487L13.6247 31.4043C13.3814 31.5137 13.014 31.4768 12.7449 31.4866Z" fill="white"/>
<path d="M16.5729 35.1074L9.0498 35.3372L16.9797 35.5793C16.9932 35.5953 17.0067 35.6113 17.0215 35.6272C16.9305 35.5105 16.8261 35.3593 16.7523 35.25L16.5729 35.1074Z" fill="white"/>
<path d="M10.6104 35.9894L17.637 36.2032C17.6554 36.2167 17.6739 36.229 17.6923 36.2413C17.4736 36.0692 17.2598 35.8567 17.1688 35.7891L10.6104 35.9894Z" fill="white"/>
<path d="M14.1213 28.3652L4.42676 28.756L13.9701 29.1406C13.9296 29.4061 13.905 29.6641 13.889 29.9111L5.99233 30.2294L13.8387 30.5452L13.8915 30.3339C13.9062 29.7907 13.9529 29.0927 14.1213 28.3652Z" fill="white"/>
<path d="M31.2358 36.1168L39.2665 36.3614C38.2858 36.2999 38.045 35.9608 37.8705 35.9141L31.2358 36.1168Z" fill="white"/>
<path d="M28.4487 34.8117L36.7608 35.0661V35.0587C36.7608 35.1127 36.8444 35.1656 36.9095 35.216C36.6944 35.0181 36.429 34.5684 36.429 34.5684L28.4487 34.8117Z" fill="white"/>
<path d="M30.0166 35.4653L37.5029 35.6938C37.5324 35.7135 37.5631 35.7319 37.5926 35.7516C37.3136 35.555 36.9536 35.2539 36.9536 35.2539L30.0166 35.4653Z" fill="white"/>
</g>
<path d="M3.4646 45V39.6545H7.00387V40.5863H4.59476V41.8601H6.76896V42.7919H4.59476V45H3.4646ZM9.26029 45.0783C8.85486 45.0783 8.50424 44.9922 8.20843 44.8199C7.91436 44.6459 7.68728 44.404 7.52719 44.0943C7.36711 43.7828 7.28707 43.4218 7.28707 43.0111C7.28707 42.597 7.36711 42.235 7.52719 41.9253C7.68728 41.6138 7.91436 41.372 8.20843 41.1997C8.50424 41.0257 8.85486 40.9387 9.26029 40.9387C9.66572 40.9387 10.0155 41.0257 10.3095 41.1997C10.6054 41.372 10.8333 41.6138 10.9934 41.9253C11.1535 42.235 11.2335 42.597 11.2335 43.0111C11.2335 43.4218 11.1535 43.7828 10.9934 44.0943C10.8333 44.404 10.6054 44.6459 10.3095 44.8199C10.0155 44.9922 9.66572 45.0783 9.26029 45.0783ZM9.26551 44.217C9.44996 44.217 9.60395 44.1648 9.7275 44.0604C9.85104 43.9542 9.94413 43.8098 10.0068 43.6271C10.0712 43.4444 10.1033 43.2365 10.1033 43.0033C10.1033 42.7701 10.0712 42.5622 10.0068 42.3795C9.94413 42.1968 9.85104 42.0523 9.7275 41.9462C9.60395 41.8401 9.44996 41.787 9.26551 41.787C9.07932 41.787 8.92272 41.8401 8.79569 41.9462C8.67041 42.0523 8.57558 42.1968 8.5112 42.3795C8.44855 42.5622 8.41723 42.7701 8.41723 43.0033C8.41723 43.2365 8.44855 43.4444 8.5112 43.6271C8.57558 43.8098 8.67041 43.9542 8.79569 44.0604C8.92272 44.1648 9.07932 44.217 9.26551 44.217ZM13.7679 45.0783C13.3625 45.0783 13.0119 44.9922 12.716 44.8199C12.422 44.6459 12.1949 44.404 12.0348 44.0943C11.8747 43.7828 11.7947 43.4218 11.7947 43.0111C11.7947 42.597 11.8747 42.235 12.0348 41.9253C12.1949 41.6138 12.422 41.372 12.716 41.1997C13.0119 41.0257 13.3625 40.9387 13.7679 40.9387C14.1733 40.9387 14.5231 41.0257 14.8172 41.1997C15.113 41.372 15.3409 41.6138 15.501 41.9253C15.6611 42.235 15.7411 42.597 15.7411 43.0111C15.7411 43.4218 15.6611 43.7828 15.501 44.0943C15.3409 44.404 15.113 44.6459 14.8172 44.8199C14.5231 44.9922 14.1733 45.0783 13.7679 45.0783ZM13.7731 44.217C13.9576 44.217 14.1116 44.1648 14.2351 44.0604C14.3587 43.9542 14.4517 43.8098 14.5144 43.6271C14.5788 43.4444 14.611 43.2365 14.611 43.0033C14.611 42.7701 14.5788 42.5622 14.5144 42.3795C14.4517 42.1968 14.3587 42.0523 14.2351 41.9462C14.1116 41.8401 13.9576 41.787 13.7731 41.787C13.5869 41.787 13.4303 41.8401 13.3033 41.9462C13.178 42.0523 13.0832 42.1968 13.0188 42.3795C12.9562 42.5622 12.9248 42.7701 12.9248 43.0033C12.9248 43.2365 12.9562 43.4444 13.0188 43.6271C13.0832 43.8098 13.178 43.9542 13.3033 44.0604C13.4303 44.1648 13.5869 44.217 13.7731 44.217ZM17.9414 45.0653C17.6369 45.0653 17.3611 44.9869 17.114 44.8303C16.8687 44.672 16.6738 44.4397 16.5294 44.1335C16.3867 43.8255 16.3154 43.4479 16.3154 43.0007C16.3154 42.5413 16.3893 42.1594 16.5372 41.8548C16.6851 41.5486 16.8817 41.3198 17.1271 41.1684C17.3742 41.0153 17.6448 40.9387 17.9388 40.9387C18.1633 40.9387 18.3503 40.977 18.5 41.0536C18.6514 41.1284 18.7732 41.2223 18.8654 41.3354C18.9594 41.4468 19.0307 41.5564 19.0794 41.6643H19.1134V39.6545H20.2226V45H19.1264V44.3579H19.0794C19.0272 44.4693 18.9533 44.5798 18.8576 44.6894C18.7636 44.7973 18.6409 44.8869 18.4896 44.9582C18.3399 45.0296 18.1572 45.0653 17.9414 45.0653ZM18.2938 44.1804C18.473 44.1804 18.6244 44.1317 18.7479 44.0343C18.8732 43.9351 18.9689 43.7968 19.0351 43.6193C19.1029 43.4418 19.1369 43.2338 19.1369 42.9955C19.1369 42.7571 19.1038 42.55 19.0377 42.3743C18.9715 42.1985 18.8758 42.0628 18.7506 41.9671C18.6253 41.8714 18.473 41.8235 18.2938 41.8235C18.1111 41.8235 17.9571 41.8731 17.8318 41.9723C17.7065 42.0715 17.6117 42.2089 17.5473 42.3847C17.4829 42.5604 17.4507 42.764 17.4507 42.9955C17.4507 43.2286 17.4829 43.4348 17.5473 43.614C17.6134 43.7915 17.7083 43.9307 17.8318 44.0317C17.9571 44.1308 18.1111 44.1804 18.2938 44.1804Z" fill="#FF3008"/>
<path d="M24.7538 45H22.8588V39.6545H24.7694C25.3071 39.6545 25.7699 39.7616 26.158 39.9756C26.546 40.1879 26.8444 40.4933 27.0532 40.8917C27.2638 41.2902 27.3691 41.767 27.3691 42.3221C27.3691 42.8789 27.2638 43.3574 27.0532 43.7576C26.8444 44.1578 26.5443 44.4649 26.1528 44.679C25.763 44.893 25.2967 45 24.7538 45ZM23.989 44.0317H24.7068C25.0409 44.0317 25.3219 43.9725 25.5498 43.8542C25.7795 43.7341 25.9518 43.5488 26.0666 43.2982C26.1832 43.0459 26.2415 42.7205 26.2415 42.3221C26.2415 41.9271 26.1832 41.6043 26.0666 41.3537C25.9518 41.1031 25.7804 40.9187 25.5524 40.8004C25.3245 40.682 25.0435 40.6229 24.7094 40.6229H23.989V44.0317ZM30.0124 45.0783C29.6 45.0783 29.2451 44.9948 28.9475 44.8277C28.6517 44.6589 28.4238 44.4206 28.2637 44.1126C28.1036 43.8028 28.0235 43.4366 28.0235 43.0137C28.0235 42.6013 28.1036 42.2394 28.2637 41.9279C28.4238 41.6165 28.6491 41.3737 28.9397 41.1997C29.232 41.0257 29.5748 40.9387 29.9681 40.9387C30.2325 40.9387 30.4788 40.9813 30.7067 41.0666C30.9364 41.1501 31.1365 41.2763 31.307 41.4451C31.4793 41.6138 31.6133 41.8261 31.709 42.0819C31.8047 42.336 31.8525 42.6335 31.8525 42.9746V43.28H28.4673V42.5909H30.8059C30.8059 42.4308 30.7711 42.289 30.7015 42.1654C30.6319 42.0419 30.5353 41.9453 30.4118 41.8757C30.29 41.8044 30.1482 41.7687 29.9863 41.7687C29.8175 41.7687 29.6679 41.8079 29.5374 41.8862C29.4086 41.9627 29.3077 42.0663 29.2346 42.1968C29.1615 42.3255 29.1241 42.4691 29.1224 42.6274V43.2826C29.1224 43.4809 29.1589 43.6523 29.232 43.7968C29.3068 43.9412 29.4121 44.0525 29.5478 44.1308C29.6836 44.2091 29.8445 44.2483 30.0307 44.2483C30.1542 44.2483 30.2673 44.2309 30.37 44.1961C30.4727 44.1613 30.5605 44.1091 30.6336 44.0395C30.7067 43.9699 30.7624 43.8846 30.8007 43.7837L31.829 43.8516C31.7768 44.0987 31.6698 44.3144 31.508 44.4989C31.3479 44.6816 31.1409 44.8243 30.8868 44.9269C30.6345 45.0278 30.343 45.0783 30.0124 45.0783ZM33.69 39.6545V45H32.5781V39.6545H33.69ZM34.5807 45V40.9909H35.6926V45H34.5807ZM35.1393 40.4741C34.974 40.4741 34.8322 40.4193 34.7138 40.3097C34.5973 40.1983 34.539 40.0652 34.539 39.9103C34.539 39.7572 34.5973 39.6258 34.7138 39.5162C34.8322 39.4048 34.974 39.3492 35.1393 39.3492C35.3046 39.3492 35.4455 39.4048 35.5621 39.5162C35.6804 39.6258 35.7396 39.7572 35.7396 39.9103C35.7396 40.0652 35.6804 40.1983 35.5621 40.3097C35.4455 40.4193 35.3046 40.4741 35.1393 40.4741ZM40.321 40.9909L38.9193 45H37.6665L36.2649 40.9909H37.4394L38.272 43.8594H38.3138L39.1438 40.9909H40.321ZM42.5878 45.0783C42.1754 45.0783 41.8205 44.9948 41.5229 44.8277C41.2271 44.6589 40.9991 44.4206 40.8391 44.1126C40.679 43.8028 40.5989 43.4366 40.5989 43.0137C40.5989 42.6013 40.679 42.2394 40.8391 41.9279C40.9991 41.6165 41.2245 41.3737 41.5151 41.1997C41.8074 41.0257 42.1502 40.9387 42.5434 40.9387C42.8079 40.9387 43.0542 40.9813 43.2821 41.0666C43.5118 41.1501 43.7119 41.2763 43.8824 41.4451C44.0547 41.6138 44.1887 41.8261 44.2844 42.0819C44.3801 42.336 44.4279 42.6335 44.4279 42.9746V43.28H41.0426V42.5909H43.3813C43.3813 42.4308 43.3465 42.289 43.2769 42.1654C43.2073 42.0419 43.1107 41.9453 42.9872 41.8757C42.8654 41.8044 42.7235 41.7687 42.5617 41.7687C42.3929 41.7687 42.2433 41.8079 42.1128 41.8862C41.984 41.9627 41.8831 42.0663 41.81 42.1968C41.7369 42.3255 41.6995 42.4691 41.6978 42.6274V43.2826C41.6978 43.4809 41.7343 43.6523 41.8074 43.7968C41.8822 43.9412 41.9875 44.0525 42.1232 44.1308C42.2589 44.2091 42.4199 44.2483 42.6061 44.2483C42.7296 44.2483 42.8427 44.2309 42.9454 44.1961C43.0481 44.1613 43.1359 44.1091 43.209 44.0395C43.2821 43.9699 43.3378 43.8846 43.3761 43.7837L44.4044 43.8516C44.3522 44.0987 44.2452 44.3144 44.0834 44.4989C43.9233 44.6816 43.7162 44.8243 43.4622 44.9269C43.2099 45.0278 42.9184 45.0783 42.5878 45.0783ZM45.1535 45V40.9909H46.2315V41.6904H46.2733C46.3463 41.4416 46.469 41.2537 46.6413 41.1266C46.8135 40.9979 47.0119 40.9335 47.2364 40.9335C47.2921 40.9335 47.3521 40.937 47.4165 40.9439C47.4809 40.9509 47.5374 40.9605 47.5861 40.9726V41.9593C47.5339 41.9436 47.4617 41.9297 47.3695 41.9175C47.2773 41.9053 47.1929 41.8992 47.1163 41.8992C46.9527 41.8992 46.8066 41.9349 46.6778 42.0062C46.5508 42.0758 46.4499 42.1733 46.3751 42.2986C46.302 42.4238 46.2654 42.5683 46.2654 42.7318V45H45.1535ZM48.9695 46.5034C48.8285 46.5034 48.6963 46.4921 48.5727 46.4695C48.4509 46.4486 48.35 46.4216 48.27 46.3886L48.5205 45.5586C48.651 45.5986 48.7685 45.6203 48.8729 45.6238C48.979 45.6273 49.0704 45.6029 49.147 45.5507C49.2253 45.4985 49.2888 45.4098 49.3375 45.2845L49.4028 45.1148L47.9646 40.9909H49.1339L49.9639 43.9351H50.0057L50.8435 40.9909H52.0207L50.4624 45.4333C50.3876 45.649 50.2858 45.837 50.1571 45.9971C50.03 46.1589 49.8691 46.2833 49.6742 46.3703C49.4793 46.459 49.2444 46.5034 48.9695 46.5034Z" fill="white"/>
<defs>
<clipPath id="clip0_124_170">
<rect width="40.7148" height="33" fill="white" transform="translate(3 4)"/>
</clipPath>
</defs>
</svg>
